<svg width="411.57" height="603.76" viewBox="0 0 411.57 603.765" xmlns="http://www.w3.org/2000/svg" xmlns:xlink="http://www.w3.org/1999/xlink"><defs><linearGradient id="b" x1="359.38" x2="216.21" y1="579.98" y2="325.72" gradientTransform="translate(-101.1 -335.28) scale(1.1494)" gradientUnits="userSpaceOnUse" xlink:href="#a"/><linearGradient id="c" x1="143.61" x2="372.45" y1="384.78" y2="567.5" gradientTransform="translate(-101.1 -335.28) scale(1.1494)" gradientUnits="userSpaceOnUse" xlink:href="#a"/><linearGradient id="d" x1="190.05" x2="341.58" y1="391.07" y2="526.51" gradientTransform="translate(-101.1 -335.28) scale(1.1494)" gradientUnits="userSpaceOnUse" xlink:href="#a"/><linearGradient id="a"><stop stop-color="#96754b" offset="0"/><stop stop-color="#9c7b51" offset=".071"/><stop stop-color="#d0b185" offset=".143"/><stop stop-color="#c7a97c" offset=".214"/><stop stop-color="#c3a779" offset=".286"/><stop stop-color="#b3986b" offset=".357"/><stop stop-color="#b6996e" offset=".429"/><stop stop-color="#bc9d73" offset=".5"/><stop stop-color="#a08259" offset=".571"/><stop stop-color="#ab8b62" offset=".643"/><stop stop-color="#ac8b64" offset=".714"/><stop stop-color="#bc9b74" offset=".786"/><stop stop-color="#ad8e66" offset=".857"/><stop stop-color="#8e7049" offset=".929"/><stop stop-color="#8c6e47" offset="1"/></linearGradient></defs><path d="M177.504 259.813l-162.5 281.465 83.918-50.351-1.644 97.85 162.499-281.464-82.273-47.5z" fill="#f30000" fill-rule="evenodd"/><path d="M32.04 496.75v184.5l42.75-48.573 42.75 48.573v-184.5h-85.5z" fill="none" stroke="#b20000" stroke-width=".794" transform="matrix(.86603 .5 -.79268 1.373 542.64 -427.22)"/><path d="M151.793 307.322l162.499 281.465-1.645-97.85 83.918 50.35-162.5-281.465-82.272 47.5z" fill="#4141f3" fill-rule="evenodd"/><path d="M129.27 514.43v184.5l42.75-48.573 42.75 48.573v-184.5h-85.5z" fill="none" stroke="#0000b2" stroke-width=".794" transform="matrix(.86603 -.5 .79268 1.373 -358.83 -328.08)"/><g stroke-linecap="round"><path d="M376.59 190.01l-43.755-16.711 37.954-27.467-46.599-4.85 29.52-36.375-46.285 7.435 19.19-42.803-42.8 19.187 7.37-46.285-36.37 29.524-4.8-46.603-27.46 37.956-16.76-43.806-16.72 43.806-27.46-37.956-4.85 46.603-36.37-29.524 7.432 46.285L85.02 69.24l19.19 42.806-46.285-7.435 29.52 36.374-46.6 4.851 37.956 27.467-43.81 16.711 43.81 16.762-37.955 27.466 46.599 4.797-29.52 36.374 46.285-7.381-19.19 42.806 42.806-19.187-7.432 46.285 36.374-29.523 4.847 46.604 27.466-37.955 16.711 43.752 16.765-43.752 27.463 37.955 4.797-46.604 36.374 29.523-7.377-46.285 42.806 19.187-19.19-42.806 46.285 7.38-29.52-36.373 46.599-4.797-37.954-27.466z" fill="url(#b)" stroke="url(#c)" stroke-miterlimit="8" stroke-width="3"/><circle cx="205.79" cy="190.01" r="116.66" fill="none" stroke="url(#d)" stroke-dasharray="2.00000849, 6.00002549" stroke-linejoin="round" stroke-width="2"/></g></svg>