<svg xmlns="http://www.w3.org/2000/svg" xmlns:xlink="http://www.w3.org/1999/xlink" width="800" height="800"><defs><linearGradient id="b"><stop offset="0" stop-color="#d38d5f"/><stop offset="1" stop-color="#d38d5f" stop-opacity="0"/></linearGradient><linearGradient id="a"><stop offset="0" stop-color="#784421"/><stop offset="1" stop-color="#784421" stop-opacity="0"/></linearGradient><linearGradient x1="-631.285" y1="451.501" x2="-628.75" y2="867.287" id="d" xlink:href="#a" gradientUnits="userSpaceOnUse" gradientTransform="translate(963.263 96.571) scale(.91148)"/><linearGradient x1="-672.268" y1="222.335" x2="-625.657" y2="661.55" id="e" xlink:href="#b" gradientUnits="userSpaceOnUse" gradientTransform="translate(963.263 96.571) scale(.91148)"/><linearGradient x1="-634.621" y1="337.069" x2="-634.621" y2="901.774" id="f" xlink:href="#b" gradientUnits="userSpaceOnUse" gradientTransform="translate(963.263 96.571) scale(.91148)"/><filter color-interpolation-filters="sRGB" id="c"><feGaussianBlur stdDeviation="9.784"/></filter></defs><path d="M464.286 244.851c-6.999 2.084-2.959 11.53-7 15.625-5.876.44-11.834-.972-17.75-.054-20.39.469-40.985-1.216-61.25.898-11.384 3.471-16.617 16.458-14.688 27.594V417.57c-58.91.274-117.874-.551-176.75.437-9.243 2.187-12.454 12.93-10.843 21.344v90.688c-6.59-.028-14.25-3.128-20.25-.313-3.468 5.437 3.803 9.15 7.293 11.878 10.93 7.382 22.368 17.167 36.582 14.935h163.968v461.03c-6.366 0-13.691-2.77-19.593-.28-4.053 5.444 3.291 10.062 6.97 12.956 9.92 6.904 19.606 15.599 31.748 17.902 34.373.292 68.837.598 103.157-.17 12.021-2.41 18.88-15.601 16.687-27.188v-464.25c52.17-.273 104.395.55 156.531-.438 9.237-2.208 12.433-12.893 10.808-21.344-.352-35.524.737-71.188-.558-106.625-3.268-9.545-14.178-12.673-21.125-19-4.261-2.727-9.256-8.852-14.5-6.812-4.18 4.468 1.26 10.463.563 15.281-6.256.393-12.624-.769-18.938-.031h-112.78c-.361-47.02.738-94.128-.563-141.094-2.844-12.19-16.617-16.07-24.47-24.281-4.092-2.949-8.325-6.398-13.25-7.344z" transform="translate(18.799 -175.4) scale(.91148)" fill="#2b1100" filter="url(#c)"/><path d="M364.743 57.008a16.145 16.145 0 00-16.179 16.179V200.28H187.66a10.06 10.06 0 00-10.083 10.083v92.632l-18.792-1.613c-5.566-.477 23.288 19.07 28.875 19.07h160.904v426.923l-17.909-1.44c-7.71-.62 23.287 20.816 30.523 22.432 1.146.256 2.34.39 3.565.39h87.815a16.145 16.145 0 0016.18-16.178V320.454h142.446a10.06 10.06 0 0010.083-10.084V210.364a10.06 10.06 0 00-5.094-8.773c-1.47-.834-23.25-17.536-22.898-15.753l2.85 14.443H468.738V73.187c0-6.259-3.52-11.667-8.696-14.36-2.235-1.163-22.53-18.33-23.08-15.684l-2.884 13.865z" fill="#2b1100"/><path d="M341.635 40.832a16.145 16.145 0 00-16.18 16.179v127.094H164.552a10.06 10.06 0 00-10.083 10.083v100.006a10.06 10.06 0 0010.083 10.084h160.905v432.126a16.145 16.145 0 0016.179 16.179h87.815a16.145 16.145 0 0016.179-16.179V304.278h142.447a10.06 10.06 0 0010.083-10.084V194.188a10.06 10.06 0 00-10.083-10.083H445.629V57.01a16.145 16.145 0 00-16.18-16.18h-87.814z" fill="#502d16"/><path d="M341.635 293.194a16.145 16.145 0 00-16.18 16.179v127.094H164.552a10.06 10.06 0 00-10.083 10.083v100.007a10.06 10.06 0 0010.083 10.083h160.905v432.126a16.145 16.145 0 0016.179 16.179h87.815a16.145 16.145 0 0016.179-16.179V556.64h142.447a10.06 10.06 0 0010.083-10.083V446.55a10.06 10.06 0 00-10.083-10.083H445.629V309.373a16.145 16.145 0 00-16.18-16.179h-87.814z" fill="url(#d)" transform="translate(0 -252.362)"/><path d="M428.766 49.861c-30.331 1.466-60.85-1.438-91.062 1.481-6.447 7.023-1.627 17.283-2.906 25.778v116.157c-56.869.878-113.76-.932-170.617.968-2.245 7.742 1.068 15.771-.212 23.698.216 25.55-1.444 51.273.924 76.679 8.924 1.943 18.05-.953 27.117.313h142.703c.632 148.244-.885 296.593.854 444.773 5.86 7.042 16.04 2.622 23.841 3.35 24.776-.326 49.704 1.936 74.314-1.328 6.153-7.725 1.125-18.317 2.564-27.258V295.134c50.724-.982 101.48 1.029 152.188-1.025 2.168-8.336-1.106-16.962.179-25.464-.15-24.953 1.418-50.077-.92-74.884-8.923-1.944-18.048.953-27.116-.313H436.485c-1.6-47.002 2.218-94.31-1.937-141.109-1.512-1.554-3.688-2.374-5.782-2.478z" fill="#784421"/><path d="M368.21 63.96c-6.458.567-13.253-.535-19.625.912.701 47.357-.037 94.718.227 142.077-56.95 1.386-113.924-.434-170.873.968.593 24.362-.94 48.733.057 73.09 56.796-.335 113.593.054 170.39-.086 1.487 149.507-1.084 299.032 1.423 448.533 20.164-1.347 40.402-.22 60.471.342 4.094-.116 8.296-.6 12.248-1.624-.707-92.988.045-185.98-.256-278.97v-167.71c50.792-1.59 101.623.546 152.416-1.054-.57-24.353 1-48.715-.057-73.06-50.453.334-100.908-.056-151.362.085-3.409-47.635 1.554-95.623-2.051-143.245-17.668.72-35.338-.613-53.008-.256z" fill="#a05a2c"/><path d="M368.21 316.323c-6.458.566-13.253-.536-19.625.911.701 47.357-.037 94.718.227 142.077-56.95 1.386-113.924-.434-170.873.968.593 24.362-.94 48.733.057 73.09 56.796-.335 113.593.054 170.39-.086 1.487 149.507-1.084 299.033 1.423 448.533 20.164-1.347 40.402-.22 60.471.342 4.094-.115 8.296-.6 12.248-1.624-.707-92.987.045-185.98-.256-278.969V533.853c50.792-1.59 101.623.546 152.416-1.054-.57-24.353 1-48.715-.057-73.06-50.453.334-100.908-.056-151.362.085-3.409-47.635 1.554-95.623-2.051-143.245-17.668.72-35.338-.613-53.008-.256z" fill="url(#e)" transform="translate(0 -252.362)"/><path d="M368.21 316.323c-6.458.566-13.253-.536-19.625.911.701 47.357-.037 94.718.227 142.077-56.95 1.386-113.924-.434-170.873.968.593 24.362-.94 48.733.057 73.09 56.796-.335 113.593.054 170.39-.086 1.487 149.507-1.084 299.033 1.423 448.533 20.164-1.347 40.402-.22 60.471.342 4.094-.115 8.296-.6 12.248-1.624-.707-92.987.045-185.98-.256-278.969V533.853c50.792-1.59 101.623.546 152.416-1.054-.57-24.353 1-48.715-.057-73.06-50.453.334-100.908-.056-151.362.085-3.409-47.635 1.554-95.623-2.051-143.245-17.668.72-35.338-.613-53.008-.256z" fill="url(#f)" transform="translate(0 -252.362)"/></svg>