<svg width="411.57" height="603.76" viewBox="0 0 411.57 603.765" xmlns="http://www.w3.org/2000/svg" xmlns:xlink="http://www.w3.org/1999/xlink"><defs><linearGradient id="b" x1="359.38" x2="216.21" y1="579.98" y2="325.72" gradientUnits="userSpaceOnUse" xlink:href="#a"/><linearGradient id="a"><stop stop-color="#f3ed6d" offset="0"/><stop stop-color="#ede77c" offset=".071"/><stop stop-color="#f5ef72" offset=".143"/><stop stop-color="#f4e65c" offset=".214"/><stop stop-color="#eed756" offset=".286"/><stop stop-color="#e9c952" offset=".357"/><stop stop-color="#eac74d" offset=".429"/><stop stop-color="#eac848" offset=".5"/><stop stop-color="#e6c842" offset=".571"/><stop stop-color="#e1c540" offset=".643"/><stop stop-color="#dbbd3c" offset=".714"/><stop stop-color="#d1ae39" offset=".786"/><stop stop-color="#c7a534" offset=".857"/><stop stop-color="#c4a92f" offset=".929"/><stop stop-color="#c1ac2d" offset="1"/></linearGradient><linearGradient id="c" x1="158.59" x2="372.45" y1="360.17" y2="567.5" gradientUnits="userSpaceOnUse" xlink:href="#a"/><linearGradient id="d" x1="190.05" x2="341.58" y1="391.07" y2="526.51" gradientTransform="translate(-.002 -.002)" gradientUnits="userSpaceOnUse" xlink:href="#a"/></defs><path d="M177.506 259.817l-162.5 281.465 83.918-50.351-1.645 97.85 162.5-281.464-82.273-47.5z" fill="#f30000" fill-rule="evenodd"/><path d="M32.04 496.75v184.5l42.75-48.573 42.75 48.573v-184.5h-85.5z" fill="none" stroke="#b20000" stroke-width=".794" transform="matrix(.86603 .5 -.79268 1.373 542.642 -427.216)"/><path d="M151.794 307.326l162.5 281.465-1.645-97.85 83.917 50.35-162.499-281.465-82.273 47.5z" fill="#4141f3" fill-rule="evenodd"/><path d="M129.27 514.43v184.5l42.75-48.573 42.75 48.573v-184.5h-85.5z" fill="none" stroke="#0000b2" stroke-width=".794" transform="matrix(.86603 -.5 .79268 1.373 -358.828 -328.076)"/><g transform="translate(-101.103 -335.276) scale(1.1494)" stroke-linecap="round"><path d="M415.6 457.01l-38.068-14.539 33.021-23.897-40.542-4.22 25.683-31.646-40.269 6.468 16.696-37.242-37.242 16.693 6.419-40.269-31.646 25.686-4.174-40.545-23.893 33.022L267 308.41l-14.539 38.112-23.896-33.022-4.217 40.545-31.646-25.686 6.466 40.27-37.242-16.694 16.696 37.242-40.27-6.468 25.684 31.646-40.542 4.22 33.022 23.897L118.4 457.01l38.115 14.583-33.022 23.896 40.542 4.173-25.683 31.646 40.269-6.421-16.696 37.242 37.242-16.693-6.466 40.269 31.646-25.686 4.217 40.546 23.896-33.022L267 605.608l14.585-38.065 23.893 33.022 4.174-40.546 31.646 25.686-6.419-40.27 37.242 16.694-16.696-37.242 40.269 6.421-25.683-31.646 40.542-4.173-33.021-23.896z" fill="url(#b)" stroke="url(#c)" stroke-miterlimit="8" stroke-width="2.61"/><circle cx="267" cy="457.01" r="101.5" fill="none" stroke="url(#d)" stroke-dasharray="1.74004567, 5.22013702" stroke-linejoin="round" stroke-width="1.74"/></g></svg>