<svg xmlns="http://www.w3.org/2000/svg" xmlns:xlink="http://www.w3.org/1999/xlink" viewBox="0 0 168.32 130.27"><defs><style>.cls-1{fill:none;}.cls-2{clip-path:url(#clip-path);}.cls-3{fill:#fff;}.cls-4{fill:#ff5f00;}.cls-5{fill:#eb001b;}.cls-6{fill:#f79e1b;}</style><clipPath id="clip-path"><rect id="_Rectangle_" data-name="&lt;Rectangle&gt;" class="cls-1" width="168.32" height="137.25"/></clipPath></defs><title>Asset 3</title><g id="Layer_2" data-name="Layer 2"><g id="Layer_1-2" data-name="Layer 1"><g class="cls-2"><rect id="_Path_" data-name="&lt;Path&gt;" width="168.32" height="106.44"/><path d="M59.43,117.4a5.78,5.78,0,0,1,2.54.52,5.39,5.39,0,0,1,1.82,1.4v-8h2.13V130H63.78v-1.65A5.48,5.48,0,0,1,62,129.75a5.78,5.78,0,0,1-2.54.52,6.15,6.15,0,0,1-2.43-.48,5.93,5.93,0,0,1-2-1.34,6.23,6.23,0,0,1-1.31-2,7.25,7.25,0,0,1,0-5.16,6.24,6.24,0,0,1,1.31-2,6,6,0,0,1,2-1.34A6.15,6.15,0,0,1,59.43,117.4Zm.25,2a4.32,4.32,0,0,0-1.75.34,4,4,0,0,0-1.35.95,4.2,4.2,0,0,0-.86,1.41,4.92,4.92,0,0,0-.3,1.73,4.84,4.84,0,0,0,.31,1.73,4.3,4.3,0,0,0,.86,1.41,4.05,4.05,0,0,0,1.35,1,4.2,4.2,0,0,0,1.74.35,4.27,4.27,0,0,0,1.72-.34,4,4,0,0,0,1.34-.94,4.29,4.29,0,0,0,.87-1.41,4.87,4.87,0,0,0,.31-1.76,4.82,4.82,0,0,0-.31-1.75,4.32,4.32,0,0,0-.87-1.4,4,4,0,0,0-1.34-.94A4.27,4.27,0,0,0,59.67,119.4Zm15.73-2a5.72,5.72,0,0,1,2.33.47,5.35,5.35,0,0,1,1.83,1.31,6.15,6.15,0,0,1,1.2,2,7.63,7.63,0,0,1,.45,2.59c0,.14,0,.28,0,.41l0,.38H71.46a4.91,4.91,0,0,0,.49,1.68,3.94,3.94,0,0,0,.93,1.2,3.67,3.67,0,0,0,1.27.71,4.81,4.81,0,0,0,1.51.23,5.42,5.42,0,0,0,2.05-.39,6.26,6.26,0,0,0,1.75-1.08l1.13,1.46a7,7,0,0,1-1.18.9,6.4,6.4,0,0,1-1.25.58,7,7,0,0,1-1.3.31,9.87,9.87,0,0,1-1.34.09,6.73,6.73,0,0,1-2.53-.46,5.7,5.7,0,0,1-2-1.31,6,6,0,0,1-1.29-2,7.65,7.65,0,0,1,0-5.23,6,6,0,0,1,1.28-2A5.84,5.84,0,0,1,73,117.87,6.25,6.25,0,0,1,75.4,117.4Zm0,1.88a3.94,3.94,0,0,0-1.48.27,3.5,3.5,0,0,0-1.15.74,4,4,0,0,0-.81,1.13,4.93,4.93,0,0,0-.44,1.45H79a5.06,5.06,0,0,0-.41-1.48,3.83,3.83,0,0,0-.78-1.13,3.33,3.33,0,0,0-1.1-.72A3.68,3.68,0,0,0,75.36,119.28ZM91,117.4a6.1,6.1,0,0,1,2.42.48,6,6,0,0,1,2,1.34,6.33,6.33,0,0,1,1.31,2,7.15,7.15,0,0,1,0,5.16,6.32,6.32,0,0,1-1.31,2,6,6,0,0,1-2,1.34,6.1,6.1,0,0,1-2.42.48,5.82,5.82,0,0,1-2.55-.52,5.36,5.36,0,0,1-1.81-1.39V130H84.57V111.29h2.12v8a5.36,5.36,0,0,1,1.81-1.39A5.82,5.82,0,0,1,91,117.4Zm-.25,2a4.27,4.27,0,0,0-1.72.34,4,4,0,0,0-1.34.94,4.33,4.33,0,0,0-.87,1.4,4.82,4.82,0,0,0-.31,1.75,4.87,4.87,0,0,0,.31,1.76,4.3,4.3,0,0,0,.87,1.41,4,4,0,0,0,1.34.94,4.27,4.27,0,0,0,1.72.34,4.19,4.19,0,0,0,1.74-.35,4.07,4.07,0,0,0,1.34-1,4.22,4.22,0,0,0,.86-1.41,4.94,4.94,0,0,0,.3-1.73,4.84,4.84,0,0,0-.3-1.73,4.3,4.3,0,0,0-.87-1.41,4,4,0,0,0-1.34-.95A4.23,4.23,0,0,0,90.79,119.4Zm10.82-7.61a1.51,1.51,0,0,1,1.52,1.52,1.45,1.45,0,0,1-.93,1.37,1.58,1.58,0,0,1-.59.11,1.53,1.53,0,0,1-.58-.11,1.42,1.42,0,0,1-.47-.31,1.52,1.52,0,0,1-.32-.47,1.47,1.47,0,0,1-.12-.58,1.51,1.51,0,0,1,.12-.6,1.59,1.59,0,0,1,.32-.48,1.46,1.46,0,0,1,1.06-.44ZM102.69,130h-2.12V117.66h2.12Zm12.67-10.41h-5.19v6a3.64,3.64,0,0,0,.18,1.2,2.24,2.24,0,0,0,.49.83,1.93,1.93,0,0,0,.74.48,2.65,2.65,0,0,0,.93.16,3.91,3.91,0,0,0,1.34-.23,5.26,5.26,0,0,0,1.18-.6l1,1.6a7,7,0,0,1-1.64.87,5.77,5.77,0,0,1-2.07.35,5.37,5.37,0,0,1-1.79-.28,3.4,3.4,0,0,1-1.35-.85,3.77,3.77,0,0,1-.84-1.44,6.39,6.39,0,0,1-.29-2v-6.06h-2.64v-1.94H108v-3.87h2.13v3.87h5.19Z"/><path id="_Compound_Path_" data-name="&lt;Compound Path&gt;" class="cls-3" d="M47,97.55v-6a3.49,3.49,0,0,0-3.68-3.78,3.71,3.71,0,0,0-3.36,1.7,3.52,3.52,0,0,0-3.16-1.7,3.27,3.27,0,0,0-2.88,1.4V88H31.95v9.57h1.94V92.07a2.3,2.3,0,0,1,2.42-2.54c1.38,0,2.16.9,2.16,2.52v5.51h1.94V92.07a2.31,2.31,0,0,1,2.42-2.54c1.42,0,2.18.9,2.18,2.52v5.51ZM78.16,88H74.68v-2.9H72.73V88h-2v1.74h2v4.53c0,2.22.78,3.54,3.24,3.54a4.89,4.89,0,0,0,2.6-.74l-.6-1.7a3.84,3.84,0,0,1-1.84.54c-1,0-1.46-.64-1.46-1.6V89.72h3.48Zm17.76-.24a3,3,0,0,0-2.6,1.4V88h-1.9v9.57h1.92V92.17c0-1.58.76-2.6,2.12-2.6a3.39,3.39,0,0,1,1.3.24L97.4,88a4.45,4.45,0,0,0-1.48-.26Zm-26.85,1a7.16,7.16,0,0,0-3.9-1c-2.42,0-3.9,1.14-3.9,3,0,1.56,1.08,2.5,3.22,2.8l1,.14c1.14.16,1.76.56,1.76,1.1,0,.74-.84,1.22-2.26,1.22a5,5,0,0,1-3.18-1l-1,1.5a7.14,7.14,0,0,0,4.14,1.24c2.76,0,4.29-1.28,4.29-3.1S68.07,92.15,66,91.85l-1-.14c-.9-.12-1.7-.4-1.7-1s.76-1.18,1.9-1.18a6.17,6.17,0,0,1,3,.82Zm29,4a4.77,4.77,0,0,0,5,5,5,5,0,0,0,3.44-1.14l-1-1.5a4.21,4.21,0,0,1-2.5.86,3.26,3.26,0,0,1,0-6.49,4.21,4.21,0,0,1,2.5.86l1-1.5a5,5,0,0,0-3.44-1.14,4.77,4.77,0,0,0-5,5Zm-13.46-5c-2.8,0-4.73,2-4.73,5a4.71,4.71,0,0,0,4.87,5,5.82,5.82,0,0,0,3.92-1.34l-1-1.42a4.56,4.56,0,0,1-2.78,1A2.81,2.81,0,0,1,82,93.55h7.15c0-.26,0-.52,0-.8,0-3-1.82-5-4.51-5Zm0,1.78a2.44,2.44,0,0,1,2.52,2.42H82a2.56,2.56,0,0,1,2.64-2.42ZM58.7,92.77V88H56.78v1.16a3.79,3.79,0,0,0-3.1-1.4,5,5,0,0,0,0,10.05,3.79,3.79,0,0,0,3.1-1.4v1.16H58.7Zm-7.75,0a3,3,0,0,1,3-3.24,3.26,3.26,0,0,1,0,6.49,3,3,0,0,1-3-3.24Zm73.89-5a3,3,0,0,0-2.6,1.4V88h-1.9v9.57h1.92V92.17c0-1.58.76-2.6,2.12-2.6a3.39,3.39,0,0,1,1.3.24l.64-1.8a4.45,4.45,0,0,0-1.48-.26Zm15.42,8.42a1,1,0,0,1,.38.07,1,1,0,0,1,.31.2,1,1,0,0,1,.21.3.93.93,0,0,1,0,.74,1,1,0,0,1-.21.3,1,1,0,0,1-.31.2.94.94,0,0,1-.38.08,1,1,0,0,1-.9-.58.94.94,0,0,1,0-.74,1,1,0,0,1,.21-.3,1,1,0,0,1,.31-.2A1,1,0,0,1,140.26,96.16Zm0,1.69a.71.71,0,0,0,.29-.06.76.76,0,0,0,.23-.16.74.74,0,0,0,0-1,.74.74,0,0,0-.23-.16.71.71,0,0,0-.29-.06.74.74,0,0,0-.29.06.73.73,0,0,0-.24.16.74.74,0,0,0,0,1,.75.75,0,0,0,.24.16A.74.74,0,0,0,140.26,97.86Zm.06-1.19a.4.4,0,0,1,.26.08.25.25,0,0,1,.09.21.24.24,0,0,1-.07.18.35.35,0,0,1-.21.09l.29.33h-.23l-.27-.33h-.09v.33h-.19v-.88Zm-.22.17v.24h.22a.21.21,0,0,0,.12,0,.1.1,0,0,0,0-.09.1.1,0,0,0,0-.09.22.22,0,0,0-.12,0Zm-22.63-4.07V88h-1.92v1.16a3.79,3.79,0,0,0-3.1-1.4,5,5,0,0,0,0,10.05,3.79,3.79,0,0,0,3.1-1.4v1.16h1.92Zm-7.75,0a3,3,0,0,1,3-3.24,3.26,3.26,0,0,1,0,6.49,3,3,0,0,1-3-3.24Zm27.07,0V84.14h-1.92v5a3.79,3.79,0,0,0-3.1-1.4,5,5,0,0,0,0,10.05,3.79,3.79,0,0,0,3.1-1.4v1.16h1.92Zm-7.75,0a3,3,0,0,1,3-3.24A3.26,3.26,0,0,1,132,96,3,3,0,0,1,129,92.77Z"/><g id="_Group_" data-name="&lt;Group&gt;"><rect class="cls-4" x="68.41" y="15.14" width="31.5" height="56.61"/><path id="_Path_2" data-name="&lt;Path&gt;" class="cls-5" d="M70.41,43.45a35.94,35.94,0,0,1,13.75-28.3,36,36,0,1,0,0,56.61A35.94,35.94,0,0,1,70.41,43.45Z"/><path class="cls-6" d="M139,65.76V64.6h.47v-.24h-1.19v.24h.47v1.16Zm2.31,0v-1.4h-.36l-.42,1-.42-1h-.36v1.4H140V64.7l.39.91h.27l.39-.91v1.06Z"/><path class="cls-6" d="M142.41,43.45a36,36,0,0,1-58.25,28.3,36,36,0,0,0,0-56.61,36,36,0,0,1,58.25,28.3Z"/></g></g></g></g></svg>