<svg width="411.57" height="603.76" viewBox="0 0 411.57 603.765" xmlns="http://www.w3.org/2000/svg" xmlns:xlink="http://www.w3.org/1999/xlink"><defs><linearGradient id="b" x1="359.38" x2="216.21" y1="579.98" y2="325.72" gradientTransform="translate(454.26 -198.07) scale(1.1494)" gradientUnits="userSpaceOnUse" xlink:href="#a"/><linearGradient id="a"><stop stop-color="#eaeff1" offset="0"/><stop stop-color="#e6ebee" offset=".071"/><stop stop-color="#dde2e6" offset=".143"/><stop stop-color="#d2d7dd" offset=".214"/><stop stop-color="#c6ccd3" offset=".286"/><stop stop-color="#c9d0d7" offset=".357"/><stop stop-color="#dce0e5" offset=".429"/><stop stop-color="#dfe5e8" offset=".5"/><stop stop-color="#d9dfe4" offset=".571"/><stop stop-color="#d3d7dd" offset=".643"/><stop stop-color="#cad0d8" offset=".714"/><stop stop-color="#c4cbd3" offset=".786"/><stop stop-color="#cbd0d8" offset=".857"/><stop stop-color="#dce1e5" offset=".929"/><stop stop-color="#e0e6ea" offset="1"/></linearGradient><linearGradient id="c" x1="158.59" x2="372.45" y1="360.17" y2="567.5" gradientTransform="translate(454.26 -198.07) scale(1.1494)" gradientUnits="userSpaceOnUse" xlink:href="#a"/><linearGradient id="d" x1="162.76" x2="365.15" y1="463.01" y2="483.1" gradientTransform="translate(454.26 -198.07) scale(1.1494)" gradientUnits="userSpaceOnUse" xlink:href="#a"/></defs><path d="M151.803 307.322l162.499 281.465-1.645-97.85 83.918 50.35-162.5-281.465-82.272 47.5z" fill="#4141f3" fill-rule="evenodd"/><path d="M129.27 514.43v184.5l42.75-48.573 42.75 48.573v-184.5h-85.5z" fill="none" stroke="#0000b2" stroke-width=".794" transform="matrix(.86603 -.5 .79268 1.373 -358.82 -328.08)"/><path d="M177.514 259.813l-162.5 281.465 83.918-50.351-1.644 97.85 162.499-281.464-82.273-47.5z" fill="#f30000" fill-rule="evenodd"/><path d="M32.04 496.75v184.5l42.75-48.573 42.75 48.573v-184.5h-85.5z" fill="none" stroke="#b20000" stroke-width=".794" transform="matrix(.86603 .5 -.79268 1.373 542.65 -427.22)"/><g transform="translate(-555.36 -137.21)" stroke-linecap="round"><path d="M931.95 327.21l-43.754-16.711 37.955-27.466-46.599-4.85 29.52-36.375-46.285 7.435 19.19-42.806-42.805 19.187 7.378-46.285-36.374 29.524-4.797-46.603-27.463 37.955-16.765-43.806-16.711 43.806-27.466-37.955-4.848 46.603-36.374-29.524 7.432 46.285-42.805-19.187 19.19 42.806-46.285-7.435 29.52 36.374-46.6 4.851 37.956 27.466-43.81 16.711 43.81 16.762-37.955 27.466 46.599 4.797-29.52 36.374 46.285-7.381-19.19 42.806 42.805-19.187-7.432 46.285 36.374-29.524 4.848 46.603 27.466-37.955 16.71 43.752 16.766-43.752 27.463 37.955 4.797-46.603 36.374 29.524-7.378-46.285 42.805 19.187-19.19-42.806 46.285 7.38-29.52-36.373 46.599-4.797-37.955-27.466z" fill="url(#b)" stroke="url(#c)" stroke-miterlimit="8" stroke-width="3"/><circle cx="761.15" cy="327.21" r="116.66" fill="none" stroke="url(#d)" stroke-dasharray="1.99999431, 5.99998295" stroke-linejoin="round" stroke-width="2"/></g></svg>