<?xml version="1.0" encoding="UTF-8" standalone="no"?>
<!DOCTYPE svg PUBLIC "-//W3C//DTD SVG 1.1//EN"
 "http://www.w3.org/Graphics/SVG/1.1/DTD/svg11.dtd">
<!-- Generated by graphviz version 2.40.1 (20161225.0304)
 -->
<!-- Title: dependencies Pages: 1 -->
<svg width="914pt" height="284pt"
 viewBox="0.00 0.00 914.00 284.00" xmlns="http://www.w3.org/2000/svg" xmlns:xlink="http://www.w3.org/1999/xlink">
<g id="graph0" class="graph" transform="scale(1 1) rotate(0) translate(4 280)">
<title>dependencies</title>
<polygon fill="#ffffff" stroke="transparent" points="-4,4 -4,-280 910,-280 910,4 -4,4"/>
<text text-anchor="start" x="432.0091" y="-42.4" font-family="sans-serif" font-weight="bold" font-size="14.00" fill="#000000">Legend</text>
<polygon fill="#ffffb3" stroke="transparent" points="219,-10 219,-30 239,-30 239,-10 219,-10"/>
<text text-anchor="start" x="242.629" y="-15.4" font-family="sans-serif" font-size="14.00" fill="#000000"> &#160;Declarations</text>
<polygon fill="#8dd3c7" stroke="transparent" points="332,-10 332,-30 352,-30 352,-10 332,-10"/>
<text text-anchor="start" x="355.7251" y="-15.4" font-family="sans-serif" font-size="14.00" fill="#000000"> &#160;Module</text>
<polygon fill="#80b1d3" stroke="transparent" points="418,-10 418,-30 438,-30 438,-10 418,-10"/>
<text text-anchor="start" x="441.7812" y="-15.4" font-family="sans-serif" font-size="14.00" fill="#000000"> &#160;Bootstrap</text>
<polygon fill="#fdb462" stroke="transparent" points="515,-10 515,-30 535,-30 535,-10 515,-10"/>
<text text-anchor="start" x="538.6732" y="-15.4" font-family="sans-serif" font-size="14.00" fill="#000000"> &#160;Providers</text>
<polygon fill="#fb8072" stroke="transparent" points="611,-10 611,-30 631,-30 631,-10 611,-10"/>
<text text-anchor="start" x="634.7258" y="-15.4" font-family="sans-serif" font-size="14.00" fill="#000000"> &#160;Exports</text>
<g id="clust1" class="cluster">
<title>cluster_HomePageModule</title>
<polygon fill="none" stroke="#000000" stroke-dasharray="1,5" points="8,-70 8,-268 898,-268 898,-70 8,-70"/>
</g>
<g id="clust2" class="cluster">
<title>cluster_HomePageModule_declarations</title>
<polygon fill="none" stroke="#000000" points="796,-78 796,-130 890,-130 890,-78 796,-78"/>
</g>
<g id="clust4" class="cluster">
<title>cluster_HomePageModule_imports</title>
<polygon fill="none" stroke="#000000" points="16,-78 16,-130 788,-130 788,-78 16,-78"/>
</g>
<g id="clust5" class="cluster">
<title>cluster_HomePageModule_exports</title>
<polygon fill="none" stroke="#000000" points="353,-208 353,-260 547,-260 547,-208 353,-208"/>
</g>
<!-- HomePage -->
<g id="node1" class="node">
<title>HomePage</title>
<polygon fill="#ffffb3" stroke="#000000" points="881.9248,-122 804.0752,-122 804.0752,-86 881.9248,-86 881.9248,-122"/>
<text text-anchor="middle" x="843" y="-99.8" font-family="Times,serif" font-size="14.00" fill="#000000">HomePage</text>
</g>
<!-- HomePageModule -->
<g id="node2" class="node">
<title>HomePageModule</title>
<polygon fill="#8dd3c7" stroke="#000000" points="510.4734,-187 507.4734,-191 486.4734,-191 483.4734,-187 389.5266,-187 389.5266,-151 510.4734,-151 510.4734,-187"/>
<text text-anchor="middle" x="450" y="-164.8" font-family="Times,serif" font-size="14.00" fill="#000000">HomePageModule</text>
</g>
<!-- HomePage&#45;&gt;HomePageModule -->
<g id="edge1" class="edge">
<title>HomePage&#45;&gt;HomePageModule</title>
<path fill="none" stroke="#000000" d="M843,-122.2921C843,-144.2057 843,-178 843,-178 843,-178 520.545,-178 520.545,-178"/>
<polygon fill="#000000" stroke="#000000" points="520.545,-174.5001 510.545,-178 520.5449,-181.5001 520.545,-174.5001"/>
</g>
<!-- NgxTwitterTimelineModule  -->
<g id="node9" class="node">
<title>NgxTwitterTimelineModule </title>
<polygon fill="#fb8072" stroke="#000000" points="539.4068,-252 360.5932,-252 360.5932,-216 539.4068,-216 539.4068,-252"/>
<text text-anchor="middle" x="450" y="-229.8" font-family="Times,serif" font-size="14.00" fill="#000000">NgxTwitterTimelineModule </text>
</g>
<!-- HomePageModule&#45;&gt;NgxTwitterTimelineModule  -->
<g id="edge8" class="edge">
<title>HomePageModule&#45;&gt;NgxTwitterTimelineModule </title>
<path fill="none" stroke="#000000" stroke-dasharray="5,2" d="M450,-187.1061C450,-187.1061 450,-205.991 450,-205.991"/>
<polygon fill="#000000" stroke="#000000" points="446.5001,-205.9909 450,-215.991 453.5001,-205.991 446.5001,-205.9909"/>
</g>
<!-- CommonModule -->
<g id="node3" class="node">
<title>CommonModule</title>
<polygon fill="#8dd3c7" stroke="#000000" points="779.6681,-122 776.6681,-126 755.6681,-126 752.6681,-122 668.3319,-122 668.3319,-86 779.6681,-86 779.6681,-122"/>
<text text-anchor="middle" x="724" y="-99.8" font-family="Times,serif" font-size="14.00" fill="#000000">CommonModule</text>
</g>
<!-- CommonModule&#45;&gt;HomePageModule -->
<g id="edge2" class="edge">
<title>CommonModule&#45;&gt;HomePageModule</title>
<path fill="none" stroke="#000000" d="M724,-122.1061C724,-141.3391 724,-169 724,-169 724,-169 520.8095,-169 520.8095,-169"/>
<polygon fill="#000000" stroke="#000000" points="520.8095,-165.5001 510.8095,-169 520.8094,-172.5001 520.8095,-165.5001"/>
</g>
<!-- FormsModule -->
<g id="node4" class="node">
<title>FormsModule</title>
<polygon fill="#8dd3c7" stroke="#000000" points="650.8288,-122 647.8288,-126 626.8288,-126 623.8288,-122 555.1712,-122 555.1712,-86 650.8288,-86 650.8288,-122"/>
<text text-anchor="middle" x="603" y="-99.8" font-family="Times,serif" font-size="14.00" fill="#000000">FormsModule</text>
</g>
<!-- FormsModule&#45;&gt;HomePageModule -->
<g id="edge3" class="edge">
<title>FormsModule&#45;&gt;HomePageModule</title>
<path fill="none" stroke="#000000" d="M603,-122.027C603,-138.3976 603,-160 603,-160 603,-160 520.9093,-160 520.9093,-160"/>
<polygon fill="#000000" stroke="#000000" points="520.9093,-156.5001 510.9093,-160 520.9092,-163.5001 520.9093,-156.5001"/>
</g>
<!-- NgxTwitterTimelineModule -->
<g id="node5" class="node">
<title>NgxTwitterTimelineModule</title>
<polygon fill="#8dd3c7" stroke="#000000" points="537.9073,-122 534.9073,-126 513.9073,-126 510.9073,-122 362.0927,-122 362.0927,-86 537.9073,-86 537.9073,-122"/>
<text text-anchor="middle" x="450" y="-99.8" font-family="Times,serif" font-size="14.00" fill="#000000">NgxTwitterTimelineModule</text>
</g>
<!-- NgxTwitterTimelineModule&#45;&gt;HomePageModule -->
<g id="edge4" class="edge">
<title>NgxTwitterTimelineModule&#45;&gt;HomePageModule</title>
<path fill="none" stroke="#000000" d="M450,-122.1061C450,-122.1061 450,-140.991 450,-140.991"/>
<polygon fill="#000000" stroke="#000000" points="446.5001,-140.9909 450,-150.991 453.5001,-140.991 446.5001,-140.9909"/>
</g>
<!-- IonicModule -->
<g id="node6" class="node">
<title>IonicModule</title>
<polygon fill="#8dd3c7" stroke="#000000" points="344.3162,-122 341.3162,-126 320.3162,-126 317.3162,-122 255.6838,-122 255.6838,-86 344.3162,-86 344.3162,-122"/>
<text text-anchor="middle" x="300" y="-99.8" font-family="Times,serif" font-size="14.00" fill="#000000">IonicModule</text>
</g>
<!-- IonicModule&#45;&gt;HomePageModule -->
<g id="edge5" class="edge">
<title>IonicModule&#45;&gt;HomePageModule</title>
<path fill="none" stroke="#000000" d="M300,-122.027C300,-138.3976 300,-160 300,-160 300,-160 379.4216,-160 379.4216,-160"/>
<polygon fill="#000000" stroke="#000000" points="379.4217,-163.5001 389.4216,-160 379.4216,-156.5001 379.4217,-163.5001"/>
</g>
<!-- RouterModule -->
<g id="node7" class="node">
<title>RouterModule</title>
<polygon fill="#8dd3c7" stroke="#000000" points="237.6528,-122 234.6528,-126 213.6528,-126 210.6528,-122 140.3472,-122 140.3472,-86 237.6528,-86 237.6528,-122"/>
<text text-anchor="middle" x="189" y="-99.8" font-family="Times,serif" font-size="14.00" fill="#000000">RouterModule</text>
</g>
<!-- RouterModule&#45;&gt;HomePageModule -->
<g id="edge6" class="edge">
<title>RouterModule&#45;&gt;HomePageModule</title>
<path fill="none" stroke="#000000" d="M189,-122.1061C189,-141.3391 189,-169 189,-169 189,-169 379.4653,-169 379.4653,-169"/>
<polygon fill="#000000" stroke="#000000" points="379.4654,-172.5001 389.4653,-169 379.4653,-165.5001 379.4654,-172.5001"/>
</g>
<!-- SharedModule -->
<g id="node8" class="node">
<title>SharedModule</title>
<polygon fill="#8dd3c7" stroke="#000000" points="122.4231,-122 119.4231,-126 98.4231,-126 95.4231,-122 23.5769,-122 23.5769,-86 122.4231,-86 122.4231,-122"/>
<text text-anchor="middle" x="73" y="-99.8" font-family="Times,serif" font-size="14.00" fill="#000000">SharedModule</text>
</g>
<!-- SharedModule&#45;&gt;HomePageModule -->
<g id="edge7" class="edge">
<title>SharedModule&#45;&gt;HomePageModule</title>
<path fill="none" stroke="#000000" d="M73,-122.2921C73,-144.2057 73,-178 73,-178 73,-178 379.4284,-178 379.4284,-178"/>
<polygon fill="#000000" stroke="#000000" points="379.4285,-181.5001 389.4284,-178 379.4284,-174.5001 379.4285,-181.5001"/>
</g>
</g>
</svg>
