<?xml version="1.0" encoding="UTF-8" standalone="no"?>
<!DOCTYPE svg PUBLIC "-//W3C//DTD SVG 1.1//EN"
 "http://www.w3.org/Graphics/SVG/1.1/DTD/svg11.dtd">
<!-- Generated by graphviz version 2.40.1 (20161225.0304)
 -->
<!-- Title: dependencies Pages: 1 -->
<svg width="504pt" height="211pt"
 viewBox="0.00 0.00 504.00 211.00" xmlns="http://www.w3.org/2000/svg" xmlns:xlink="http://www.w3.org/1999/xlink">
<g id="graph0" class="graph" transform="scale(1 1) rotate(0) translate(4 207)">
<title>dependencies</title>
<polygon fill="#ffffff" stroke="transparent" points="-4,4 -4,-207 500,-207 500,4 -4,4"/>
<text text-anchor="start" x="227.0091" y="-42.4" font-family="sans-serif" font-weight="bold" font-size="14.00" fill="#000000">Legend</text>
<polygon fill="#ffffb3" stroke="transparent" points="14,-10 14,-30 34,-30 34,-10 14,-10"/>
<text text-anchor="start" x="37.629" y="-15.4" font-family="sans-serif" font-size="14.00" fill="#000000"> &#160;Declarations</text>
<polygon fill="#8dd3c7" stroke="transparent" points="127,-10 127,-30 147,-30 147,-10 127,-10"/>
<text text-anchor="start" x="150.7251" y="-15.4" font-family="sans-serif" font-size="14.00" fill="#000000"> &#160;Module</text>
<polygon fill="#80b1d3" stroke="transparent" points="213,-10 213,-30 233,-30 233,-10 213,-10"/>
<text text-anchor="start" x="236.7812" y="-15.4" font-family="sans-serif" font-size="14.00" fill="#000000"> &#160;Bootstrap</text>
<polygon fill="#fdb462" stroke="transparent" points="310,-10 310,-30 330,-30 330,-10 310,-10"/>
<text text-anchor="start" x="333.6732" y="-15.4" font-family="sans-serif" font-size="14.00" fill="#000000"> &#160;Providers</text>
<polygon fill="#fb8072" stroke="transparent" points="406,-10 406,-30 426,-30 426,-10 406,-10"/>
<text text-anchor="start" x="429.7258" y="-15.4" font-family="sans-serif" font-size="14.00" fill="#000000"> &#160;Exports</text>
<g id="clust1" class="cluster">
<title>cluster_TweeterPageModule</title>
<polygon fill="none" stroke="#000000" stroke-dasharray="1,5" points="126,-70 126,-195 370,-195 370,-70 126,-70"/>
</g>
<g id="clust2" class="cluster">
<title>cluster_TweeterPageModule_declarations</title>
<polygon fill="none" stroke="#000000" points="256,-78 256,-130 362,-130 362,-78 256,-78"/>
</g>
<g id="clust4" class="cluster">
<title>cluster_TweeterPageModule_imports</title>
<polygon fill="none" stroke="#000000" points="134,-78 134,-130 248,-130 248,-78 134,-78"/>
</g>
<!-- TweeterPage -->
<g id="node1" class="node">
<title>TweeterPage</title>
<polygon fill="#ffffb3" stroke="#000000" points="353.566,-122 264.434,-122 264.434,-86 353.566,-86 353.566,-122"/>
<text text-anchor="middle" x="309" y="-99.8" font-family="Times,serif" font-size="14.00" fill="#000000">TweeterPage</text>
</g>
<!-- TweeterPageModule -->
<g id="node2" class="node">
<title>TweeterPageModule</title>
<polygon fill="#8dd3c7" stroke="#000000" points="314.1164,-187 311.1164,-191 290.1164,-191 287.1164,-187 181.8836,-187 181.8836,-151 314.1164,-151 314.1164,-187"/>
<text text-anchor="middle" x="248" y="-164.8" font-family="Times,serif" font-size="14.00" fill="#000000">TweeterPageModule</text>
</g>
<!-- TweeterPage&#45;&gt;TweeterPageModule -->
<g id="edge1" class="edge">
<title>TweeterPage&#45;&gt;TweeterPageModule</title>
<path fill="none" stroke="#000000" d="M289.3875,-122.1061C289.3875,-122.1061 289.3875,-140.991 289.3875,-140.991"/>
<polygon fill="#000000" stroke="#000000" points="285.8875,-140.9909 289.3875,-150.991 292.8875,-140.991 285.8875,-140.9909"/>
</g>
<!-- SharedModule -->
<g id="node3" class="node">
<title>SharedModule</title>
<polygon fill="#8dd3c7" stroke="#000000" points="240.4231,-122 237.4231,-126 216.4231,-126 213.4231,-122 141.5769,-122 141.5769,-86 240.4231,-86 240.4231,-122"/>
<text text-anchor="middle" x="191" y="-99.8" font-family="Times,serif" font-size="14.00" fill="#000000">SharedModule</text>
</g>
<!-- SharedModule&#45;&gt;TweeterPageModule -->
<g id="edge2" class="edge">
<title>SharedModule&#45;&gt;TweeterPageModule</title>
<path fill="none" stroke="#000000" d="M210.9516,-122.1061C210.9516,-122.1061 210.9516,-140.991 210.9516,-140.991"/>
<polygon fill="#000000" stroke="#000000" points="207.4517,-140.9909 210.9516,-150.991 214.4517,-140.991 207.4517,-140.9909"/>
</g>
</g>
</svg>
