<?xml version="1.0" encoding="UTF-8" standalone="no"?>
<!DOCTYPE svg PUBLIC "-//W3C//DTD SVG 1.1//EN"
 "http://www.w3.org/Graphics/SVG/1.1/DTD/svg11.dtd">
<!-- Generated by graphviz version 2.40.1 (20161225.0304)
 -->
<!-- Title: dependencies Pages: 1 -->
<svg width="2077pt" height="284pt"
 viewBox="0.00 0.00 2077.00 284.00" xmlns="http://www.w3.org/2000/svg" xmlns:xlink="http://www.w3.org/1999/xlink">
<g id="graph0" class="graph" transform="scale(1 1) rotate(0) translate(4 280)">
<title>dependencies</title>
<polygon fill="#ffffff" stroke="transparent" points="-4,4 -4,-280 2073,-280 2073,4 -4,4"/>
<text text-anchor="start" x="1013.5091" y="-42.4" font-family="sans-serif" font-weight="bold" font-size="14.00" fill="#000000">Legend</text>
<polygon fill="#ffffb3" stroke="transparent" points="800.5,-10 800.5,-30 820.5,-30 820.5,-10 800.5,-10"/>
<text text-anchor="start" x="824.129" y="-15.4" font-family="sans-serif" font-size="14.00" fill="#000000"> &#160;Declarations</text>
<polygon fill="#8dd3c7" stroke="transparent" points="913.5,-10 913.5,-30 933.5,-30 933.5,-10 913.5,-10"/>
<text text-anchor="start" x="937.2251" y="-15.4" font-family="sans-serif" font-size="14.00" fill="#000000"> &#160;Module</text>
<polygon fill="#80b1d3" stroke="transparent" points="999.5,-10 999.5,-30 1019.5,-30 1019.5,-10 999.5,-10"/>
<text text-anchor="start" x="1023.2812" y="-15.4" font-family="sans-serif" font-size="14.00" fill="#000000"> &#160;Bootstrap</text>
<polygon fill="#fdb462" stroke="transparent" points="1096.5,-10 1096.5,-30 1116.5,-30 1116.5,-10 1096.5,-10"/>
<text text-anchor="start" x="1120.1732" y="-15.4" font-family="sans-serif" font-size="14.00" fill="#000000"> &#160;Providers</text>
<polygon fill="#fb8072" stroke="transparent" points="1192.5,-10 1192.5,-30 1212.5,-30 1212.5,-10 1192.5,-10"/>
<text text-anchor="start" x="1216.2258" y="-15.4" font-family="sans-serif" font-size="14.00" fill="#000000"> &#160;Exports</text>
<g id="clust1" class="cluster">
<title>cluster_SharedModule</title>
<polygon fill="none" stroke="#000000" stroke-dasharray="1,5" points="8,-70 8,-268 2061,-268 2061,-70 8,-70"/>
</g>
<g id="clust2" class="cluster">
<title>cluster_SharedModule_declarations</title>
<polygon fill="none" stroke="#000000" points="224,-78 224,-130 2034,-130 2034,-78 224,-78"/>
</g>
<g id="clust16" class="cluster">
<title>cluster_SharedModule_imports</title>
<polygon fill="none" stroke="#000000" points="44,-78 44,-130 216,-130 216,-78 44,-78"/>
</g>
<g id="clust17" class="cluster">
<title>cluster_SharedModule_exports</title>
<polygon fill="none" stroke="#000000" points="16,-208 16,-260 2053,-260 2053,-208 16,-208"/>
</g>
<!-- CfbComponent -->
<g id="node1" class="node">
<title>CfbComponent</title>
<polygon fill="#ffffb3" stroke="#000000" points="2026.3301,-122 1923.6699,-122 1923.6699,-86 2026.3301,-86 2026.3301,-122"/>
<text text-anchor="middle" x="1975" y="-99.8" font-family="Times,serif" font-size="14.00" fill="#000000">CfbComponent</text>
</g>
<!-- SharedModule -->
<g id="node14" class="node">
<title>SharedModule</title>
<polygon fill="#8dd3c7" stroke="#000000" points="1138.4231,-187 1135.4231,-191 1114.4231,-191 1111.4231,-187 1039.5769,-187 1039.5769,-151 1138.4231,-151 1138.4231,-187"/>
<text text-anchor="middle" x="1089" y="-164.8" font-family="Times,serif" font-size="14.00" fill="#000000">SharedModule</text>
</g>
<!-- CfbComponent&#45;&gt;SharedModule -->
<g id="edge1" class="edge">
<title>CfbComponent&#45;&gt;SharedModule</title>
<path fill="none" stroke="#000000" d="M1931.4602,-122.1686C1931.4602,-141.0898 1931.4602,-168 1931.4602,-168 1931.4602,-168 1148.2446,-168 1148.2446,-168"/>
<polygon fill="#000000" stroke="#000000" points="1148.2447,-164.5001 1138.2446,-168 1148.2446,-171.5001 1148.2447,-164.5001"/>
</g>
<!-- FooterComponent -->
<g id="node2" class="node">
<title>FooterComponent</title>
<polygon fill="#ffffb3" stroke="#000000" points="1905.8809,-122 1788.1191,-122 1788.1191,-86 1905.8809,-86 1905.8809,-122"/>
<text text-anchor="middle" x="1847" y="-99.8" font-family="Times,serif" font-size="14.00" fill="#000000">FooterComponent</text>
</g>
<!-- FooterComponent&#45;&gt;SharedModule -->
<g id="edge2" class="edge">
<title>FooterComponent&#45;&gt;SharedModule</title>
<path fill="none" stroke="#000000" d="M1793.6846,-122.2667C1793.6846,-140.5552 1793.6846,-166 1793.6846,-166 1793.6846,-166 1148.272,-166 1148.272,-166"/>
<polygon fill="#000000" stroke="#000000" points="1148.272,-162.5001 1138.272,-166 1148.2719,-169.5001 1148.272,-162.5001"/>
</g>
<!-- HeaderComponent -->
<g id="node3" class="node">
<title>HeaderComponent</title>
<polygon fill="#ffffb3" stroke="#000000" points="1769.7437,-122 1648.2563,-122 1648.2563,-86 1769.7437,-86 1769.7437,-122"/>
<text text-anchor="middle" x="1709" y="-99.8" font-family="Times,serif" font-size="14.00" fill="#000000">HeaderComponent</text>
</g>
<!-- HeaderComponent&#45;&gt;SharedModule -->
<g id="edge3" class="edge">
<title>HeaderComponent&#45;&gt;SharedModule</title>
<path fill="none" stroke="#000000" d="M1652.2533,-122.0225C1652.2533,-139.3734 1652.2533,-163 1652.2533,-163 1652.2533,-163 1148.4913,-163 1148.4913,-163"/>
<polygon fill="#000000" stroke="#000000" points="1148.4914,-159.5001 1138.4913,-163 1148.4913,-166.5001 1148.4914,-159.5001"/>
</g>
<!-- NbaComponent -->
<g id="node4" class="node">
<title>NbaComponent</title>
<polygon fill="#ffffb3" stroke="#000000" points="1630.1542,-122 1525.8458,-122 1525.8458,-86 1630.1542,-86 1630.1542,-122"/>
<text text-anchor="middle" x="1578" y="-99.8" font-family="Times,serif" font-size="14.00" fill="#000000">NbaComponent</text>
</g>
<!-- NbaComponent&#45;&gt;SharedModule -->
<g id="edge4" class="edge">
<title>NbaComponent&#45;&gt;SharedModule</title>
<path fill="none" stroke="#000000" d="M1596.8589,-122.0352C1596.8589,-138.7344 1596.8589,-161 1596.8589,-161 1596.8589,-161 1148.6203,-161 1148.6203,-161"/>
<polygon fill="#000000" stroke="#000000" points="1148.6204,-157.5001 1138.6203,-161 1148.6203,-164.5001 1148.6204,-157.5001"/>
</g>
<!-- NflComponent -->
<g id="node5" class="node">
<title>NflComponent</title>
<polygon fill="#ffffb3" stroke="#000000" points="1507.9902,-122 1408.0098,-122 1408.0098,-86 1507.9902,-86 1507.9902,-122"/>
<text text-anchor="middle" x="1458" y="-99.8" font-family="Times,serif" font-size="14.00" fill="#000000">NflComponent</text>
</g>
<!-- NflComponent&#45;&gt;SharedModule -->
<g id="edge5" class="edge">
<title>NflComponent&#45;&gt;SharedModule</title>
<path fill="none" stroke="#000000" d="M1474.7484,-122.0091C1474.7484,-138.0494 1474.7484,-159 1474.7484,-159 1474.7484,-159 1148.2471,-159 1148.2471,-159"/>
<polygon fill="#000000" stroke="#000000" points="1148.2471,-155.5001 1138.2471,-159 1148.2471,-162.5001 1148.2471,-155.5001"/>
</g>
<!-- NowComponent -->
<g id="node6" class="node">
<title>NowComponent</title>
<polygon fill="#ffffb3" stroke="#000000" points="1390.0465,-122 1281.9535,-122 1281.9535,-86 1390.0465,-86 1390.0465,-122"/>
<text text-anchor="middle" x="1336" y="-99.8" font-family="Times,serif" font-size="14.00" fill="#000000">NowComponent</text>
</g>
<!-- NowComponent&#45;&gt;SharedModule -->
<g id="edge6" class="edge">
<title>NowComponent&#45;&gt;SharedModule</title>
<path fill="none" stroke="#000000" d="M1317.8257,-122.1871C1317.8257,-137.1824 1317.8257,-156 1317.8257,-156 1317.8257,-156 1148.3701,-156 1148.3701,-156"/>
<polygon fill="#000000" stroke="#000000" points="1148.3701,-152.5001 1138.3701,-156 1148.37,-159.5001 1148.3701,-152.5001"/>
</g>
<!-- PgaComponent -->
<g id="node7" class="node">
<title>PgaComponent</title>
<polygon fill="#ffffb3" stroke="#000000" points="1264.3301,-122 1161.6699,-122 1161.6699,-86 1264.3301,-86 1264.3301,-122"/>
<text text-anchor="middle" x="1213" y="-99.8" font-family="Times,serif" font-size="14.00" fill="#000000">PgaComponent</text>
</g>
<!-- PgaComponent&#45;&gt;SharedModule -->
<g id="edge7" class="edge">
<title>PgaComponent&#45;&gt;SharedModule</title>
<path fill="none" stroke="#000000" d="M1210.875,-122.0511C1210.875,-136.373 1210.875,-154 1210.875,-154 1210.875,-154 1148.2199,-154 1148.2199,-154"/>
<polygon fill="#000000" stroke="#000000" points="1148.22,-150.5001 1138.2199,-154 1148.2199,-157.5001 1148.22,-150.5001"/>
</g>
<!-- PopoverComponent -->
<g id="node8" class="node">
<title>PopoverComponent</title>
<polygon fill="#ffffb3" stroke="#000000" points="1143.9902,-122 1016.0098,-122 1016.0098,-86 1143.9902,-86 1143.9902,-122"/>
<text text-anchor="middle" x="1080" y="-99.8" font-family="Times,serif" font-size="14.00" fill="#000000">PopoverComponent</text>
</g>
<!-- PopoverComponent&#45;&gt;SharedModule -->
<g id="edge8" class="edge">
<title>PopoverComponent&#45;&gt;SharedModule</title>
<path fill="none" stroke="#000000" d="M1089,-122.1061C1089,-122.1061 1089,-140.991 1089,-140.991"/>
<polygon fill="#000000" stroke="#000000" points="1085.5001,-140.9909 1089,-150.991 1092.5001,-140.991 1085.5001,-140.9909"/>
</g>
<!-- PrivacyDialogComponent -->
<g id="node9" class="node">
<title>PrivacyDialogComponent</title>
<polygon fill="#ffffb3" stroke="#000000" points="998.1979,-122 835.8021,-122 835.8021,-86 998.1979,-86 998.1979,-122"/>
<text text-anchor="middle" x="917" y="-99.8" font-family="Times,serif" font-size="14.00" fill="#000000">PrivacyDialogComponent</text>
</g>
<!-- PrivacyDialogComponent&#45;&gt;SharedModule -->
<g id="edge9" class="edge">
<title>PrivacyDialogComponent&#45;&gt;SharedModule</title>
<path fill="none" stroke="#000000" d="M991.9739,-122.0511C991.9739,-136.373 991.9739,-154 991.9739,-154 991.9739,-154 1029.6342,-154 1029.6342,-154"/>
<polygon fill="#000000" stroke="#000000" points="1029.6343,-157.5001 1039.6342,-154 1029.6342,-150.5001 1029.6343,-157.5001"/>
</g>
<!-- RegModalComponent -->
<g id="node10" class="node">
<title>RegModalComponent</title>
<polygon fill="#ffffb3" stroke="#000000" points="818.4341,-122 677.5659,-122 677.5659,-86 818.4341,-86 818.4341,-122"/>
<text text-anchor="middle" x="748" y="-99.8" font-family="Times,serif" font-size="14.00" fill="#000000">RegModalComponent</text>
</g>
<!-- RegModalComponent&#45;&gt;SharedModule -->
<g id="edge10" class="edge">
<title>RegModalComponent&#45;&gt;SharedModule</title>
<path fill="none" stroke="#000000" d="M810.0917,-122.2396C810.0917,-137.5706 810.0917,-157 810.0917,-157 810.0917,-157 1029.7788,-157 1029.7788,-157"/>
<polygon fill="#000000" stroke="#000000" points="1029.7789,-160.5001 1039.7788,-157 1029.7788,-153.5001 1029.7789,-160.5001"/>
</g>
<!-- TennisComponent -->
<g id="node11" class="node">
<title>TennisComponent</title>
<polygon fill="#ffffb3" stroke="#000000" points="659.9356,-122 540.0644,-122 540.0644,-86 659.9356,-86 659.9356,-122"/>
<text text-anchor="middle" x="600" y="-99.8" font-family="Times,serif" font-size="14.00" fill="#000000">TennisComponent</text>
</g>
<!-- TennisComponent&#45;&gt;SharedModule -->
<g id="edge11" class="edge">
<title>TennisComponent&#45;&gt;SharedModule</title>
<path fill="none" stroke="#000000" d="M648.8791,-122.027C648.8791,-138.3976 648.8791,-160 648.8791,-160 648.8791,-160 1029.3681,-160 1029.3681,-160"/>
<polygon fill="#000000" stroke="#000000" points="1029.3681,-163.5001 1039.3681,-160 1029.368,-156.5001 1029.3681,-163.5001"/>
</g>
<!-- TermsDialogComponent -->
<g id="node12" class="node">
<title>TermsDialogComponent</title>
<polygon fill="#ffffb3" stroke="#000000" points="522.6979,-122 367.3021,-122 367.3021,-86 522.6979,-86 522.6979,-122"/>
<text text-anchor="middle" x="445" y="-99.8" font-family="Times,serif" font-size="14.00" fill="#000000">TermsDialogComponent</text>
</g>
<!-- TermsDialogComponent&#45;&gt;SharedModule -->
<g id="edge12" class="edge">
<title>TermsDialogComponent&#45;&gt;SharedModule</title>
<path fill="none" stroke="#000000" d="M501.4371,-122.0225C501.4371,-139.3734 501.4371,-163 501.4371,-163 501.4371,-163 1029.6635,-163 1029.6635,-163"/>
<polygon fill="#000000" stroke="#000000" points="1029.6635,-166.5001 1039.6635,-163 1029.6634,-159.5001 1029.6635,-166.5001"/>
</g>
<!-- TicketComponent -->
<g id="node13" class="node">
<title>TicketComponent</title>
<polygon fill="#ffffb3" stroke="#000000" points="349.5954,-122 232.4046,-122 232.4046,-86 349.5954,-86 349.5954,-122"/>
<text text-anchor="middle" x="291" y="-99.8" font-family="Times,serif" font-size="14.00" fill="#000000">TicketComponent</text>
</g>
<!-- TicketComponent&#45;&gt;SharedModule -->
<g id="edge13" class="edge">
<title>TicketComponent&#45;&gt;SharedModule</title>
<path fill="none" stroke="#000000" d="M344.5402,-122.302C344.5402,-140.2699 344.5402,-165 344.5402,-165 344.5402,-165 1029.5774,-165 1029.5774,-165"/>
<polygon fill="#000000" stroke="#000000" points="1029.5774,-168.5001 1039.5774,-165 1029.5773,-161.5001 1029.5774,-168.5001"/>
</g>
<!-- CfbComponent  -->
<g id="node16" class="node">
<title>CfbComponent </title>
<polygon fill="#fb8072" stroke="#000000" points="2044.8297,-252 1939.1703,-252 1939.1703,-216 2044.8297,-216 2044.8297,-252"/>
<text text-anchor="middle" x="1992" y="-229.8" font-family="Times,serif" font-size="14.00" fill="#000000">CfbComponent </text>
</g>
<!-- SharedModule&#45;&gt;CfbComponent  -->
<g id="edge15" class="edge">
<title>SharedModule&#45;&gt;CfbComponent </title>
<path fill="none" stroke="#000000" stroke-dasharray="5,2" d="M1138.3181,-171C1325.6567,-171 1982.625,-171 1982.625,-171 1982.625,-171 1982.625,-205.7778 1982.625,-205.7778"/>
<polygon fill="#000000" stroke="#000000" points="1979.1251,-205.7778 1982.625,-215.7778 1986.1251,-205.7778 1979.1251,-205.7778"/>
</g>
<!-- FooterComponent  -->
<g id="node17" class="node">
<title>FooterComponent </title>
<polygon fill="#fb8072" stroke="#000000" points="1920.8814,-252 1799.1186,-252 1799.1186,-216 1920.8814,-216 1920.8814,-252"/>
<text text-anchor="middle" x="1860" y="-229.8" font-family="Times,serif" font-size="14.00" fill="#000000">FooterComponent </text>
</g>
<!-- SharedModule&#45;&gt;FooterComponent  -->
<g id="edge16" class="edge">
<title>SharedModule&#45;&gt;FooterComponent </title>
<path fill="none" stroke="#000000" stroke-dasharray="5,2" d="M1138.2221,-173C1307.1004,-173 1852.625,-173 1852.625,-173 1852.625,-173 1852.625,-205.698 1852.625,-205.698"/>
<polygon fill="#000000" stroke="#000000" points="1849.1251,-205.698 1852.625,-215.698 1856.1251,-205.698 1849.1251,-205.698"/>
</g>
<!-- HeaderComponent  -->
<g id="node18" class="node">
<title>HeaderComponent </title>
<polygon fill="#fb8072" stroke="#000000" points="1781.7436,-252 1656.2564,-252 1656.2564,-216 1781.7436,-216 1781.7436,-252"/>
<text text-anchor="middle" x="1719" y="-229.8" font-family="Times,serif" font-size="14.00" fill="#000000">HeaderComponent </text>
</g>
<!-- SharedModule&#45;&gt;HeaderComponent  -->
<g id="edge17" class="edge">
<title>SharedModule&#45;&gt;HeaderComponent </title>
<path fill="none" stroke="#000000" stroke-dasharray="5,2" d="M1138.2346,-175C1285.6103,-175 1713.125,-175 1713.125,-175 1713.125,-175 1713.125,-205.9775 1713.125,-205.9775"/>
<polygon fill="#000000" stroke="#000000" points="1709.6251,-205.9774 1713.125,-215.9775 1716.6251,-205.9775 1709.6251,-205.9774"/>
</g>
<!-- NbaComponent  -->
<g id="node19" class="node">
<title>NbaComponent </title>
<polygon fill="#fb8072" stroke="#000000" points="1638.1537,-252 1529.8463,-252 1529.8463,-216 1638.1537,-216 1638.1537,-252"/>
<text text-anchor="middle" x="1584" y="-229.8" font-family="Times,serif" font-size="14.00" fill="#000000">NbaComponent </text>
</g>
<!-- SharedModule&#45;&gt;NbaComponent  -->
<g id="edge18" class="edge">
<title>SharedModule&#45;&gt;NbaComponent </title>
<path fill="none" stroke="#000000" stroke-dasharray="5,2" d="M1138.4257,-178C1259.929,-178 1563.3911,-178 1563.3911,-178 1563.3911,-178 1563.3911,-205.973 1563.3911,-205.973"/>
<polygon fill="#000000" stroke="#000000" points="1559.8912,-205.973 1563.3911,-215.973 1566.8912,-205.973 1559.8912,-205.973"/>
</g>
<!-- NflComponent  -->
<g id="node20" class="node">
<title>NflComponent </title>
<polygon fill="#fb8072" stroke="#000000" points="1511.9914,-252 1408.0086,-252 1408.0086,-216 1511.9914,-216 1511.9914,-252"/>
<text text-anchor="middle" x="1460" y="-229.8" font-family="Times,serif" font-size="14.00" fill="#000000">NflComponent </text>
</g>
<!-- SharedModule&#45;&gt;NflComponent  -->
<g id="edge19" class="edge">
<title>SharedModule&#45;&gt;NflComponent </title>
<path fill="none" stroke="#000000" stroke-dasharray="5,2" d="M1138.385,-180C1235.3984,-180 1441.5016,-180 1441.5016,-180 1441.5016,-180 1441.5016,-205.7181 1441.5016,-205.7181"/>
<polygon fill="#000000" stroke="#000000" points="1438.0017,-205.718 1441.5016,-215.7181 1445.0017,-205.7181 1438.0017,-205.718"/>
</g>
<!-- NowComponent  -->
<g id="node21" class="node">
<title>NowComponent </title>
<polygon fill="#fb8072" stroke="#000000" points="1390.0456,-252 1277.9544,-252 1277.9544,-216 1390.0456,-216 1390.0456,-252"/>
<text text-anchor="middle" x="1334" y="-229.8" font-family="Times,serif" font-size="14.00" fill="#000000">NowComponent </text>
</g>
<!-- SharedModule&#45;&gt;NowComponent  -->
<g id="edge20" class="edge">
<title>SharedModule&#45;&gt;NowComponent </title>
<path fill="none" stroke="#000000" stroke-dasharray="5,2" d="M1138.5194,-183C1215.1981,-183 1353.9243,-183 1353.9243,-183 1353.9243,-183 1353.9243,-205.8757 1353.9243,-205.8757"/>
<polygon fill="#000000" stroke="#000000" points="1350.4244,-205.8757 1353.9243,-215.8757 1357.4244,-205.8757 1350.4244,-205.8757"/>
</g>
<!-- PgaComponent  -->
<g id="node22" class="node">
<title>PgaComponent </title>
<polygon fill="#fb8072" stroke="#000000" points="1259.8297,-252 1154.1703,-252 1154.1703,-216 1259.8297,-216 1259.8297,-252"/>
<text text-anchor="middle" x="1207" y="-229.8" font-family="Times,serif" font-size="14.00" fill="#000000">PgaComponent </text>
</g>
<!-- SharedModule&#45;&gt;PgaComponent  -->
<g id="edge21" class="edge">
<title>SharedModule&#45;&gt;PgaComponent </title>
<path fill="none" stroke="#000000" stroke-dasharray="5,2" d="M1138.3834,-185C1149.437,-185 1157.9602,-185 1157.9602,-185 1157.9602,-185 1157.9602,-205.7542 1157.9602,-205.7542"/>
<polygon fill="#000000" stroke="#000000" points="1154.4603,-205.7542 1157.9602,-215.7542 1161.4603,-205.7542 1154.4603,-205.7542"/>
</g>
<!-- PopoverComponent  -->
<g id="node23" class="node">
<title>PopoverComponent </title>
<polygon fill="#fb8072" stroke="#000000" points="1135.9911,-252 1004.0089,-252 1004.0089,-216 1135.9911,-216 1135.9911,-252"/>
<text text-anchor="middle" x="1070" y="-229.8" font-family="Times,serif" font-size="14.00" fill="#000000">PopoverComponent </text>
</g>
<!-- SharedModule&#45;&gt;PopoverComponent  -->
<g id="edge22" class="edge">
<title>SharedModule&#45;&gt;PopoverComponent </title>
<path fill="none" stroke="#000000" stroke-dasharray="5,2" d="M1087.767,-187.1061C1087.767,-187.1061 1087.767,-205.991 1087.767,-205.991"/>
<polygon fill="#000000" stroke="#000000" points="1084.2671,-205.9909 1087.767,-215.991 1091.2671,-205.991 1084.2671,-205.9909"/>
</g>
<!-- PrivacyDialogComponent  -->
<g id="node24" class="node">
<title>PrivacyDialogComponent </title>
<polygon fill="#fb8072" stroke="#000000" points="985.6981,-252 820.3019,-252 820.3019,-216 985.6981,-216 985.6981,-252"/>
<text text-anchor="middle" x="903" y="-229.8" font-family="Times,serif" font-size="14.00" fill="#000000">PrivacyDialogComponent </text>
</g>
<!-- SharedModule&#45;&gt;PrivacyDialogComponent  -->
<g id="edge23" class="edge">
<title>SharedModule&#45;&gt;PrivacyDialogComponent </title>
<path fill="none" stroke="#000000" stroke-dasharray="5,2" d="M1039.3823,-185C986.6765,-185 910.875,-185 910.875,-185 910.875,-185 910.875,-205.7542 910.875,-205.7542"/>
<polygon fill="#000000" stroke="#000000" points="907.3751,-205.7542 910.875,-215.7542 914.3751,-205.7542 907.3751,-205.7542"/>
</g>
<!-- RegModalComponent  -->
<g id="node25" class="node">
<title>RegModalComponent </title>
<polygon fill="#fb8072" stroke="#000000" points="801.9334,-252 658.0666,-252 658.0666,-216 801.9334,-216 801.9334,-252"/>
<text text-anchor="middle" x="730" y="-229.8" font-family="Times,serif" font-size="14.00" fill="#000000">RegModalComponent </text>
</g>
<!-- SharedModule&#45;&gt;RegModalComponent  -->
<g id="edge24" class="edge">
<title>SharedModule&#45;&gt;RegModalComponent </title>
<path fill="none" stroke="#000000" stroke-dasharray="5,2" d="M1039.7194,-182C943.4829,-182 739.875,-182 739.875,-182 739.875,-182 739.875,-205.8129 739.875,-205.8129"/>
<polygon fill="#000000" stroke="#000000" points="736.3751,-205.8129 739.875,-215.8129 743.3751,-205.813 736.3751,-205.8129"/>
</g>
<!-- SharedDirectivesModule  -->
<g id="node26" class="node">
<title>SharedDirectivesModule </title>
<polygon fill="#fb8072" stroke="#000000" points="639.9502,-252 480.0498,-252 480.0498,-216 639.9502,-216 639.9502,-252"/>
<text text-anchor="middle" x="560" y="-229.8" font-family="Times,serif" font-size="14.00" fill="#000000">SharedDirectivesModule </text>
</g>
<!-- SharedModule&#45;&gt;SharedDirectivesModule  -->
<g id="edge25" class="edge">
<title>SharedModule&#45;&gt;SharedDirectivesModule </title>
<path fill="none" stroke="#000000" stroke-dasharray="5,2" d="M1039.7887,-179C913.8995,-179 590.0037,-179 590.0037,-179 590.0037,-179 590.0037,-205.9909 590.0037,-205.9909"/>
<polygon fill="#000000" stroke="#000000" points="586.5038,-205.9909 590.0037,-215.9909 593.5038,-205.991 586.5038,-205.9909"/>
</g>
<!-- TennisComponent  -->
<g id="node27" class="node">
<title>TennisComponent </title>
<polygon fill="#fb8072" stroke="#000000" points="462.4348,-252 339.5652,-252 339.5652,-216 462.4348,-216 462.4348,-252"/>
<text text-anchor="middle" x="401" y="-229.8" font-family="Times,serif" font-size="14.00" fill="#000000">TennisComponent </text>
</g>
<!-- SharedModule&#45;&gt;TennisComponent  -->
<g id="edge26" class="edge">
<title>SharedModule&#45;&gt;TennisComponent </title>
<path fill="none" stroke="#000000" stroke-dasharray="5,2" d="M1039.7074,-176C884.3163,-176 414.9343,-176 414.9343,-176 414.9343,-176 414.9343,-205.9664 414.9343,-205.9664"/>
<polygon fill="#000000" stroke="#000000" points="411.4343,-205.9663 414.9343,-215.9664 418.4343,-205.9664 411.4343,-205.9663"/>
</g>
<!-- TermsDialogComponent  -->
<g id="node28" class="node">
<title>TermsDialogComponent </title>
<polygon fill="#fb8072" stroke="#000000" points="321.1981,-252 162.8019,-252 162.8019,-216 321.1981,-216 321.1981,-252"/>
<text text-anchor="middle" x="242" y="-229.8" font-family="Times,serif" font-size="14.00" fill="#000000">TermsDialogComponent </text>
</g>
<!-- SharedModule&#45;&gt;TermsDialogComponent  -->
<g id="edge27" class="edge">
<title>SharedModule&#45;&gt;TermsDialogComponent </title>
<path fill="none" stroke="#000000" stroke-dasharray="5,2" d="M1039.7256,-174C863.7772,-174 276.9006,-174 276.9006,-174 276.9006,-174 276.9006,-205.998 276.9006,-205.998"/>
<polygon fill="#000000" stroke="#000000" points="273.4005,-205.9981 276.9006,-215.998 280.4005,-205.998 273.4005,-205.9981"/>
</g>
<!-- TicketComponent  -->
<g id="node29" class="node">
<title>TicketComponent </title>
<polygon fill="#fb8072" stroke="#000000" points="144.0961,-252 23.9039,-252 23.9039,-216 144.0961,-216 144.0961,-252"/>
<text text-anchor="middle" x="84" y="-229.8" font-family="Times,serif" font-size="14.00" fill="#000000">TicketComponent </text>
</g>
<!-- SharedModule&#45;&gt;TicketComponent  -->
<g id="edge28" class="edge">
<title>SharedModule&#45;&gt;TicketComponent </title>
<path fill="none" stroke="#000000" stroke-dasharray="5,2" d="M1039.5252,-171C839.0965,-171 98.1614,-171 98.1614,-171 98.1614,-171 98.1614,-205.7778 98.1614,-205.7778"/>
<polygon fill="#000000" stroke="#000000" points="94.6614,-205.7778 98.1615,-215.7778 101.6614,-205.7778 94.6614,-205.7778"/>
</g>
<!-- SharedDirectivesModule -->
<g id="node15" class="node">
<title>SharedDirectivesModule</title>
<polygon fill="#8dd3c7" stroke="#000000" points="207.9496,-122 204.9496,-126 183.9496,-126 180.9496,-122 52.0504,-122 52.0504,-86 207.9496,-86 207.9496,-122"/>
<text text-anchor="middle" x="130" y="-99.8" font-family="Times,serif" font-size="14.00" fill="#000000">SharedDirectivesModule</text>
</g>
<!-- SharedDirectivesModule&#45;&gt;SharedModule -->
<g id="edge14" class="edge">
<title>SharedDirectivesModule&#45;&gt;SharedModule</title>
<path fill="none" stroke="#000000" d="M185.313,-122.1686C185.313,-141.0898 185.313,-168 185.313,-168 185.313,-168 1029.7721,-168 1029.7721,-168"/>
<polygon fill="#000000" stroke="#000000" points="1029.7721,-171.5001 1039.7721,-168 1029.7721,-164.5001 1029.7721,-171.5001"/>
</g>
</g>
</svg>
