<?xml version="1.0" encoding="UTF-8" standalone="no"?>
<!DOCTYPE svg PUBLIC "-//W3C//DTD SVG 1.1//EN"
 "http://www.w3.org/Graphics/SVG/1.1/DTD/svg11.dtd">
<!-- Generated by graphviz version 2.40.1 (20161225.0304)
 -->
<!-- Title: dependencies Pages: 1 -->
<svg width="824pt" height="284pt"
 viewBox="0.00 0.00 824.00 284.00" xmlns="http://www.w3.org/2000/svg" xmlns:xlink="http://www.w3.org/1999/xlink">
<g id="graph0" class="graph" transform="scale(1 1) rotate(0) translate(4 280)">
<title>dependencies</title>
<polygon fill="#ffffff" stroke="transparent" points="-4,4 -4,-280 820,-280 820,4 -4,4"/>
<text text-anchor="start" x="387.0091" y="-42.4" font-family="sans-serif" font-weight="bold" font-size="14.00" fill="#000000">Legend</text>
<polygon fill="#ffffb3" stroke="transparent" points="174,-10 174,-30 194,-30 194,-10 174,-10"/>
<text text-anchor="start" x="197.629" y="-15.4" font-family="sans-serif" font-size="14.00" fill="#000000"> &#160;Declarations</text>
<polygon fill="#8dd3c7" stroke="transparent" points="287,-10 287,-30 307,-30 307,-10 287,-10"/>
<text text-anchor="start" x="310.7251" y="-15.4" font-family="sans-serif" font-size="14.00" fill="#000000"> &#160;Module</text>
<polygon fill="#80b1d3" stroke="transparent" points="373,-10 373,-30 393,-30 393,-10 373,-10"/>
<text text-anchor="start" x="396.7812" y="-15.4" font-family="sans-serif" font-size="14.00" fill="#000000"> &#160;Bootstrap</text>
<polygon fill="#fdb462" stroke="transparent" points="470,-10 470,-30 490,-30 490,-10 470,-10"/>
<text text-anchor="start" x="493.6732" y="-15.4" font-family="sans-serif" font-size="14.00" fill="#000000"> &#160;Providers</text>
<polygon fill="#fb8072" stroke="transparent" points="566,-10 566,-30 586,-30 586,-10 566,-10"/>
<text text-anchor="start" x="589.7258" y="-15.4" font-family="sans-serif" font-size="14.00" fill="#000000"> &#160;Exports</text>
<g id="clust1" class="cluster">
<title>cluster_SharedModule</title>
<polygon fill="none" stroke="#000000" stroke-dasharray="1,5" points="8,-70 8,-268 808,-268 808,-70 8,-70"/>
</g>
<g id="clust2" class="cluster">
<title>cluster_SharedModule_declarations</title>
<polygon fill="none" stroke="#000000" points="26,-78 26,-130 792,-130 792,-78 26,-78"/>
</g>
<g id="clust9" class="cluster">
<title>cluster_SharedModule_exports</title>
<polygon fill="none" stroke="#000000" points="16,-208 16,-260 800,-260 800,-208 16,-208"/>
</g>
<!-- FooterComponent -->
<g id="node1" class="node">
<title>FooterComponent</title>
<polygon fill="#ffffb3" stroke="#000000" points="783.8809,-122 666.1191,-122 666.1191,-86 783.8809,-86 783.8809,-122"/>
<text text-anchor="middle" x="725" y="-99.8" font-family="Times,serif" font-size="14.00" fill="#000000">FooterComponent</text>
</g>
<!-- SharedModule -->
<g id="node6" class="node">
<title>SharedModule</title>
<polygon fill="#8dd3c7" stroke="#000000" points="478.4231,-187 475.4231,-191 454.4231,-191 451.4231,-187 379.5769,-187 379.5769,-151 478.4231,-151 478.4231,-187"/>
<text text-anchor="middle" x="429" y="-164.8" font-family="Times,serif" font-size="14.00" fill="#000000">SharedModule</text>
</g>
<!-- FooterComponent&#45;&gt;SharedModule -->
<g id="edge1" class="edge">
<title>FooterComponent&#45;&gt;SharedModule</title>
<path fill="none" stroke="#000000" d="M746.0635,-122.2667C746.0635,-140.5552 746.0635,-166 746.0635,-166 746.0635,-166 488.5412,-166 488.5412,-166"/>
<polygon fill="#000000" stroke="#000000" points="488.5412,-162.5001 478.5412,-166 488.5411,-169.5001 488.5412,-162.5001"/>
</g>
<!-- HeaderComponent -->
<g id="node2" class="node">
<title>HeaderComponent</title>
<polygon fill="#ffffb3" stroke="#000000" points="647.7437,-122 526.2563,-122 526.2563,-86 647.7437,-86 647.7437,-122"/>
<text text-anchor="middle" x="587" y="-99.8" font-family="Times,serif" font-size="14.00" fill="#000000">HeaderComponent</text>
</g>
<!-- HeaderComponent&#45;&gt;SharedModule -->
<g id="edge2" class="edge">
<title>HeaderComponent&#45;&gt;SharedModule</title>
<path fill="none" stroke="#000000" d="M607.7072,-122.0091C607.7072,-138.0494 607.7072,-159 607.7072,-159 607.7072,-159 488.3056,-159 488.3056,-159"/>
<polygon fill="#000000" stroke="#000000" points="488.3056,-155.5001 478.3056,-159 488.3056,-162.5001 488.3056,-155.5001"/>
</g>
<!-- MembershipsComponent -->
<g id="node3" class="node">
<title>MembershipsComponent</title>
<polygon fill="#ffffb3" stroke="#000000" points="507.5379,-122 350.4621,-122 350.4621,-86 507.5379,-86 507.5379,-122"/>
<text text-anchor="middle" x="429" y="-99.8" font-family="Times,serif" font-size="14.00" fill="#000000">MembershipsComponent</text>
</g>
<!-- MembershipsComponent&#45;&gt;SharedModule -->
<g id="edge3" class="edge">
<title>MembershipsComponent&#45;&gt;SharedModule</title>
<path fill="none" stroke="#000000" d="M429,-122.1061C429,-122.1061 429,-140.991 429,-140.991"/>
<polygon fill="#000000" stroke="#000000" points="425.5001,-140.9909 429,-150.991 432.5001,-140.991 425.5001,-140.9909"/>
</g>
<!-- SignInComponent -->
<g id="node4" class="node">
<title>SignInComponent</title>
<polygon fill="#ffffb3" stroke="#000000" points="332.1667,-122 213.8333,-122 213.8333,-86 332.1667,-86 332.1667,-122"/>
<text text-anchor="middle" x="273" y="-99.8" font-family="Times,serif" font-size="14.00" fill="#000000">SignInComponent</text>
</g>
<!-- SignInComponent&#45;&gt;SharedModule -->
<g id="edge4" class="edge">
<title>SignInComponent&#45;&gt;SharedModule</title>
<path fill="none" stroke="#000000" d="M291.2777,-122.0091C291.2777,-138.0494 291.2777,-159 291.2777,-159 291.2777,-159 369.6681,-159 369.6681,-159"/>
<polygon fill="#000000" stroke="#000000" points="369.6681,-162.5001 379.6681,-159 369.6681,-155.5001 369.6681,-162.5001"/>
</g>
<!-- SupportModalComponent -->
<g id="node5" class="node">
<title>SupportModalComponent</title>
<polygon fill="#ffffb3" stroke="#000000" points="196.2161,-122 33.7839,-122 33.7839,-86 196.2161,-86 196.2161,-122"/>
<text text-anchor="middle" x="115" y="-99.8" font-family="Times,serif" font-size="14.00" fill="#000000">SupportModalComponent</text>
</g>
<!-- SupportModalComponent&#45;&gt;SharedModule -->
<g id="edge5" class="edge">
<title>SupportModalComponent&#45;&gt;SharedModule</title>
<path fill="none" stroke="#000000" d="M137.8693,-122.2667C137.8693,-140.5552 137.8693,-166 137.8693,-166 137.8693,-166 369.6137,-166 369.6137,-166"/>
<polygon fill="#000000" stroke="#000000" points="369.6137,-169.5001 379.6137,-166 369.6136,-162.5001 369.6137,-169.5001"/>
</g>
<!-- FooterComponent  -->
<g id="node7" class="node">
<title>FooterComponent </title>
<polygon fill="#fb8072" stroke="#000000" points="791.8814,-252 670.1186,-252 670.1186,-216 791.8814,-216 791.8814,-252"/>
<text text-anchor="middle" x="731" y="-229.8" font-family="Times,serif" font-size="14.00" fill="#000000">FooterComponent </text>
</g>
<!-- SharedModule&#45;&gt;FooterComponent  -->
<g id="edge6" class="edge">
<title>SharedModule&#45;&gt;FooterComponent </title>
<path fill="none" stroke="#000000" stroke-dasharray="5,2" d="M478.2703,-173C558.4192,-173 708.1865,-173 708.1865,-173 708.1865,-173 708.1865,-205.698 708.1865,-205.698"/>
<polygon fill="#000000" stroke="#000000" points="704.6866,-205.698 708.1865,-215.698 711.6866,-205.698 704.6866,-205.698"/>
</g>
<!-- HeaderComponent  -->
<g id="node8" class="node">
<title>HeaderComponent </title>
<polygon fill="#fb8072" stroke="#000000" points="652.7436,-252 527.2564,-252 527.2564,-216 652.7436,-216 652.7436,-252"/>
<text text-anchor="middle" x="590" y="-229.8" font-family="Times,serif" font-size="14.00" fill="#000000">HeaderComponent </text>
</g>
<!-- SharedModule&#45;&gt;HeaderComponent  -->
<g id="edge7" class="edge">
<title>SharedModule&#45;&gt;HeaderComponent </title>
<path fill="none" stroke="#000000" stroke-dasharray="5,2" d="M478.2351,-180C518.0563,-180 567.5428,-180 567.5428,-180 567.5428,-180 567.5428,-205.7181 567.5428,-205.7181"/>
<polygon fill="#000000" stroke="#000000" points="564.0429,-205.718 567.5428,-215.7181 571.0429,-205.7181 564.0429,-205.718"/>
</g>
<!-- MembershipsComponent  -->
<g id="node9" class="node">
<title>MembershipsComponent </title>
<polygon fill="#fb8072" stroke="#000000" points="509.5372,-252 348.4628,-252 348.4628,-216 509.5372,-216 509.5372,-252"/>
<text text-anchor="middle" x="429" y="-229.8" font-family="Times,serif" font-size="14.00" fill="#000000">MembershipsComponent </text>
</g>
<!-- SharedModule&#45;&gt;MembershipsComponent  -->
<g id="edge8" class="edge">
<title>SharedModule&#45;&gt;MembershipsComponent </title>
<path fill="none" stroke="#000000" stroke-dasharray="5,2" d="M429,-187.1061C429,-187.1061 429,-205.991 429,-205.991"/>
<polygon fill="#000000" stroke="#000000" points="425.5001,-205.9909 429,-215.991 432.5001,-205.991 425.5001,-205.9909"/>
</g>
<!-- SignInComponent  -->
<g id="node10" class="node">
<title>SignInComponent </title>
<polygon fill="#fb8072" stroke="#000000" points="330.1663,-252 207.8337,-252 207.8337,-216 330.1663,-216 330.1663,-252"/>
<text text-anchor="middle" x="269" y="-229.8" font-family="Times,serif" font-size="14.00" fill="#000000">SignInComponent </text>
</g>
<!-- SharedModule&#45;&gt;SignInComponent  -->
<g id="edge9" class="edge">
<title>SharedModule&#45;&gt;SignInComponent </title>
<path fill="none" stroke="#000000" stroke-dasharray="5,2" d="M379.3574,-180C327.1449,-180 252.4723,-180 252.4723,-180 252.4723,-180 252.4723,-205.7181 252.4723,-205.7181"/>
<polygon fill="#000000" stroke="#000000" points="248.9724,-205.718 252.4723,-215.7181 255.9724,-205.7181 248.9724,-205.718"/>
</g>
<!-- SupportModalComponent  -->
<g id="node11" class="node">
<title>SupportModalComponent </title>
<polygon fill="#fb8072" stroke="#000000" points="189.7162,-252 24.2838,-252 24.2838,-216 189.7162,-216 189.7162,-252"/>
<text text-anchor="middle" x="107" y="-229.8" font-family="Times,serif" font-size="14.00" fill="#000000">SupportModalComponent </text>
</g>
<!-- SharedModule&#45;&gt;SupportModalComponent  -->
<g id="edge10" class="edge">
<title>SharedModule&#45;&gt;SupportModalComponent </title>
<path fill="none" stroke="#000000" stroke-dasharray="5,2" d="M379.4739,-173C284.4537,-173 85.8807,-173 85.8807,-173 85.8807,-173 85.8807,-205.698 85.8807,-205.698"/>
<polygon fill="#000000" stroke="#000000" points="82.3808,-205.698 85.8807,-215.698 89.3808,-205.698 82.3808,-205.698"/>
</g>
</g>
</svg>
