<?xml version="1.0" encoding="UTF-8" standalone="no"?>
<!DOCTYPE svg PUBLIC "-//W3C//DTD SVG 1.1//EN"
 "http://www.w3.org/Graphics/SVG/1.1/DTD/svg11.dtd">
<!-- Generated by graphviz version 2.40.1 (20161225.0304)
 -->
<!-- Title: dependencies Pages: 1 -->
<svg width="1448pt" height="284pt"
 viewBox="0.00 0.00 1448.00 284.00" xmlns="http://www.w3.org/2000/svg" xmlns:xlink="http://www.w3.org/1999/xlink">
<g id="graph0" class="graph" transform="scale(1 1) rotate(0) translate(4 280)">
<title>dependencies</title>
<polygon fill="#ffffff" stroke="transparent" points="-4,4 -4,-280 1444,-280 1444,4 -4,4"/>
<text text-anchor="start" x="699.0091" y="-42.4" font-family="sans-serif" font-weight="bold" font-size="14.00" fill="#000000">Legend</text>
<polygon fill="#ffffb3" stroke="transparent" points="486,-10 486,-30 506,-30 506,-10 486,-10"/>
<text text-anchor="start" x="509.629" y="-15.4" font-family="sans-serif" font-size="14.00" fill="#000000"> &#160;Declarations</text>
<polygon fill="#8dd3c7" stroke="transparent" points="599,-10 599,-30 619,-30 619,-10 599,-10"/>
<text text-anchor="start" x="622.7251" y="-15.4" font-family="sans-serif" font-size="14.00" fill="#000000"> &#160;Module</text>
<polygon fill="#80b1d3" stroke="transparent" points="685,-10 685,-30 705,-30 705,-10 685,-10"/>
<text text-anchor="start" x="708.7812" y="-15.4" font-family="sans-serif" font-size="14.00" fill="#000000"> &#160;Bootstrap</text>
<polygon fill="#fdb462" stroke="transparent" points="782,-10 782,-30 802,-30 802,-10 782,-10"/>
<text text-anchor="start" x="805.6732" y="-15.4" font-family="sans-serif" font-size="14.00" fill="#000000"> &#160;Providers</text>
<polygon fill="#fb8072" stroke="transparent" points="878,-10 878,-30 898,-30 898,-10 878,-10"/>
<text text-anchor="start" x="901.7258" y="-15.4" font-family="sans-serif" font-size="14.00" fill="#000000"> &#160;Exports</text>
<g id="clust1" class="cluster">
<title>cluster_SharedModule</title>
<polygon fill="none" stroke="#000000" stroke-dasharray="1,5" points="8,-70 8,-268 1432,-268 1432,-70 8,-70"/>
</g>
<g id="clust2" class="cluster">
<title>cluster_SharedModule_declarations</title>
<polygon fill="none" stroke="#000000" points="32,-78 32,-130 1408,-130 1408,-78 32,-78"/>
</g>
<g id="clust13" class="cluster">
<title>cluster_SharedModule_exports</title>
<polygon fill="none" stroke="#000000" points="16,-208 16,-260 1424,-260 1424,-208 16,-208"/>
</g>
<!-- DropdownDirective -->
<g id="node1" class="node">
<title>DropdownDirective</title>
<polygon fill="#ffffb3" stroke="#000000" points="1399.9566,-122 1272.0434,-122 1272.0434,-86 1399.9566,-86 1399.9566,-122"/>
<text text-anchor="middle" x="1336" y="-99.8" font-family="Times,serif" font-size="14.00" fill="#000000">DropdownDirective</text>
</g>
<!-- SharedModule -->
<g id="node10" class="node">
<title>SharedModule</title>
<polygon fill="#8dd3c7" stroke="#000000" points="807.4231,-187 804.4231,-191 783.4231,-191 780.4231,-187 708.5769,-187 708.5769,-151 807.4231,-151 807.4231,-187"/>
<text text-anchor="middle" x="758" y="-164.8" font-family="Times,serif" font-size="14.00" fill="#000000">SharedModule</text>
</g>
<!-- DropdownDirective&#45;&gt;SharedModule -->
<g id="edge1" class="edge">
<title>DropdownDirective&#45;&gt;SharedModule</title>
<path fill="none" stroke="#000000" d="M1278.1467,-122.2222C1278.1467,-140.8285 1278.1467,-167 1278.1467,-167 1278.1467,-167 817.4031,-167 817.4031,-167"/>
<polygon fill="#000000" stroke="#000000" points="817.4031,-163.5001 807.4031,-167 817.403,-170.5001 817.4031,-163.5001"/>
</g>
<!-- FooterComponent -->
<g id="node2" class="node">
<title>FooterComponent</title>
<polygon fill="#ffffb3" stroke="#000000" points="1253.8809,-122 1136.1191,-122 1136.1191,-86 1253.8809,-86 1253.8809,-122"/>
<text text-anchor="middle" x="1195" y="-99.8" font-family="Times,serif" font-size="14.00" fill="#000000">FooterComponent</text>
</g>
<!-- FooterComponent&#45;&gt;SharedModule -->
<g id="edge2" class="edge">
<title>FooterComponent&#45;&gt;SharedModule</title>
<path fill="none" stroke="#000000" d="M1140.6846,-122.0225C1140.6846,-139.3734 1140.6846,-163 1140.6846,-163 1140.6846,-163 817.2459,-163 817.2459,-163"/>
<polygon fill="#000000" stroke="#000000" points="817.2459,-159.5001 807.2459,-163 817.2459,-166.5001 817.2459,-159.5001"/>
</g>
<!-- HeaderComponent -->
<g id="node3" class="node">
<title>HeaderComponent</title>
<polygon fill="#ffffb3" stroke="#000000" points="1117.7437,-122 996.2563,-122 996.2563,-86 1117.7437,-86 1117.7437,-122"/>
<text text-anchor="middle" x="1057" y="-99.8" font-family="Times,serif" font-size="14.00" fill="#000000">HeaderComponent</text>
</g>
<!-- HeaderComponent&#45;&gt;SharedModule -->
<g id="edge3" class="edge">
<title>HeaderComponent&#45;&gt;SharedModule</title>
<path fill="none" stroke="#000000" d="M1079.3739,-122.0091C1079.3739,-138.0494 1079.3739,-159 1079.3739,-159 1079.3739,-159 817.5104,-159 817.5104,-159"/>
<polygon fill="#000000" stroke="#000000" points="817.5104,-155.5001 807.5104,-159 817.5103,-162.5001 817.5104,-155.5001"/>
</g>
<!-- ListTablesComponent -->
<g id="node4" class="node">
<title>ListTablesComponent</title>
<polygon fill="#ffffb3" stroke="#000000" points="978.4285,-122 837.5715,-122 837.5715,-86 978.4285,-86 978.4285,-122"/>
<text text-anchor="middle" x="908" y="-99.8" font-family="Times,serif" font-size="14.00" fill="#000000">ListTablesComponent</text>
</g>
<!-- ListTablesComponent&#45;&gt;SharedModule -->
<g id="edge4" class="edge">
<title>ListTablesComponent&#45;&gt;SharedModule</title>
<path fill="none" stroke="#000000" d="M932.1546,-122.1243C932.1546,-136.7832 932.1546,-155 932.1546,-155 932.1546,-155 817.4399,-155 817.4399,-155"/>
<polygon fill="#000000" stroke="#000000" points="817.4399,-151.5001 807.4399,-155 817.4399,-158.5001 817.4399,-151.5001"/>
</g>
<!-- PrivacyComponent -->
<g id="node5" class="node">
<title>PrivacyComponent</title>
<polygon fill="#ffffb3" stroke="#000000" points="820.0954,-122 695.9046,-122 695.9046,-86 820.0954,-86 820.0954,-122"/>
<text text-anchor="middle" x="758" y="-99.8" font-family="Times,serif" font-size="14.00" fill="#000000">PrivacyComponent</text>
</g>
<!-- PrivacyComponent&#45;&gt;SharedModule -->
<g id="edge5" class="edge">
<title>PrivacyComponent&#45;&gt;SharedModule</title>
<path fill="none" stroke="#000000" d="M758,-122.1061C758,-122.1061 758,-140.991 758,-140.991"/>
<polygon fill="#000000" stroke="#000000" points="754.5001,-140.9909 758,-150.991 761.5001,-140.991 754.5001,-140.9909"/>
</g>
<!-- PrivacyDialogComponent -->
<g id="node6" class="node">
<title>PrivacyDialogComponent</title>
<polygon fill="#ffffb3" stroke="#000000" points="678.1979,-122 515.8021,-122 515.8021,-86 678.1979,-86 678.1979,-122"/>
<text text-anchor="middle" x="597" y="-99.8" font-family="Times,serif" font-size="14.00" fill="#000000">PrivacyDialogComponent</text>
</g>
<!-- PrivacyDialogComponent&#45;&gt;SharedModule -->
<g id="edge6" class="edge">
<title>PrivacyDialogComponent&#45;&gt;SharedModule</title>
<path fill="none" stroke="#000000" d="M622.533,-122.1243C622.533,-136.7832 622.533,-155 622.533,-155 622.533,-155 698.7101,-155 698.7101,-155"/>
<polygon fill="#000000" stroke="#000000" points="698.7101,-158.5001 708.7101,-155 698.71,-151.5001 698.7101,-158.5001"/>
</g>
<!-- SubmitIfValidDirective -->
<g id="node7" class="node">
<title>SubmitIfValidDirective</title>
<polygon fill="#ffffb3" stroke="#000000" points="497.4608,-122 348.5392,-122 348.5392,-86 497.4608,-86 497.4608,-122"/>
<text text-anchor="middle" x="423" y="-99.8" font-family="Times,serif" font-size="14.00" fill="#000000">SubmitIfValidDirective</text>
</g>
<!-- SubmitIfValidDirective&#45;&gt;SharedModule -->
<g id="edge7" class="edge">
<title>SubmitIfValidDirective&#45;&gt;SharedModule</title>
<path fill="none" stroke="#000000" d="M444.3268,-122.0091C444.3268,-138.0494 444.3268,-159 444.3268,-159 444.3268,-159 698.6435,-159 698.6435,-159"/>
<polygon fill="#000000" stroke="#000000" points="698.6435,-162.5001 708.6435,-159 698.6435,-155.5001 698.6435,-162.5001"/>
</g>
<!-- TermsComponent -->
<g id="node8" class="node">
<title>TermsComponent</title>
<polygon fill="#ffffb3" stroke="#000000" points="330.5954,-122 213.4046,-122 213.4046,-86 330.5954,-86 330.5954,-122"/>
<text text-anchor="middle" x="272" y="-99.8" font-family="Times,serif" font-size="14.00" fill="#000000">TermsComponent</text>
</g>
<!-- TermsComponent&#45;&gt;SharedModule -->
<g id="edge8" class="edge">
<title>TermsComponent&#45;&gt;SharedModule</title>
<path fill="none" stroke="#000000" d="M325.9227,-122.0225C325.9227,-139.3734 325.9227,-163 325.9227,-163 325.9227,-163 698.4352,-163 698.4352,-163"/>
<polygon fill="#000000" stroke="#000000" points="698.4353,-166.5001 708.4352,-163 698.4352,-159.5001 698.4353,-166.5001"/>
</g>
<!-- TermsDialogComponent -->
<g id="node9" class="node">
<title>TermsDialogComponent</title>
<polygon fill="#ffffb3" stroke="#000000" points="195.6979,-122 40.3021,-122 40.3021,-86 195.6979,-86 195.6979,-122"/>
<text text-anchor="middle" x="118" y="-99.8" font-family="Times,serif" font-size="14.00" fill="#000000">TermsDialogComponent</text>
</g>
<!-- TermsDialogComponent&#45;&gt;SharedModule -->
<g id="edge9" class="edge">
<title>TermsDialogComponent&#45;&gt;SharedModule</title>
<path fill="none" stroke="#000000" d="M188.9739,-122.2222C188.9739,-140.8285 188.9739,-167 188.9739,-167 188.9739,-167 698.4981,-167 698.4981,-167"/>
<polygon fill="#000000" stroke="#000000" points="698.4981,-170.5001 708.4981,-167 698.4981,-163.5001 698.4981,-170.5001"/>
</g>
<!-- DropdownDirective  -->
<g id="node11" class="node">
<title>DropdownDirective </title>
<polygon fill="#fb8072" stroke="#000000" points="1415.9574,-252 1284.0426,-252 1284.0426,-216 1415.9574,-216 1415.9574,-252"/>
<text text-anchor="middle" x="1350" y="-229.8" font-family="Times,serif" font-size="14.00" fill="#000000">DropdownDirective </text>
</g>
<!-- SharedModule&#45;&gt;DropdownDirective  -->
<g id="edge10" class="edge">
<title>SharedModule&#45;&gt;DropdownDirective </title>
<path fill="none" stroke="#000000" stroke-dasharray="5,2" d="M807.2987,-171C948.1235,-171 1342.125,-171 1342.125,-171 1342.125,-171 1342.125,-205.7778 1342.125,-205.7778"/>
<polygon fill="#000000" stroke="#000000" points="1338.6251,-205.7778 1342.125,-215.7778 1345.6251,-205.7778 1338.6251,-205.7778"/>
</g>
<!-- FooterComponent  -->
<g id="node12" class="node">
<title>FooterComponent </title>
<polygon fill="#fb8072" stroke="#000000" points="1266.8814,-252 1145.1186,-252 1145.1186,-216 1266.8814,-216 1266.8814,-252"/>
<text text-anchor="middle" x="1206" y="-229.8" font-family="Times,serif" font-size="14.00" fill="#000000">FooterComponent </text>
</g>
<!-- SharedModule&#45;&gt;FooterComponent  -->
<g id="edge11" class="edge">
<title>SharedModule&#45;&gt;FooterComponent </title>
<path fill="none" stroke="#000000" stroke-dasharray="5,2" d="M807.3745,-175C922.615,-175 1199.625,-175 1199.625,-175 1199.625,-175 1199.625,-205.9775 1199.625,-205.9775"/>
<polygon fill="#000000" stroke="#000000" points="1196.1251,-205.9774 1199.625,-215.9775 1203.1251,-205.9775 1196.1251,-205.9774"/>
</g>
<!-- HeaderComponent  -->
<g id="node13" class="node">
<title>HeaderComponent </title>
<polygon fill="#fb8072" stroke="#000000" points="1127.7436,-252 1002.2564,-252 1002.2564,-216 1127.7436,-216 1127.7436,-252"/>
<text text-anchor="middle" x="1065" y="-229.8" font-family="Times,serif" font-size="14.00" fill="#000000">HeaderComponent </text>
</g>
<!-- SharedModule&#45;&gt;HeaderComponent  -->
<g id="edge12" class="edge">
<title>SharedModule&#45;&gt;HeaderComponent </title>
<path fill="none" stroke="#000000" stroke-dasharray="5,2" d="M807.2733,-179C888.3191,-179 1040.8761,-179 1040.8761,-179 1040.8761,-179 1040.8761,-205.9909 1040.8761,-205.9909"/>
<polygon fill="#000000" stroke="#000000" points="1037.3762,-205.9909 1040.8761,-215.9909 1044.3762,-205.991 1037.3762,-205.9909"/>
</g>
<!-- ListTablesComponent  -->
<g id="node14" class="node">
<title>ListTablesComponent </title>
<polygon fill="#fb8072" stroke="#000000" points="983.9278,-252 840.0722,-252 840.0722,-216 983.9278,-216 983.9278,-252"/>
<text text-anchor="middle" x="912" y="-229.8" font-family="Times,serif" font-size="14.00" fill="#000000">ListTablesComponent </text>
</g>
<!-- SharedModule&#45;&gt;ListTablesComponent  -->
<g id="edge13" class="edge">
<title>SharedModule&#45;&gt;ListTablesComponent </title>
<path fill="none" stroke="#000000" stroke-dasharray="5,2" d="M807.525,-183C843.571,-183 886.0954,-183 886.0954,-183 886.0954,-183 886.0954,-205.8757 886.0954,-205.8757"/>
<polygon fill="#000000" stroke="#000000" points="882.5955,-205.8757 886.0954,-215.8757 889.5955,-205.8757 882.5955,-205.8757"/>
</g>
<!-- PrivacyComponent  -->
<g id="node15" class="node">
<title>PrivacyComponent </title>
<polygon fill="#fb8072" stroke="#000000" points="821.596,-252 694.404,-252 694.404,-216 821.596,-216 821.596,-252"/>
<text text-anchor="middle" x="758" y="-229.8" font-family="Times,serif" font-size="14.00" fill="#000000">PrivacyComponent </text>
</g>
<!-- SharedModule&#45;&gt;PrivacyComponent  -->
<g id="edge14" class="edge">
<title>SharedModule&#45;&gt;PrivacyComponent </title>
<path fill="none" stroke="#000000" stroke-dasharray="5,2" d="M758,-187.1061C758,-187.1061 758,-205.991 758,-205.991"/>
<polygon fill="#000000" stroke="#000000" points="754.5001,-205.9909 758,-215.991 761.5001,-205.991 754.5001,-205.9909"/>
</g>
<!-- PrivacyDialogComponent  -->
<g id="node16" class="node">
<title>PrivacyDialogComponent </title>
<polygon fill="#fb8072" stroke="#000000" points="675.6981,-252 510.3019,-252 510.3019,-216 675.6981,-216 675.6981,-252"/>
<text text-anchor="middle" x="593" y="-229.8" font-family="Times,serif" font-size="14.00" fill="#000000">PrivacyDialogComponent </text>
</g>
<!-- SharedModule&#45;&gt;PrivacyDialogComponent  -->
<g id="edge15" class="edge">
<title>SharedModule&#45;&gt;PrivacyDialogComponent </title>
<path fill="none" stroke="#000000" stroke-dasharray="5,2" d="M708.3995,-183C652.4664,-183 569.217,-183 569.217,-183 569.217,-183 569.217,-205.8757 569.217,-205.8757"/>
<polygon fill="#000000" stroke="#000000" points="565.7171,-205.8757 569.217,-215.8757 572.7171,-205.8757 565.7171,-205.8757"/>
</g>
<!-- SubmitIfValidDirective  -->
<g id="node17" class="node">
<title>SubmitIfValidDirective </title>
<polygon fill="#fb8072" stroke="#000000" points="492.4615,-252 339.5385,-252 339.5385,-216 492.4615,-216 492.4615,-252"/>
<text text-anchor="middle" x="416" y="-229.8" font-family="Times,serif" font-size="14.00" fill="#000000">SubmitIfValidDirective </text>
</g>
<!-- SharedModule&#45;&gt;SubmitIfValidDirective  -->
<g id="edge16" class="edge">
<title>SharedModule&#45;&gt;SubmitIfValidDirective </title>
<path fill="none" stroke="#000000" stroke-dasharray="5,2" d="M708.4824,-179C609.4556,-179 396.4232,-179 396.4232,-179 396.4232,-179 396.4232,-205.9909 396.4232,-205.9909"/>
<polygon fill="#000000" stroke="#000000" points="392.9233,-205.9909 396.4232,-215.9909 399.9233,-205.991 392.9233,-205.9909"/>
</g>
<!-- TermsComponent  -->
<g id="node18" class="node">
<title>TermsComponent </title>
<polygon fill="#fb8072" stroke="#000000" points="321.0961,-252 200.9039,-252 200.9039,-216 321.0961,-216 321.0961,-252"/>
<text text-anchor="middle" x="261" y="-229.8" font-family="Times,serif" font-size="14.00" fill="#000000">TermsComponent </text>
</g>
<!-- SharedModule&#45;&gt;TermsComponent  -->
<g id="edge17" class="edge">
<title>SharedModule&#45;&gt;TermsComponent </title>
<path fill="none" stroke="#000000" stroke-dasharray="5,2" d="M708.7106,-175C584.2948,-175 267.375,-175 267.375,-175 267.375,-175 267.375,-205.9775 267.375,-205.9775"/>
<polygon fill="#000000" stroke="#000000" points="263.8751,-205.9774 267.375,-215.9775 270.8751,-205.9775 263.8751,-205.9774"/>
</g>
<!-- TermsDialogComponent  -->
<g id="node19" class="node">
<title>TermsDialogComponent </title>
<polygon fill="#fb8072" stroke="#000000" points="182.1981,-252 23.8019,-252 23.8019,-216 182.1981,-216 182.1981,-252"/>
<text text-anchor="middle" x="103" y="-229.8" font-family="Times,serif" font-size="14.00" fill="#000000">TermsDialogComponent </text>
</g>
<!-- SharedModule&#45;&gt;TermsDialogComponent  -->
<g id="edge18" class="edge">
<title>SharedModule&#45;&gt;TermsDialogComponent </title>
<path fill="none" stroke="#000000" stroke-dasharray="5,2" d="M708.601,-171C557.4431,-171 111.375,-171 111.375,-171 111.375,-171 111.375,-205.7778 111.375,-205.7778"/>
<polygon fill="#000000" stroke="#000000" points="107.8751,-205.7778 111.375,-215.7778 114.8751,-205.7778 107.8751,-205.7778"/>
</g>
</g>
</svg>
