<?xml version="1.0" encoding="UTF-8" standalone="no"?>
<!DOCTYPE svg PUBLIC "-//W3C//DTD SVG 1.1//EN"
 "http://www.w3.org/Graphics/SVG/1.1/DTD/svg11.dtd">
<!-- Generated by graphviz version 2.40.1 (20161225.0304)
 -->
<!-- Title: dependencies Pages: 1 -->
<svg width="1178pt" height="211pt"
 viewBox="0.00 0.00 1178.00 211.00" xmlns="http://www.w3.org/2000/svg" xmlns:xlink="http://www.w3.org/1999/xlink">
<g id="graph0" class="graph" transform="scale(1 1) rotate(0) translate(4 207)">
<title>dependencies</title>
<polygon fill="#ffffff" stroke="transparent" points="-4,4 -4,-207 1174,-207 1174,4 -4,4"/>
<text text-anchor="start" x="564.0091" y="-42.4" font-family="sans-serif" font-weight="bold" font-size="14.00" fill="#000000">Legend</text>
<polygon fill="#ffffb3" stroke="transparent" points="351,-10 351,-30 371,-30 371,-10 351,-10"/>
<text text-anchor="start" x="374.629" y="-15.4" font-family="sans-serif" font-size="14.00" fill="#000000"> &#160;Declarations</text>
<polygon fill="#8dd3c7" stroke="transparent" points="464,-10 464,-30 484,-30 484,-10 464,-10"/>
<text text-anchor="start" x="487.7251" y="-15.4" font-family="sans-serif" font-size="14.00" fill="#000000"> &#160;Module</text>
<polygon fill="#80b1d3" stroke="transparent" points="550,-10 550,-30 570,-30 570,-10 550,-10"/>
<text text-anchor="start" x="573.7812" y="-15.4" font-family="sans-serif" font-size="14.00" fill="#000000"> &#160;Bootstrap</text>
<polygon fill="#fdb462" stroke="transparent" points="647,-10 647,-30 667,-30 667,-10 647,-10"/>
<text text-anchor="start" x="670.6732" y="-15.4" font-family="sans-serif" font-size="14.00" fill="#000000"> &#160;Providers</text>
<polygon fill="#fb8072" stroke="transparent" points="743,-10 743,-30 763,-30 763,-10 743,-10"/>
<text text-anchor="start" x="766.7258" y="-15.4" font-family="sans-serif" font-size="14.00" fill="#000000"> &#160;Exports</text>
<g id="clust1" class="cluster">
<title>cluster_AuthPageModule</title>
<polygon fill="none" stroke="#000000" stroke-dasharray="1,5" points="8,-70 8,-195 1162,-195 1162,-70 8,-70"/>
</g>
<g id="clust2" class="cluster">
<title>cluster_AuthPageModule_declarations</title>
<polygon fill="none" stroke="#000000" points="289,-78 289,-130 1154,-130 1154,-78 289,-78"/>
</g>
<g id="clust9" class="cluster">
<title>cluster_AuthPageModule_imports</title>
<polygon fill="none" stroke="#000000" points="16,-78 16,-130 281,-130 281,-78 16,-78"/>
</g>
<!-- AuthPage -->
<g id="node1" class="node">
<title>AuthPage</title>
<polygon fill="#ffffb3" stroke="#000000" points="1145.7093,-122 1074.2907,-122 1074.2907,-86 1145.7093,-86 1145.7093,-122"/>
<text text-anchor="middle" x="1110" y="-99.8" font-family="Times,serif" font-size="14.00" fill="#000000">AuthPage</text>
</g>
<!-- AuthPageModule -->
<g id="node7" class="node">
<title>AuthPageModule</title>
<polygon fill="#8dd3c7" stroke="#000000" points="659.2591,-187 656.2591,-191 635.2591,-191 632.2591,-187 544.7409,-187 544.7409,-151 659.2591,-151 659.2591,-187"/>
<text text-anchor="middle" x="602" y="-164.8" font-family="Times,serif" font-size="14.00" fill="#000000">AuthPageModule</text>
</g>
<!-- AuthPage&#45;&gt;AuthPageModule -->
<g id="edge1" class="edge">
<title>AuthPage&#45;&gt;AuthPageModule</title>
<path fill="none" stroke="#000000" d="M1110,-122.2921C1110,-144.2057 1110,-178 1110,-178 1110,-178 669.2866,-178 669.2866,-178"/>
<polygon fill="#000000" stroke="#000000" points="669.2866,-174.5001 659.2866,-178 669.2865,-181.5001 669.2866,-174.5001"/>
</g>
<!-- ForgotPasswordComponent -->
<g id="node2" class="node">
<title>ForgotPasswordComponent</title>
<polygon fill="#ffffb3" stroke="#000000" points="1056.3201,-122 883.6799,-122 883.6799,-86 1056.3201,-86 1056.3201,-122"/>
<text text-anchor="middle" x="970" y="-99.8" font-family="Times,serif" font-size="14.00" fill="#000000">ForgotPasswordComponent</text>
</g>
<!-- ForgotPasswordComponent&#45;&gt;AuthPageModule -->
<g id="edge2" class="edge">
<title>ForgotPasswordComponent&#45;&gt;AuthPageModule</title>
<path fill="none" stroke="#000000" d="M970,-122.1061C970,-141.3391 970,-169 970,-169 970,-169 669.5,-169 669.5,-169"/>
<polygon fill="#000000" stroke="#000000" points="669.5,-165.5001 659.5,-169 669.5,-172.5001 669.5,-165.5001"/>
</g>
<!-- LoginComponent -->
<g id="node3" class="node">
<title>LoginComponent</title>
<polygon fill="#ffffb3" stroke="#000000" points="865.2758,-122 750.7242,-122 750.7242,-86 865.2758,-86 865.2758,-122"/>
<text text-anchor="middle" x="808" y="-99.8" font-family="Times,serif" font-size="14.00" fill="#000000">LoginComponent</text>
</g>
<!-- LoginComponent&#45;&gt;AuthPageModule -->
<g id="edge3" class="edge">
<title>LoginComponent&#45;&gt;AuthPageModule</title>
<path fill="none" stroke="#000000" d="M808,-122.027C808,-138.3976 808,-160 808,-160 808,-160 669.3825,-160 669.3825,-160"/>
<polygon fill="#000000" stroke="#000000" points="669.3825,-156.5001 659.3825,-160 669.3824,-163.5001 669.3825,-156.5001"/>
</g>
<!-- PaypalComponent -->
<g id="node4" class="node">
<title>PaypalComponent</title>
<polygon fill="#ffffb3" stroke="#000000" points="732.9356,-122 613.0644,-122 613.0644,-86 732.9356,-86 732.9356,-122"/>
<text text-anchor="middle" x="673" y="-99.8" font-family="Times,serif" font-size="14.00" fill="#000000">PaypalComponent</text>
</g>
<!-- PaypalComponent&#45;&gt;AuthPageModule -->
<g id="edge4" class="edge">
<title>PaypalComponent&#45;&gt;AuthPageModule</title>
<path fill="none" stroke="#000000" d="M636.331,-122.1061C636.331,-122.1061 636.331,-140.991 636.331,-140.991"/>
<polygon fill="#000000" stroke="#000000" points="632.8311,-140.9909 636.331,-150.991 639.8311,-140.991 632.8311,-140.9909"/>
</g>
<!-- RegisterComponent -->
<g id="node5" class="node">
<title>RegisterComponent</title>
<polygon fill="#ffffb3" stroke="#000000" points="594.9846,-122 467.0154,-122 467.0154,-86 594.9846,-86 594.9846,-122"/>
<text text-anchor="middle" x="531" y="-99.8" font-family="Times,serif" font-size="14.00" fill="#000000">RegisterComponent</text>
</g>
<!-- RegisterComponent&#45;&gt;AuthPageModule -->
<g id="edge5" class="edge">
<title>RegisterComponent&#45;&gt;AuthPageModule</title>
<path fill="none" stroke="#000000" d="M569.8065,-122.1061C569.8065,-122.1061 569.8065,-140.991 569.8065,-140.991"/>
<polygon fill="#000000" stroke="#000000" points="566.3065,-140.9909 569.8065,-150.991 573.3065,-140.991 566.3065,-140.9909"/>
</g>
<!-- VerifyEmailComponent -->
<g id="node6" class="node">
<title>VerifyEmailComponent</title>
<polygon fill="#ffffb3" stroke="#000000" points="448.8047,-122 297.1953,-122 297.1953,-86 448.8047,-86 448.8047,-122"/>
<text text-anchor="middle" x="373" y="-99.8" font-family="Times,serif" font-size="14.00" fill="#000000">VerifyEmailComponent</text>
</g>
<!-- VerifyEmailComponent&#45;&gt;AuthPageModule -->
<g id="edge6" class="edge">
<title>VerifyEmailComponent&#45;&gt;AuthPageModule</title>
<path fill="none" stroke="#000000" d="M373,-122.027C373,-138.3976 373,-160 373,-160 373,-160 534.5092,-160 534.5092,-160"/>
<polygon fill="#000000" stroke="#000000" points="534.5093,-163.5001 544.5092,-160 534.5092,-156.5001 534.5093,-163.5001"/>
</g>
<!-- AuthRoutingModule -->
<g id="node8" class="node">
<title>AuthRoutingModule</title>
<polygon fill="#8dd3c7" stroke="#000000" points="273.1652,-122 270.1652,-126 249.1652,-126 246.1652,-122 140.8348,-122 140.8348,-86 273.1652,-86 273.1652,-122"/>
<text text-anchor="middle" x="207" y="-99.8" font-family="Times,serif" font-size="14.00" fill="#000000">AuthRoutingModule</text>
</g>
<!-- AuthRoutingModule&#45;&gt;AuthPageModule -->
<g id="edge7" class="edge">
<title>AuthRoutingModule&#45;&gt;AuthPageModule</title>
<path fill="none" stroke="#000000" d="M207,-122.1061C207,-141.3391 207,-169 207,-169 207,-169 534.5636,-169 534.5636,-169"/>
<polygon fill="#000000" stroke="#000000" points="534.5636,-172.5001 544.5636,-169 534.5636,-165.5001 534.5636,-172.5001"/>
</g>
<!-- SharedModule -->
<g id="node9" class="node">
<title>SharedModule</title>
<polygon fill="#8dd3c7" stroke="#000000" points="122.4231,-122 119.4231,-126 98.4231,-126 95.4231,-122 23.5769,-122 23.5769,-86 122.4231,-86 122.4231,-122"/>
<text text-anchor="middle" x="73" y="-99.8" font-family="Times,serif" font-size="14.00" fill="#000000">SharedModule</text>
</g>
<!-- SharedModule&#45;&gt;AuthPageModule -->
<g id="edge8" class="edge">
<title>SharedModule&#45;&gt;AuthPageModule</title>
<path fill="none" stroke="#000000" d="M73,-122.2921C73,-144.2057 73,-178 73,-178 73,-178 534.6331,-178 534.6331,-178"/>
<polygon fill="#000000" stroke="#000000" points="534.6332,-181.5001 544.6331,-178 534.6331,-174.5001 534.6332,-181.5001"/>
</g>
</g>
</svg>
