<?xml version="1.0" encoding="UTF-8" standalone="no"?>
<!DOCTYPE svg PUBLIC "-//W3C//DTD SVG 1.1//EN"
 "http://www.w3.org/Graphics/SVG/1.1/DTD/svg11.dtd">
<!-- Generated by graphviz version 2.40.1 (20161225.0304)
 -->
<!-- Title: dependencies Pages: 1 -->
<svg width="833pt" height="211pt"
 viewBox="0.00 0.00 833.00 211.00" xmlns="http://www.w3.org/2000/svg" xmlns:xlink="http://www.w3.org/1999/xlink">
<g id="graph0" class="graph" transform="scale(1 1) rotate(0) translate(4 207)">
<title>dependencies</title>
<polygon fill="#ffffff" stroke="transparent" points="-4,4 -4,-207 829,-207 829,4 -4,4"/>
<text text-anchor="start" x="391.5091" y="-42.4" font-family="sans-serif" font-weight="bold" font-size="14.00" fill="#000000">Legend</text>
<polygon fill="#ffffb3" stroke="transparent" points="178.5,-10 178.5,-30 198.5,-30 198.5,-10 178.5,-10"/>
<text text-anchor="start" x="202.129" y="-15.4" font-family="sans-serif" font-size="14.00" fill="#000000"> &#160;Declarations</text>
<polygon fill="#8dd3c7" stroke="transparent" points="291.5,-10 291.5,-30 311.5,-30 311.5,-10 291.5,-10"/>
<text text-anchor="start" x="315.2251" y="-15.4" font-family="sans-serif" font-size="14.00" fill="#000000"> &#160;Module</text>
<polygon fill="#80b1d3" stroke="transparent" points="377.5,-10 377.5,-30 397.5,-30 397.5,-10 377.5,-10"/>
<text text-anchor="start" x="401.2812" y="-15.4" font-family="sans-serif" font-size="14.00" fill="#000000"> &#160;Bootstrap</text>
<polygon fill="#fdb462" stroke="transparent" points="474.5,-10 474.5,-30 494.5,-30 494.5,-10 474.5,-10"/>
<text text-anchor="start" x="498.1732" y="-15.4" font-family="sans-serif" font-size="14.00" fill="#000000"> &#160;Providers</text>
<polygon fill="#fb8072" stroke="transparent" points="570.5,-10 570.5,-30 590.5,-30 590.5,-10 570.5,-10"/>
<text text-anchor="start" x="594.2258" y="-15.4" font-family="sans-serif" font-size="14.00" fill="#000000"> &#160;Exports</text>
<g id="clust1" class="cluster">
<title>cluster_AuthModule</title>
<polygon fill="none" stroke="#000000" stroke-dasharray="1,5" points="8,-70 8,-195 817,-195 817,-70 8,-70"/>
</g>
<g id="clust2" class="cluster">
<title>cluster_AuthModule_declarations</title>
<polygon fill="none" stroke="#000000" points="172,-78 172,-130 809,-130 809,-78 172,-78"/>
</g>
<g id="clust7" class="cluster">
<title>cluster_AuthModule_imports</title>
<polygon fill="none" stroke="#000000" points="16,-78 16,-130 164,-130 164,-78 16,-78"/>
</g>
<!-- ForgotPasswordComponent -->
<g id="node1" class="node">
<title>ForgotPasswordComponent</title>
<polygon fill="#ffffb3" stroke="#000000" points="801.3201,-122 628.6799,-122 628.6799,-86 801.3201,-86 801.3201,-122"/>
<text text-anchor="middle" x="715" y="-99.8" font-family="Times,serif" font-size="14.00" fill="#000000">ForgotPasswordComponent</text>
</g>
<!-- AuthModule -->
<g id="node5" class="node">
<title>AuthModule</title>
<polygon fill="#8dd3c7" stroke="#000000" points="457.5482,-187 454.5482,-191 433.5482,-191 430.5482,-187 370.4518,-187 370.4518,-151 457.5482,-151 457.5482,-187"/>
<text text-anchor="middle" x="414" y="-164.8" font-family="Times,serif" font-size="14.00" fill="#000000">AuthModule</text>
</g>
<!-- ForgotPasswordComponent&#45;&gt;AuthModule -->
<g id="edge1" class="edge">
<title>ForgotPasswordComponent&#45;&gt;AuthModule</title>
<path fill="none" stroke="#000000" d="M715,-122.2843C715,-143.3211 715,-175 715,-175 715,-175 467.768,-175 467.768,-175"/>
<polygon fill="#000000" stroke="#000000" points="467.768,-171.5001 457.768,-175 467.7679,-178.5001 467.768,-171.5001"/>
</g>
<!-- LoginComponent -->
<g id="node2" class="node">
<title>LoginComponent</title>
<polygon fill="#ffffb3" stroke="#000000" points="610.2758,-122 495.7242,-122 495.7242,-86 610.2758,-86 610.2758,-122"/>
<text text-anchor="middle" x="553" y="-99.8" font-family="Times,serif" font-size="14.00" fill="#000000">LoginComponent</text>
</g>
<!-- LoginComponent&#45;&gt;AuthModule -->
<g id="edge2" class="edge">
<title>LoginComponent&#45;&gt;AuthModule</title>
<path fill="none" stroke="#000000" d="M553,-122.0225C553,-139.3734 553,-163 553,-163 553,-163 467.5991,-163 467.5991,-163"/>
<polygon fill="#000000" stroke="#000000" points="467.5991,-159.5001 457.5991,-163 467.5991,-166.5001 467.5991,-159.5001"/>
</g>
<!-- RegisterComponent -->
<g id="node3" class="node">
<title>RegisterComponent</title>
<polygon fill="#ffffb3" stroke="#000000" points="477.9846,-122 350.0154,-122 350.0154,-86 477.9846,-86 477.9846,-122"/>
<text text-anchor="middle" x="414" y="-99.8" font-family="Times,serif" font-size="14.00" fill="#000000">RegisterComponent</text>
</g>
<!-- RegisterComponent&#45;&gt;AuthModule -->
<g id="edge3" class="edge">
<title>RegisterComponent&#45;&gt;AuthModule</title>
<path fill="none" stroke="#000000" d="M414,-122.1061C414,-122.1061 414,-140.991 414,-140.991"/>
<polygon fill="#000000" stroke="#000000" points="410.5001,-140.9909 414,-150.991 417.5001,-140.991 410.5001,-140.9909"/>
</g>
<!-- VerifyEmailComponent -->
<g id="node4" class="node">
<title>VerifyEmailComponent</title>
<polygon fill="#ffffb3" stroke="#000000" points="331.8047,-122 180.1953,-122 180.1953,-86 331.8047,-86 331.8047,-122"/>
<text text-anchor="middle" x="256" y="-99.8" font-family="Times,serif" font-size="14.00" fill="#000000">VerifyEmailComponent</text>
</g>
<!-- VerifyEmailComponent&#45;&gt;AuthModule -->
<g id="edge4" class="edge">
<title>VerifyEmailComponent&#45;&gt;AuthModule</title>
<path fill="none" stroke="#000000" d="M256,-122.0225C256,-139.3734 256,-163 256,-163 256,-163 360.4076,-163 360.4076,-163"/>
<polygon fill="#000000" stroke="#000000" points="360.4076,-166.5001 370.4076,-163 360.4075,-159.5001 360.4076,-166.5001"/>
</g>
<!-- AuthRoutingModule -->
<g id="node6" class="node">
<title>AuthRoutingModule</title>
<polygon fill="#8dd3c7" stroke="#000000" points="156.1652,-122 153.1652,-126 132.1652,-126 129.1652,-122 23.8348,-122 23.8348,-86 156.1652,-86 156.1652,-122"/>
<text text-anchor="middle" x="90" y="-99.8" font-family="Times,serif" font-size="14.00" fill="#000000">AuthRoutingModule</text>
</g>
<!-- AuthRoutingModule&#45;&gt;AuthModule -->
<g id="edge5" class="edge">
<title>AuthRoutingModule&#45;&gt;AuthModule</title>
<path fill="none" stroke="#000000" d="M90,-122.2843C90,-143.3211 90,-175 90,-175 90,-175 360.3039,-175 360.3039,-175"/>
<polygon fill="#000000" stroke="#000000" points="360.304,-178.5001 370.3039,-175 360.3039,-171.5001 360.304,-178.5001"/>
</g>
</g>
</svg>
