<?xml version="1.0" encoding="UTF-8" standalone="no"?>
<!DOCTYPE svg PUBLIC "-//W3C//DTD SVG 1.1//EN"
 "http://www.w3.org/Graphics/SVG/1.1/DTD/svg11.dtd">
<!-- Generated by graphviz version 2.40.1 (20161225.0304)
 -->
<!-- Title: dependencies Pages: 1 -->
<svg width="796pt" height="211pt"
 viewBox="0.00 0.00 796.00 211.00" xmlns="http://www.w3.org/2000/svg" xmlns:xlink="http://www.w3.org/1999/xlink">
<g id="graph0" class="graph" transform="scale(1 1) rotate(0) translate(4 207)">
<title>dependencies</title>
<polygon fill="#ffffff" stroke="transparent" points="-4,4 -4,-207 792,-207 792,4 -4,4"/>
<text text-anchor="start" x="373.0091" y="-42.4" font-family="sans-serif" font-weight="bold" font-size="14.00" fill="#000000">Legend</text>
<polygon fill="#ffffb3" stroke="transparent" points="160,-10 160,-30 180,-30 180,-10 160,-10"/>
<text text-anchor="start" x="183.629" y="-15.4" font-family="sans-serif" font-size="14.00" fill="#000000"> &#160;Declarations</text>
<polygon fill="#8dd3c7" stroke="transparent" points="273,-10 273,-30 293,-30 293,-10 273,-10"/>
<text text-anchor="start" x="296.7251" y="-15.4" font-family="sans-serif" font-size="14.00" fill="#000000"> &#160;Module</text>
<polygon fill="#80b1d3" stroke="transparent" points="359,-10 359,-30 379,-30 379,-10 359,-10"/>
<text text-anchor="start" x="382.7812" y="-15.4" font-family="sans-serif" font-size="14.00" fill="#000000"> &#160;Bootstrap</text>
<polygon fill="#fdb462" stroke="transparent" points="456,-10 456,-30 476,-30 476,-10 456,-10"/>
<text text-anchor="start" x="479.6732" y="-15.4" font-family="sans-serif" font-size="14.00" fill="#000000"> &#160;Providers</text>
<polygon fill="#fb8072" stroke="transparent" points="552,-10 552,-30 572,-30 572,-10 552,-10"/>
<text text-anchor="start" x="575.7258" y="-15.4" font-family="sans-serif" font-size="14.00" fill="#000000"> &#160;Exports</text>
<g id="clust1" class="cluster">
<title>cluster_StatsPageModule</title>
<polygon fill="none" stroke="#000000" stroke-dasharray="1,5" points="8,-70 8,-195 780,-195 780,-70 8,-70"/>
</g>
<g id="clust2" class="cluster">
<title>cluster_StatsPageModule_declarations</title>
<polygon fill="none" stroke="#000000" points="138,-78 138,-130 772,-130 772,-78 138,-78"/>
</g>
<g id="clust8" class="cluster">
<title>cluster_StatsPageModule_imports</title>
<polygon fill="none" stroke="#000000" points="16,-78 16,-130 130,-130 130,-78 16,-78"/>
</g>
<!-- GolfComponent -->
<g id="node1" class="node">
<title>GolfComponent</title>
<polygon fill="#ffffb3" stroke="#000000" points="764.4902,-122 657.5098,-122 657.5098,-86 764.4902,-86 764.4902,-122"/>
<text text-anchor="middle" x="711" y="-99.8" font-family="Times,serif" font-size="14.00" fill="#000000">GolfComponent</text>
</g>
<!-- StatsPageModule -->
<g id="node6" class="node">
<title>StatsPageModule</title>
<polygon fill="#8dd3c7" stroke="#000000" points="434.9846,-187 431.9846,-191 410.9846,-191 407.9846,-187 321.0154,-187 321.0154,-151 434.9846,-151 434.9846,-187"/>
<text text-anchor="middle" x="378" y="-164.8" font-family="Times,serif" font-size="14.00" fill="#000000">StatsPageModule</text>
</g>
<!-- GolfComponent&#45;&gt;StatsPageModule -->
<g id="edge1" class="edge">
<title>GolfComponent&#45;&gt;StatsPageModule</title>
<path fill="none" stroke="#000000" d="M711,-122.2843C711,-143.3211 711,-175 711,-175 711,-175 445.2447,-175 445.2447,-175"/>
<polygon fill="#000000" stroke="#000000" points="445.2448,-171.5001 435.2447,-175 445.2447,-178.5001 445.2448,-171.5001"/>
</g>
<!-- SoccerComponent -->
<g id="node2" class="node">
<title>SoccerComponent</title>
<polygon fill="#ffffb3" stroke="#000000" points="639.9201,-122 520.0799,-122 520.0799,-86 639.9201,-86 639.9201,-122"/>
<text text-anchor="middle" x="580" y="-99.8" font-family="Times,serif" font-size="14.00" fill="#000000">SoccerComponent</text>
</g>
<!-- SoccerComponent&#45;&gt;StatsPageModule -->
<g id="edge2" class="edge">
<title>SoccerComponent&#45;&gt;StatsPageModule</title>
<path fill="none" stroke="#000000" d="M580,-122.0225C580,-139.3734 580,-163 580,-163 580,-163 445.0751,-163 445.0751,-163"/>
<polygon fill="#000000" stroke="#000000" points="445.0752,-159.5001 435.0751,-163 445.0751,-166.5001 445.0752,-159.5001"/>
</g>
<!-- StatsListComponent -->
<g id="node3" class="node">
<title>StatsListComponent</title>
<polygon fill="#ffffb3" stroke="#000000" points="502.3342,-122 371.6658,-122 371.6658,-86 502.3342,-86 502.3342,-122"/>
<text text-anchor="middle" x="437" y="-99.8" font-family="Times,serif" font-size="14.00" fill="#000000">StatsListComponent</text>
</g>
<!-- StatsListComponent&#45;&gt;StatsPageModule -->
<g id="edge3" class="edge">
<title>StatsListComponent&#45;&gt;StatsPageModule</title>
<path fill="none" stroke="#000000" d="M403.4127,-122.1061C403.4127,-122.1061 403.4127,-140.991 403.4127,-140.991"/>
<polygon fill="#000000" stroke="#000000" points="399.9128,-140.9909 403.4127,-150.991 406.9128,-140.991 399.9128,-140.9909"/>
</g>
<!-- StatsPage -->
<g id="node4" class="node">
<title>StatsPage</title>
<polygon fill="#ffffb3" stroke="#000000" points="354.4362,-122 283.5638,-122 283.5638,-86 354.4362,-86 354.4362,-122"/>
<text text-anchor="middle" x="319" y="-99.8" font-family="Times,serif" font-size="14.00" fill="#000000">StatsPage</text>
</g>
<!-- StatsPage&#45;&gt;StatsPageModule -->
<g id="edge4" class="edge">
<title>StatsPage&#45;&gt;StatsPageModule</title>
<path fill="none" stroke="#000000" d="M337.6126,-122.1061C337.6126,-122.1061 337.6126,-140.991 337.6126,-140.991"/>
<polygon fill="#000000" stroke="#000000" points="334.1126,-140.9909 337.6126,-150.991 341.1126,-140.991 334.1126,-140.9909"/>
</g>
<!-- TennisComponent -->
<g id="node5" class="node">
<title>TennisComponent</title>
<polygon fill="#ffffb3" stroke="#000000" points="265.9356,-122 146.0644,-122 146.0644,-86 265.9356,-86 265.9356,-122"/>
<text text-anchor="middle" x="206" y="-99.8" font-family="Times,serif" font-size="14.00" fill="#000000">TennisComponent</text>
</g>
<!-- TennisComponent&#45;&gt;StatsPageModule -->
<g id="edge5" class="edge">
<title>TennisComponent&#45;&gt;StatsPageModule</title>
<path fill="none" stroke="#000000" d="M206,-122.0225C206,-139.3734 206,-163 206,-163 206,-163 310.7265,-163 310.7265,-163"/>
<polygon fill="#000000" stroke="#000000" points="310.7265,-166.5001 320.7265,-163 310.7265,-159.5001 310.7265,-166.5001"/>
</g>
<!-- SharedModule -->
<g id="node7" class="node">
<title>SharedModule</title>
<polygon fill="#8dd3c7" stroke="#000000" points="122.4231,-122 119.4231,-126 98.4231,-126 95.4231,-122 23.5769,-122 23.5769,-86 122.4231,-86 122.4231,-122"/>
<text text-anchor="middle" x="73" y="-99.8" font-family="Times,serif" font-size="14.00" fill="#000000">SharedModule</text>
</g>
<!-- SharedModule&#45;&gt;StatsPageModule -->
<g id="edge6" class="edge">
<title>SharedModule&#45;&gt;StatsPageModule</title>
<path fill="none" stroke="#000000" d="M73,-122.2843C73,-143.3211 73,-175 73,-175 73,-175 310.9896,-175 310.9896,-175"/>
<polygon fill="#000000" stroke="#000000" points="310.9897,-178.5001 320.9896,-175 310.9896,-171.5001 310.9897,-178.5001"/>
</g>
</g>
</svg>
