<?xml version="1.0" encoding="UTF-8" standalone="no"?>
<!DOCTYPE svg PUBLIC "-//W3C//DTD SVG 1.1//EN"
 "http://www.w3.org/Graphics/SVG/1.1/DTD/svg11.dtd">
<!-- Generated by graphviz version 2.40.1 (20161225.0304)
 -->
<!-- Title: dependencies Pages: 1 -->
<svg width="504pt" height="211pt"
 viewBox="0.00 0.00 504.00 211.00" xmlns="http://www.w3.org/2000/svg" xmlns:xlink="http://www.w3.org/1999/xlink">
<g id="graph0" class="graph" transform="scale(1 1) rotate(0) translate(4 207)">
<title>dependencies</title>
<polygon fill="#ffffff" stroke="transparent" points="-4,4 -4,-207 500,-207 500,4 -4,4"/>
<text text-anchor="start" x="227.0091" y="-42.4" font-family="sans-serif" font-weight="bold" font-size="14.00" fill="#000000">Legend</text>
<polygon fill="#ffffb3" stroke="transparent" points="14,-10 14,-30 34,-30 34,-10 14,-10"/>
<text text-anchor="start" x="37.629" y="-15.4" font-family="sans-serif" font-size="14.00" fill="#000000"> &#160;Declarations</text>
<polygon fill="#8dd3c7" stroke="transparent" points="127,-10 127,-30 147,-30 147,-10 127,-10"/>
<text text-anchor="start" x="150.7251" y="-15.4" font-family="sans-serif" font-size="14.00" fill="#000000"> &#160;Module</text>
<polygon fill="#80b1d3" stroke="transparent" points="213,-10 213,-30 233,-30 233,-10 213,-10"/>
<text text-anchor="start" x="236.7812" y="-15.4" font-family="sans-serif" font-size="14.00" fill="#000000"> &#160;Bootstrap</text>
<polygon fill="#fdb462" stroke="transparent" points="310,-10 310,-30 330,-30 330,-10 310,-10"/>
<text text-anchor="start" x="333.6732" y="-15.4" font-family="sans-serif" font-size="14.00" fill="#000000"> &#160;Providers</text>
<polygon fill="#fb8072" stroke="transparent" points="406,-10 406,-30 426,-30 426,-10 406,-10"/>
<text text-anchor="start" x="429.7258" y="-15.4" font-family="sans-serif" font-size="14.00" fill="#000000"> &#160;Exports</text>
<g id="clust1" class="cluster">
<title>cluster_TestimonialsPageModule</title>
<polygon fill="none" stroke="#000000" stroke-dasharray="1,5" points="113,-70 113,-195 383,-195 383,-70 113,-70"/>
</g>
<g id="clust2" class="cluster">
<title>cluster_TestimonialsPageModule_declarations</title>
<polygon fill="none" stroke="#000000" points="243,-78 243,-130 375,-130 375,-78 243,-78"/>
</g>
<g id="clust4" class="cluster">
<title>cluster_TestimonialsPageModule_imports</title>
<polygon fill="none" stroke="#000000" points="121,-78 121,-130 235,-130 235,-78 121,-78"/>
</g>
<!-- TestimonialsPage -->
<g id="node1" class="node">
<title>TestimonialsPage</title>
<polygon fill="#ffffb3" stroke="#000000" points="366.5367,-122 251.4633,-122 251.4633,-86 366.5367,-86 366.5367,-122"/>
<text text-anchor="middle" x="309" y="-99.8" font-family="Times,serif" font-size="14.00" fill="#000000">TestimonialsPage</text>
</g>
<!-- TestimonialsPageModule -->
<g id="node2" class="node">
<title>TestimonialsPageModule</title>
<polygon fill="#8dd3c7" stroke="#000000" points="327.5856,-187 324.5856,-191 303.5856,-191 300.5856,-187 168.4144,-187 168.4144,-151 327.5856,-151 327.5856,-187"/>
<text text-anchor="middle" x="248" y="-164.8" font-family="Times,serif" font-size="14.00" fill="#000000">TestimonialsPageModule</text>
</g>
<!-- TestimonialsPage&#45;&gt;TestimonialsPageModule -->
<g id="edge1" class="edge">
<title>TestimonialsPage&#45;&gt;TestimonialsPageModule</title>
<path fill="none" stroke="#000000" d="M289.3875,-122.1061C289.3875,-122.1061 289.3875,-140.991 289.3875,-140.991"/>
<polygon fill="#000000" stroke="#000000" points="285.8875,-140.9909 289.3875,-150.991 292.8875,-140.991 285.8875,-140.9909"/>
</g>
<!-- SharedModule -->
<g id="node3" class="node">
<title>SharedModule</title>
<polygon fill="#8dd3c7" stroke="#000000" points="227.4231,-122 224.4231,-126 203.4231,-126 200.4231,-122 128.5769,-122 128.5769,-86 227.4231,-86 227.4231,-122"/>
<text text-anchor="middle" x="178" y="-99.8" font-family="Times,serif" font-size="14.00" fill="#000000">SharedModule</text>
</g>
<!-- SharedModule&#45;&gt;TestimonialsPageModule -->
<g id="edge2" class="edge">
<title>SharedModule&#45;&gt;TestimonialsPageModule</title>
<path fill="none" stroke="#000000" d="M197.8342,-122.1061C197.8342,-122.1061 197.8342,-140.991 197.8342,-140.991"/>
<polygon fill="#000000" stroke="#000000" points="194.3342,-140.9909 197.8342,-150.991 201.3342,-140.991 194.3342,-140.9909"/>
</g>
</g>
</svg>
