<?xml version="1.0" encoding="UTF-8" standalone="no"?>
<!DOCTYPE svg PUBLIC "-//W3C//DTD SVG 1.1//EN"
 "http://www.w3.org/Graphics/SVG/1.1/DTD/svg11.dtd">
<!-- Generated by graphviz version 2.40.1 (20161225.0304)
 -->
<!-- Title: dependencies Pages: 1 -->
<svg width="1485pt" height="211pt"
 viewBox="0.00 0.00 1485.00 211.00" xmlns="http://www.w3.org/2000/svg" xmlns:xlink="http://www.w3.org/1999/xlink">
<g id="graph0" class="graph" transform="scale(1 1) rotate(0) translate(4 207)">
<title>dependencies</title>
<polygon fill="#ffffff" stroke="transparent" points="-4,4 -4,-207 1481,-207 1481,4 -4,4"/>
<text text-anchor="start" x="717.5091" y="-42.4" font-family="sans-serif" font-weight="bold" font-size="14.00" fill="#000000">Legend</text>
<polygon fill="#ffffb3" stroke="transparent" points="504.5,-10 504.5,-30 524.5,-30 524.5,-10 504.5,-10"/>
<text text-anchor="start" x="528.129" y="-15.4" font-family="sans-serif" font-size="14.00" fill="#000000"> &#160;Declarations</text>
<polygon fill="#8dd3c7" stroke="transparent" points="617.5,-10 617.5,-30 637.5,-30 637.5,-10 617.5,-10"/>
<text text-anchor="start" x="641.2251" y="-15.4" font-family="sans-serif" font-size="14.00" fill="#000000"> &#160;Module</text>
<polygon fill="#80b1d3" stroke="transparent" points="703.5,-10 703.5,-30 723.5,-30 723.5,-10 703.5,-10"/>
<text text-anchor="start" x="727.2812" y="-15.4" font-family="sans-serif" font-size="14.00" fill="#000000"> &#160;Bootstrap</text>
<polygon fill="#fdb462" stroke="transparent" points="800.5,-10 800.5,-30 820.5,-30 820.5,-10 800.5,-10"/>
<text text-anchor="start" x="824.1732" y="-15.4" font-family="sans-serif" font-size="14.00" fill="#000000"> &#160;Providers</text>
<polygon fill="#fb8072" stroke="transparent" points="896.5,-10 896.5,-30 916.5,-30 916.5,-10 896.5,-10"/>
<text text-anchor="start" x="920.2258" y="-15.4" font-family="sans-serif" font-size="14.00" fill="#000000"> &#160;Exports</text>
<g id="clust1" class="cluster">
<title>cluster_ListPageModule</title>
<polygon fill="none" stroke="#000000" stroke-dasharray="1,5" points="8,-70 8,-195 1469,-195 1469,-70 8,-70"/>
</g>
<g id="clust2" class="cluster">
<title>cluster_ListPageModule_declarations</title>
<polygon fill="none" stroke="#000000" points="138,-78 138,-130 1461,-130 1461,-78 138,-78"/>
</g>
<g id="clust13" class="cluster">
<title>cluster_ListPageModule_imports</title>
<polygon fill="none" stroke="#000000" points="16,-78 16,-130 130,-130 130,-78 16,-78"/>
</g>
<!-- ListPage -->
<g id="node1" class="node">
<title>ListPage</title>
<polygon fill="#ffffb3" stroke="#000000" points="1453.4902,-122 1388.5098,-122 1388.5098,-86 1453.4902,-86 1453.4902,-122"/>
<text text-anchor="middle" x="1421" y="-99.8" font-family="Times,serif" font-size="14.00" fill="#000000">ListPage</text>
</g>
<!-- ListPageModule -->
<g id="node11" class="node">
<title>ListPageModule</title>
<polygon fill="#8dd3c7" stroke="#000000" points="812.041,-187 809.041,-191 788.041,-191 785.041,-187 703.959,-187 703.959,-151 812.041,-151 812.041,-187"/>
<text text-anchor="middle" x="758" y="-164.8" font-family="Times,serif" font-size="14.00" fill="#000000">ListPageModule</text>
</g>
<!-- ListPage&#45;&gt;ListPageModule -->
<g id="edge1" class="edge">
<title>ListPage&#45;&gt;ListPageModule</title>
<path fill="none" stroke="#000000" d="M1421,-122.0908C1421,-145.1328 1421,-182 1421,-182 1421,-182 822.2561,-182 822.2561,-182"/>
<polygon fill="#000000" stroke="#000000" points="822.2561,-178.5001 812.2561,-182 822.256,-185.5001 822.2561,-178.5001"/>
</g>
<!-- Table1Component -->
<g id="node2" class="node">
<title>Table1Component</title>
<polygon fill="#ffffb3" stroke="#000000" points="1370.205,-122 1249.795,-122 1249.795,-86 1370.205,-86 1370.205,-122"/>
<text text-anchor="middle" x="1310" y="-99.8" font-family="Times,serif" font-size="14.00" fill="#000000">Table1Component</text>
</g>
<!-- Table1Component&#45;&gt;ListPageModule -->
<g id="edge2" class="edge">
<title>Table1Component&#45;&gt;ListPageModule</title>
<path fill="none" stroke="#000000" d="M1310,-122.2843C1310,-143.3211 1310,-175 1310,-175 1310,-175 822.1856,-175 822.1856,-175"/>
<polygon fill="#000000" stroke="#000000" points="822.1857,-171.5001 812.1856,-175 822.1856,-178.5001 822.1857,-171.5001"/>
</g>
<!-- Table2Component -->
<g id="node3" class="node">
<title>Table2Component</title>
<polygon fill="#ffffb3" stroke="#000000" points="1232.205,-122 1111.795,-122 1111.795,-86 1232.205,-86 1232.205,-122"/>
<text text-anchor="middle" x="1172" y="-99.8" font-family="Times,serif" font-size="14.00" fill="#000000">Table2Component</text>
</g>
<!-- Table2Component&#45;&gt;ListPageModule -->
<g id="edge3" class="edge">
<title>Table2Component&#45;&gt;ListPageModule</title>
<path fill="none" stroke="#000000" d="M1172,-122.1061C1172,-141.3391 1172,-169 1172,-169 1172,-169 822.1233,-169 822.1233,-169"/>
<polygon fill="#000000" stroke="#000000" points="822.1233,-165.5001 812.1233,-169 822.1232,-172.5001 822.1233,-165.5001"/>
</g>
<!-- Table3Component -->
<g id="node4" class="node">
<title>Table3Component</title>
<polygon fill="#ffffb3" stroke="#000000" points="1094.205,-122 973.795,-122 973.795,-86 1094.205,-86 1094.205,-122"/>
<text text-anchor="middle" x="1034" y="-99.8" font-family="Times,serif" font-size="14.00" fill="#000000">Table3Component</text>
</g>
<!-- Table3Component&#45;&gt;ListPageModule -->
<g id="edge4" class="edge">
<title>Table3Component&#45;&gt;ListPageModule</title>
<path fill="none" stroke="#000000" d="M1034,-122.0225C1034,-139.3734 1034,-163 1034,-163 1034,-163 822.1994,-163 822.1994,-163"/>
<polygon fill="#000000" stroke="#000000" points="822.1994,-159.5001 812.1994,-163 822.1994,-166.5001 822.1994,-159.5001"/>
</g>
<!-- Table4Component -->
<g id="node5" class="node">
<title>Table4Component</title>
<polygon fill="#ffffb3" stroke="#000000" points="956.205,-122 835.795,-122 835.795,-86 956.205,-86 956.205,-122"/>
<text text-anchor="middle" x="896" y="-99.8" font-family="Times,serif" font-size="14.00" fill="#000000">Table4Component</text>
</g>
<!-- Table4Component&#45;&gt;ListPageModule -->
<g id="edge5" class="edge">
<title>Table4Component&#45;&gt;ListPageModule</title>
<path fill="none" stroke="#000000" d="M896,-122.2396C896,-137.5706 896,-157 896,-157 896,-157 822.1452,-157 822.1452,-157"/>
<polygon fill="#000000" stroke="#000000" points="822.1452,-153.5001 812.1452,-157 822.1451,-160.5001 822.1452,-153.5001"/>
</g>
<!-- Table5Component -->
<g id="node6" class="node">
<title>Table5Component</title>
<polygon fill="#ffffb3" stroke="#000000" points="818.205,-122 697.795,-122 697.795,-86 818.205,-86 818.205,-122"/>
<text text-anchor="middle" x="758" y="-99.8" font-family="Times,serif" font-size="14.00" fill="#000000">Table5Component</text>
</g>
<!-- Table5Component&#45;&gt;ListPageModule -->
<g id="edge6" class="edge">
<title>Table5Component&#45;&gt;ListPageModule</title>
<path fill="none" stroke="#000000" d="M758,-122.1061C758,-122.1061 758,-140.991 758,-140.991"/>
<polygon fill="#000000" stroke="#000000" points="754.5001,-140.9909 758,-150.991 761.5001,-140.991 754.5001,-140.9909"/>
</g>
<!-- Table6Component -->
<g id="node7" class="node">
<title>Table6Component</title>
<polygon fill="#ffffb3" stroke="#000000" points="680.205,-122 559.795,-122 559.795,-86 680.205,-86 680.205,-122"/>
<text text-anchor="middle" x="620" y="-99.8" font-family="Times,serif" font-size="14.00" fill="#000000">Table6Component</text>
</g>
<!-- Table6Component&#45;&gt;ListPageModule -->
<g id="edge7" class="edge">
<title>Table6Component&#45;&gt;ListPageModule</title>
<path fill="none" stroke="#000000" d="M620,-122.2396C620,-137.5706 620,-157 620,-157 620,-157 693.8548,-157 693.8548,-157"/>
<polygon fill="#000000" stroke="#000000" points="693.8549,-160.5001 703.8548,-157 693.8548,-153.5001 693.8549,-160.5001"/>
</g>
<!-- Table7Component -->
<g id="node8" class="node">
<title>Table7Component</title>
<polygon fill="#ffffb3" stroke="#000000" points="542.205,-122 421.795,-122 421.795,-86 542.205,-86 542.205,-122"/>
<text text-anchor="middle" x="482" y="-99.8" font-family="Times,serif" font-size="14.00" fill="#000000">Table7Component</text>
</g>
<!-- Table7Component&#45;&gt;ListPageModule -->
<g id="edge8" class="edge">
<title>Table7Component&#45;&gt;ListPageModule</title>
<path fill="none" stroke="#000000" d="M482,-122.0225C482,-139.3734 482,-163 482,-163 482,-163 693.8006,-163 693.8006,-163"/>
<polygon fill="#000000" stroke="#000000" points="693.8006,-166.5001 703.8006,-163 693.8006,-159.5001 693.8006,-166.5001"/>
</g>
<!-- Table8Component -->
<g id="node9" class="node">
<title>Table8Component</title>
<polygon fill="#ffffb3" stroke="#000000" points="404.205,-122 283.795,-122 283.795,-86 404.205,-86 404.205,-122"/>
<text text-anchor="middle" x="344" y="-99.8" font-family="Times,serif" font-size="14.00" fill="#000000">Table8Component</text>
</g>
<!-- Table8Component&#45;&gt;ListPageModule -->
<g id="edge9" class="edge">
<title>Table8Component&#45;&gt;ListPageModule</title>
<path fill="none" stroke="#000000" d="M344,-122.1061C344,-141.3391 344,-169 344,-169 344,-169 693.8767,-169 693.8767,-169"/>
<polygon fill="#000000" stroke="#000000" points="693.8768,-172.5001 703.8767,-169 693.8767,-165.5001 693.8768,-172.5001"/>
</g>
<!-- Table9Component -->
<g id="node10" class="node">
<title>Table9Component</title>
<polygon fill="#ffffb3" stroke="#000000" points="266.205,-122 145.795,-122 145.795,-86 266.205,-86 266.205,-122"/>
<text text-anchor="middle" x="206" y="-99.8" font-family="Times,serif" font-size="14.00" fill="#000000">Table9Component</text>
</g>
<!-- Table9Component&#45;&gt;ListPageModule -->
<g id="edge10" class="edge">
<title>Table9Component&#45;&gt;ListPageModule</title>
<path fill="none" stroke="#000000" d="M206,-122.2843C206,-143.3211 206,-175 206,-175 206,-175 693.8144,-175 693.8144,-175"/>
<polygon fill="#000000" stroke="#000000" points="693.8144,-178.5001 703.8144,-175 693.8143,-171.5001 693.8144,-178.5001"/>
</g>
<!-- SharedModule -->
<g id="node12" class="node">
<title>SharedModule</title>
<polygon fill="#8dd3c7" stroke="#000000" points="122.4231,-122 119.4231,-126 98.4231,-126 95.4231,-122 23.5769,-122 23.5769,-86 122.4231,-86 122.4231,-122"/>
<text text-anchor="middle" x="73" y="-99.8" font-family="Times,serif" font-size="14.00" fill="#000000">SharedModule</text>
</g>
<!-- SharedModule&#45;&gt;ListPageModule -->
<g id="edge11" class="edge">
<title>SharedModule&#45;&gt;ListPageModule</title>
<path fill="none" stroke="#000000" d="M73,-122.0908C73,-145.1328 73,-182 73,-182 73,-182 693.6766,-182 693.6766,-182"/>
<polygon fill="#000000" stroke="#000000" points="693.6767,-185.5001 703.6766,-182 693.6766,-178.5001 693.6767,-185.5001"/>
</g>
</g>
</svg>
