<?xml version="1.0" encoding="UTF-8" standalone="no"?>
<!DOCTYPE svg PUBLIC "-//W3C//DTD SVG 1.1//EN"
 "http://www.w3.org/Graphics/SVG/1.1/DTD/svg11.dtd">
<!-- Generated by graphviz version 2.40.1 (20161225.0304)
 -->
<!-- Title: dependencies Pages: 1 -->
<svg width="2797pt" height="211pt"
 viewBox="0.00 0.00 2797.00 211.00" xmlns="http://www.w3.org/2000/svg" xmlns:xlink="http://www.w3.org/1999/xlink">
<g id="graph0" class="graph" transform="scale(1 1) rotate(0) translate(4 207)">
<title>dependencies</title>
<polygon fill="#ffffff" stroke="transparent" points="-4,4 -4,-207 2793,-207 2793,4 -4,4"/>
<text text-anchor="start" x="1373.5091" y="-42.4" font-family="sans-serif" font-weight="bold" font-size="14.00" fill="#000000">Legend</text>
<polygon fill="#ffffb3" stroke="transparent" points="1160.5,-10 1160.5,-30 1180.5,-30 1180.5,-10 1160.5,-10"/>
<text text-anchor="start" x="1184.129" y="-15.4" font-family="sans-serif" font-size="14.00" fill="#000000"> &#160;Declarations</text>
<polygon fill="#8dd3c7" stroke="transparent" points="1273.5,-10 1273.5,-30 1293.5,-30 1293.5,-10 1273.5,-10"/>
<text text-anchor="start" x="1297.2251" y="-15.4" font-family="sans-serif" font-size="14.00" fill="#000000"> &#160;Module</text>
<polygon fill="#80b1d3" stroke="transparent" points="1359.5,-10 1359.5,-30 1379.5,-30 1379.5,-10 1359.5,-10"/>
<text text-anchor="start" x="1383.2812" y="-15.4" font-family="sans-serif" font-size="14.00" fill="#000000"> &#160;Bootstrap</text>
<polygon fill="#fdb462" stroke="transparent" points="1456.5,-10 1456.5,-30 1476.5,-30 1476.5,-10 1456.5,-10"/>
<text text-anchor="start" x="1480.1732" y="-15.4" font-family="sans-serif" font-size="14.00" fill="#000000"> &#160;Providers</text>
<polygon fill="#fb8072" stroke="transparent" points="1552.5,-10 1552.5,-30 1572.5,-30 1572.5,-10 1552.5,-10"/>
<text text-anchor="start" x="1576.2258" y="-15.4" font-family="sans-serif" font-size="14.00" fill="#000000"> &#160;Exports</text>
<g id="clust1" class="cluster">
<title>cluster_ListPageModule</title>
<polygon fill="none" stroke="#000000" stroke-dasharray="1,5" points="8,-70 8,-195 2781,-195 2781,-70 8,-70"/>
</g>
<g id="clust2" class="cluster">
<title>cluster_ListPageModule_declarations</title>
<polygon fill="none" stroke="#000000" points="306,-78 306,-130 2773,-130 2773,-78 306,-78"/>
</g>
<g id="clust20" class="cluster">
<title>cluster_ListPageModule_imports</title>
<polygon fill="none" stroke="#000000" points="16,-78 16,-130 298,-130 298,-78 16,-78"/>
</g>
<!-- ListPage -->
<g id="node1" class="node">
<title>ListPage</title>
<polygon fill="#ffffb3" stroke="#000000" points="2765.4902,-122 2700.5098,-122 2700.5098,-86 2765.4902,-86 2765.4902,-122"/>
<text text-anchor="middle" x="2733" y="-99.8" font-family="Times,serif" font-size="14.00" fill="#000000">ListPage</text>
</g>
<!-- ListPageModule -->
<g id="node18" class="node">
<title>ListPageModule</title>
<polygon fill="#8dd3c7" stroke="#000000" points="1463.041,-187 1460.041,-191 1439.041,-191 1436.041,-187 1354.959,-187 1354.959,-151 1463.041,-151 1463.041,-187"/>
<text text-anchor="middle" x="1409" y="-164.8" font-family="Times,serif" font-size="14.00" fill="#000000">ListPageModule</text>
</g>
<!-- ListPage&#45;&gt;ListPageModule -->
<g id="edge1" class="edge">
<title>ListPage&#45;&gt;ListPageModule</title>
<path fill="none" stroke="#000000" d="M2743.8317,-122.1532C2743.8317,-145.7566 2743.8317,-184 2743.8317,-184 2743.8317,-184 1473.3972,-184 1473.3972,-184"/>
<polygon fill="#000000" stroke="#000000" points="1473.3972,-180.5001 1463.3972,-184 1473.3971,-187.5001 1473.3972,-180.5001"/>
</g>
<!-- ListPage&#45;&gt;ListPageModule -->
<g id="edge2" class="edge">
<title>ListPage&#45;&gt;ListPageModule</title>
<path fill="none" stroke="#000000" d="M2722.1683,-122.0109C2722.1683,-144.4852 2722.1683,-180 2722.1683,-180 2722.1683,-180 1473.3389,-180 1473.3389,-180"/>
<polygon fill="#000000" stroke="#000000" points="1473.339,-176.5001 1463.3389,-180 1473.3389,-183.5001 1473.339,-176.5001"/>
</g>
<!-- NflPreComponent -->
<g id="node2" class="node">
<title>NflPreComponent</title>
<polygon fill="#ffffb3" stroke="#000000" points="2682.1485,-122 2563.8515,-122 2563.8515,-86 2682.1485,-86 2682.1485,-122"/>
<text text-anchor="middle" x="2623" y="-99.8" font-family="Times,serif" font-size="14.00" fill="#000000">NflPreComponent</text>
</g>
<!-- NflPreComponent&#45;&gt;ListPageModule -->
<g id="edge3" class="edge">
<title>NflPreComponent&#45;&gt;ListPageModule</title>
<path fill="none" stroke="#000000" d="M2623,-122.0449C2623,-143.6623 2623,-177 2623,-177 2623,-177 1473.1253,-177 1473.1253,-177"/>
<polygon fill="#000000" stroke="#000000" points="1473.1254,-173.5001 1463.1253,-177 1473.1253,-180.5001 1473.1254,-173.5001"/>
</g>
<!-- NflScoreComponent -->
<g id="node3" class="node">
<title>NflScoreComponent</title>
<polygon fill="#ffffb3" stroke="#000000" points="2545.8627,-122 2414.1373,-122 2414.1373,-86 2545.8627,-86 2545.8627,-122"/>
<text text-anchor="middle" x="2480" y="-99.8" font-family="Times,serif" font-size="14.00" fill="#000000">NflScoreComponent</text>
</g>
<!-- NflScoreComponent&#45;&gt;ListPageModule -->
<g id="edge4" class="edge">
<title>NflScoreComponent&#45;&gt;ListPageModule</title>
<path fill="none" stroke="#000000" d="M2480,-122.1289C2480,-142.5724 2480,-173 2480,-173 2480,-173 1473.2137,-173 1473.2137,-173"/>
<polygon fill="#000000" stroke="#000000" points="1473.2137,-169.5001 1463.2137,-173 1473.2137,-176.5001 1473.2137,-169.5001"/>
</g>
<!-- NflWeekComponent -->
<g id="node4" class="node">
<title>NflWeekComponent</title>
<polygon fill="#ffffb3" stroke="#000000" points="2396.1345,-122 2263.8655,-122 2263.8655,-86 2396.1345,-86 2396.1345,-122"/>
<text text-anchor="middle" x="2330" y="-99.8" font-family="Times,serif" font-size="14.00" fill="#000000">NflWeekComponent</text>
</g>
<!-- NflWeekComponent&#45;&gt;ListPageModule -->
<g id="edge5" class="edge">
<title>NflWeekComponent&#45;&gt;ListPageModule</title>
<path fill="none" stroke="#000000" d="M2330,-122.1061C2330,-141.3391 2330,-169 2330,-169 2330,-169 1473.1743,-169 1473.1743,-169"/>
<polygon fill="#000000" stroke="#000000" points="1473.1743,-165.5001 1463.1743,-169 1473.1743,-172.5001 1473.1743,-165.5001"/>
</g>
<!-- PgaStatsComponent -->
<g id="node5" class="node">
<title>PgaStatsComponent</title>
<polygon fill="#ffffb3" stroke="#000000" points="2245.5534,-122 2116.4466,-122 2116.4466,-86 2245.5534,-86 2245.5534,-122"/>
<text text-anchor="middle" x="2181" y="-99.8" font-family="Times,serif" font-size="14.00" fill="#000000">PgaStatsComponent</text>
</g>
<!-- PgaStatsComponent&#45;&gt;ListPageModule -->
<g id="edge6" class="edge">
<title>PgaStatsComponent&#45;&gt;ListPageModule</title>
<path fill="none" stroke="#000000" d="M2181,-122.2667C2181,-140.5552 2181,-166 2181,-166 2181,-166 1473.2855,-166 1473.2855,-166"/>
<polygon fill="#000000" stroke="#000000" points="1473.2856,-162.5001 1463.2855,-166 1473.2855,-169.5001 1473.2856,-162.5001"/>
</g>
<!-- PgaThisWeekComponent -->
<g id="node6" class="node">
<title>PgaThisWeekComponent</title>
<polygon fill="#ffffb3" stroke="#000000" points="2097.8613,-122 1938.1387,-122 1938.1387,-86 2097.8613,-86 2097.8613,-122"/>
<text text-anchor="middle" x="2018" y="-99.8" font-family="Times,serif" font-size="14.00" fill="#000000">PgaThisWeekComponent</text>
</g>
<!-- PgaThisWeekComponent&#45;&gt;ListPageModule -->
<g id="edge7" class="edge">
<title>PgaThisWeekComponent&#45;&gt;ListPageModule</title>
<path fill="none" stroke="#000000" d="M2018,-122.0336C2018,-139.0597 2018,-162 2018,-162 2018,-162 1473.0447,-162 1473.0447,-162"/>
<polygon fill="#000000" stroke="#000000" points="1473.0447,-158.5001 1463.0447,-162 1473.0447,-165.5001 1473.0447,-158.5001"/>
</g>
<!-- PowerRankingsComponent -->
<g id="node7" class="node">
<title>PowerRankingsComponent</title>
<polygon fill="#ffffb3" stroke="#000000" points="1919.9832,-122 1750.0168,-122 1750.0168,-86 1919.9832,-86 1919.9832,-122"/>
<text text-anchor="middle" x="1835" y="-99.8" font-family="Times,serif" font-size="14.00" fill="#000000">PowerRankingsComponent</text>
</g>
<!-- PowerRankingsComponent&#45;&gt;ListPageModule -->
<g id="edge8" class="edge">
<title>PowerRankingsComponent&#45;&gt;ListPageModule</title>
<path fill="none" stroke="#000000" d="M1835,-122.0091C1835,-138.0494 1835,-159 1835,-159 1835,-159 1473.3859,-159 1473.3859,-159"/>
<polygon fill="#000000" stroke="#000000" points="1473.3859,-155.5001 1463.3859,-159 1473.3859,-162.5001 1473.3859,-155.5001"/>
</g>
<!-- ScorePredictionsComponent -->
<g id="node8" class="node">
<title>ScorePredictionsComponent</title>
<polygon fill="#ffffb3" stroke="#000000" points="1732.1937,-122 1555.8063,-122 1555.8063,-86 1732.1937,-86 1732.1937,-122"/>
<text text-anchor="middle" x="1644" y="-99.8" font-family="Times,serif" font-size="14.00" fill="#000000">ScorePredictionsComponent</text>
</g>
<!-- ScorePredictionsComponent&#45;&gt;ListPageModule -->
<g id="edge9" class="edge">
<title>ScorePredictionsComponent&#45;&gt;ListPageModule</title>
<path fill="none" stroke="#000000" d="M1644,-122.1243C1644,-136.7832 1644,-155 1644,-155 1644,-155 1473.2088,-155 1473.2088,-155"/>
<polygon fill="#000000" stroke="#000000" points="1473.2089,-151.5001 1463.2088,-155 1473.2088,-158.5001 1473.2089,-151.5001"/>
</g>
<!-- Table1Component -->
<g id="node9" class="node">
<title>Table1Component</title>
<polygon fill="#ffffb3" stroke="#000000" points="1538.205,-122 1417.795,-122 1417.795,-86 1538.205,-86 1538.205,-122"/>
<text text-anchor="middle" x="1478" y="-99.8" font-family="Times,serif" font-size="14.00" fill="#000000">Table1Component</text>
</g>
<!-- Table1Component&#45;&gt;ListPageModule -->
<g id="edge10" class="edge">
<title>Table1Component&#45;&gt;ListPageModule</title>
<path fill="none" stroke="#000000" d="M1440.5838,-122.1061C1440.5838,-122.1061 1440.5838,-140.991 1440.5838,-140.991"/>
<polygon fill="#000000" stroke="#000000" points="1437.0839,-140.9909 1440.5838,-150.991 1444.0839,-140.991 1437.0839,-140.9909"/>
</g>
<!-- Table2Component -->
<g id="node10" class="node">
<title>Table2Component</title>
<polygon fill="#ffffb3" stroke="#000000" points="1400.205,-122 1279.795,-122 1279.795,-86 1400.205,-86 1400.205,-122"/>
<text text-anchor="middle" x="1340" y="-99.8" font-family="Times,serif" font-size="14.00" fill="#000000">Table2Component</text>
</g>
<!-- Table2Component&#45;&gt;ListPageModule -->
<g id="edge11" class="edge">
<title>Table2Component&#45;&gt;ListPageModule</title>
<path fill="none" stroke="#000000" d="M1377.4162,-122.1061C1377.4162,-122.1061 1377.4162,-140.991 1377.4162,-140.991"/>
<polygon fill="#000000" stroke="#000000" points="1373.9163,-140.9909 1377.4162,-150.991 1380.9163,-140.991 1373.9163,-140.9909"/>
</g>
<!-- Table3Component -->
<g id="node11" class="node">
<title>Table3Component</title>
<polygon fill="#ffffb3" stroke="#000000" points="1262.205,-122 1141.795,-122 1141.795,-86 1262.205,-86 1262.205,-122"/>
<text text-anchor="middle" x="1202" y="-99.8" font-family="Times,serif" font-size="14.00" fill="#000000">Table3Component</text>
</g>
<!-- Table3Component&#45;&gt;ListPageModule -->
<g id="edge12" class="edge">
<title>Table3Component&#45;&gt;ListPageModule</title>
<path fill="none" stroke="#000000" d="M1202,-122.1243C1202,-136.7832 1202,-155 1202,-155 1202,-155 1344.8836,-155 1344.8836,-155"/>
<polygon fill="#000000" stroke="#000000" points="1344.8836,-158.5001 1354.8836,-155 1344.8835,-151.5001 1344.8836,-158.5001"/>
</g>
<!-- Table4Component -->
<g id="node12" class="node">
<title>Table4Component</title>
<polygon fill="#ffffb3" stroke="#000000" points="1124.205,-122 1003.795,-122 1003.795,-86 1124.205,-86 1124.205,-122"/>
<text text-anchor="middle" x="1064" y="-99.8" font-family="Times,serif" font-size="14.00" fill="#000000">Table4Component</text>
</g>
<!-- Table4Component&#45;&gt;ListPageModule -->
<g id="edge13" class="edge">
<title>Table4Component&#45;&gt;ListPageModule</title>
<path fill="none" stroke="#000000" d="M1064,-122.0091C1064,-138.0494 1064,-159 1064,-159 1064,-159 1344.7142,-159 1344.7142,-159"/>
<polygon fill="#000000" stroke="#000000" points="1344.7143,-162.5001 1354.7142,-159 1344.7142,-155.5001 1344.7143,-162.5001"/>
</g>
<!-- Table5Component -->
<g id="node13" class="node">
<title>Table5Component</title>
<polygon fill="#ffffb3" stroke="#000000" points="986.205,-122 865.795,-122 865.795,-86 986.205,-86 986.205,-122"/>
<text text-anchor="middle" x="926" y="-99.8" font-family="Times,serif" font-size="14.00" fill="#000000">Table5Component</text>
</g>
<!-- Table5Component&#45;&gt;ListPageModule -->
<g id="edge14" class="edge">
<title>Table5Component&#45;&gt;ListPageModule</title>
<path fill="none" stroke="#000000" d="M926,-122.0336C926,-139.0597 926,-162 926,-162 926,-162 1344.5326,-162 1344.5326,-162"/>
<polygon fill="#000000" stroke="#000000" points="1344.5327,-165.5001 1354.5326,-162 1344.5326,-158.5001 1344.5327,-165.5001"/>
</g>
<!-- Table6Component -->
<g id="node14" class="node">
<title>Table6Component</title>
<polygon fill="#ffffb3" stroke="#000000" points="848.205,-122 727.795,-122 727.795,-86 848.205,-86 848.205,-122"/>
<text text-anchor="middle" x="788" y="-99.8" font-family="Times,serif" font-size="14.00" fill="#000000">Table6Component</text>
</g>
<!-- Table6Component&#45;&gt;ListPageModule -->
<g id="edge15" class="edge">
<title>Table6Component&#45;&gt;ListPageModule</title>
<path fill="none" stroke="#000000" d="M788,-122.2667C788,-140.5552 788,-166 788,-166 788,-166 1344.7059,-166 1344.7059,-166"/>
<polygon fill="#000000" stroke="#000000" points="1344.706,-169.5001 1354.7059,-166 1344.7059,-162.5001 1344.706,-169.5001"/>
</g>
<!-- Table7Component -->
<g id="node15" class="node">
<title>Table7Component</title>
<polygon fill="#ffffb3" stroke="#000000" points="710.205,-122 589.795,-122 589.795,-86 710.205,-86 710.205,-122"/>
<text text-anchor="middle" x="650" y="-99.8" font-family="Times,serif" font-size="14.00" fill="#000000">Table7Component</text>
</g>
<!-- Table7Component&#45;&gt;ListPageModule -->
<g id="edge16" class="edge">
<title>Table7Component&#45;&gt;ListPageModule</title>
<path fill="none" stroke="#000000" d="M650,-122.1061C650,-141.3391 650,-169 650,-169 650,-169 1344.7192,-169 1344.7192,-169"/>
<polygon fill="#000000" stroke="#000000" points="1344.7192,-172.5001 1354.7192,-169 1344.7192,-165.5001 1344.7192,-172.5001"/>
</g>
<!-- Table8Component -->
<g id="node16" class="node">
<title>Table8Component</title>
<polygon fill="#ffffb3" stroke="#000000" points="572.205,-122 451.795,-122 451.795,-86 572.205,-86 572.205,-122"/>
<text text-anchor="middle" x="512" y="-99.8" font-family="Times,serif" font-size="14.00" fill="#000000">Table8Component</text>
</g>
<!-- Table8Component&#45;&gt;ListPageModule -->
<g id="edge17" class="edge">
<title>Table8Component&#45;&gt;ListPageModule</title>
<path fill="none" stroke="#000000" d="M512,-122.1289C512,-142.5724 512,-173 512,-173 512,-173 1344.9087,-173 1344.9087,-173"/>
<polygon fill="#000000" stroke="#000000" points="1344.9087,-176.5001 1354.9087,-173 1344.9086,-169.5001 1344.9087,-176.5001"/>
</g>
<!-- Table9Component -->
<g id="node17" class="node">
<title>Table9Component</title>
<polygon fill="#ffffb3" stroke="#000000" points="434.205,-122 313.795,-122 313.795,-86 434.205,-86 434.205,-122"/>
<text text-anchor="middle" x="374" y="-99.8" font-family="Times,serif" font-size="14.00" fill="#000000">Table9Component</text>
</g>
<!-- Table9Component&#45;&gt;ListPageModule -->
<g id="edge18" class="edge">
<title>Table9Component&#45;&gt;ListPageModule</title>
<path fill="none" stroke="#000000" d="M374,-122.0449C374,-143.6623 374,-177 374,-177 374,-177 1344.8111,-177 1344.8111,-177"/>
<polygon fill="#000000" stroke="#000000" points="1344.8112,-180.5001 1354.8111,-177 1344.8111,-173.5001 1344.8112,-180.5001"/>
</g>
<!-- ListAppRoutingModule -->
<g id="node19" class="node">
<title>ListAppRoutingModule</title>
<polygon fill="#8dd3c7" stroke="#000000" points="290.0533,-122 287.0533,-126 266.0533,-126 263.0533,-122 139.9467,-122 139.9467,-86 290.0533,-86 290.0533,-122"/>
<text text-anchor="middle" x="215" y="-99.8" font-family="Times,serif" font-size="14.00" fill="#000000">ListAppRoutingModule</text>
</g>
<!-- ListAppRoutingModule&#45;&gt;ListPageModule -->
<g id="edge19" class="edge">
<title>ListAppRoutingModule&#45;&gt;ListPageModule</title>
<path fill="none" stroke="#000000" d="M215,-122.0109C215,-144.4852 215,-180 215,-180 215,-180 1344.5937,-180 1344.5937,-180"/>
<polygon fill="#000000" stroke="#000000" points="1344.5937,-183.5001 1354.5937,-180 1344.5936,-176.5001 1344.5937,-183.5001"/>
</g>
<!-- SharedModule -->
<g id="node20" class="node">
<title>SharedModule</title>
<polygon fill="#8dd3c7" stroke="#000000" points="122.4231,-122 119.4231,-126 98.4231,-126 95.4231,-122 23.5769,-122 23.5769,-86 122.4231,-86 122.4231,-122"/>
<text text-anchor="middle" x="73" y="-99.8" font-family="Times,serif" font-size="14.00" fill="#000000">SharedModule</text>
</g>
<!-- SharedModule&#45;&gt;ListPageModule -->
<g id="edge20" class="edge">
<title>SharedModule&#45;&gt;ListPageModule</title>
<path fill="none" stroke="#000000" d="M73,-122.1532C73,-145.7566 73,-184 73,-184 73,-184 1344.5552,-184 1344.5552,-184"/>
<polygon fill="#000000" stroke="#000000" points="1344.5553,-187.5001 1354.5552,-184 1344.5552,-180.5001 1344.5553,-187.5001"/>
</g>
</g>
</svg>
