<?xml version="1.0" encoding="UTF-8" standalone="no"?>
<!DOCTYPE svg PUBLIC "-//W3C//DTD SVG 1.1//EN"
 "http://www.w3.org/Graphics/SVG/1.1/DTD/svg11.dtd">
<!-- Generated by graphviz version 2.40.1 (20161225.0304)
 -->
<!-- Title: dependencies Pages: 1 -->
<svg width="815pt" height="211pt"
 viewBox="0.00 0.00 815.00 211.00" xmlns="http://www.w3.org/2000/svg" xmlns:xlink="http://www.w3.org/1999/xlink">
<g id="graph0" class="graph" transform="scale(1 1) rotate(0) translate(4 207)">
<title>dependencies</title>
<polygon fill="#ffffff" stroke="transparent" points="-4,4 -4,-207 811,-207 811,4 -4,4"/>
<text text-anchor="start" x="382.5091" y="-42.4" font-family="sans-serif" font-weight="bold" font-size="14.00" fill="#000000">Legend</text>
<polygon fill="#ffffb3" stroke="transparent" points="169.5,-10 169.5,-30 189.5,-30 189.5,-10 169.5,-10"/>
<text text-anchor="start" x="193.129" y="-15.4" font-family="sans-serif" font-size="14.00" fill="#000000"> &#160;Declarations</text>
<polygon fill="#8dd3c7" stroke="transparent" points="282.5,-10 282.5,-30 302.5,-30 302.5,-10 282.5,-10"/>
<text text-anchor="start" x="306.2251" y="-15.4" font-family="sans-serif" font-size="14.00" fill="#000000"> &#160;Module</text>
<polygon fill="#80b1d3" stroke="transparent" points="368.5,-10 368.5,-30 388.5,-30 388.5,-10 368.5,-10"/>
<text text-anchor="start" x="392.2812" y="-15.4" font-family="sans-serif" font-size="14.00" fill="#000000"> &#160;Bootstrap</text>
<polygon fill="#fdb462" stroke="transparent" points="465.5,-10 465.5,-30 485.5,-30 485.5,-10 465.5,-10"/>
<text text-anchor="start" x="489.1732" y="-15.4" font-family="sans-serif" font-size="14.00" fill="#000000"> &#160;Providers</text>
<polygon fill="#fb8072" stroke="transparent" points="561.5,-10 561.5,-30 581.5,-30 581.5,-10 561.5,-10"/>
<text text-anchor="start" x="585.2258" y="-15.4" font-family="sans-serif" font-size="14.00" fill="#000000"> &#160;Exports</text>
<g id="clust1" class="cluster">
<title>cluster_ProfilePageModule</title>
<polygon fill="none" stroke="#000000" stroke-dasharray="1,5" points="8,-70 8,-195 799,-195 799,-70 8,-70"/>
</g>
<g id="clust2" class="cluster">
<title>cluster_ProfilePageModule_declarations</title>
<polygon fill="none" stroke="#000000" points="338,-78 338,-130 791,-130 791,-78 338,-78"/>
</g>
<g id="clust6" class="cluster">
<title>cluster_ProfilePageModule_imports</title>
<polygon fill="none" stroke="#000000" points="16,-78 16,-130 330,-130 330,-78 16,-78"/>
</g>
<!-- CancelSubscriptionComponent -->
<g id="node1" class="node">
<title>CancelSubscriptionComponent</title>
<polygon fill="#ffffb3" stroke="#000000" points="783.4776,-122 592.5224,-122 592.5224,-86 783.4776,-86 783.4776,-122"/>
<text text-anchor="middle" x="688" y="-99.8" font-family="Times,serif" font-size="14.00" fill="#000000">CancelSubscriptionComponent</text>
</g>
<!-- ProfilePageModule -->
<g id="node4" class="node">
<title>ProfilePageModule</title>
<polygon fill="#8dd3c7" stroke="#000000" points="449.3613,-187 446.3613,-191 425.3613,-191 422.3613,-187 324.6387,-187 324.6387,-151 449.3613,-151 449.3613,-187"/>
<text text-anchor="middle" x="387" y="-164.8" font-family="Times,serif" font-size="14.00" fill="#000000">ProfilePageModule</text>
</g>
<!-- CancelSubscriptionComponent&#45;&gt;ProfilePageModule -->
<g id="edge1" class="edge">
<title>CancelSubscriptionComponent&#45;&gt;ProfilePageModule</title>
<path fill="none" stroke="#000000" d="M688,-122.1061C688,-141.3391 688,-169 688,-169 688,-169 459.3674,-169 459.3674,-169"/>
<polygon fill="#000000" stroke="#000000" points="459.3674,-165.5001 449.3674,-169 459.3674,-172.5001 459.3674,-165.5001"/>
</g>
<!-- InvoicesComponent -->
<g id="node2" class="node">
<title>InvoicesComponent</title>
<polygon fill="#ffffb3" stroke="#000000" points="574.2576,-122 445.7424,-122 445.7424,-86 574.2576,-86 574.2576,-122"/>
<text text-anchor="middle" x="510" y="-99.8" font-family="Times,serif" font-size="14.00" fill="#000000">InvoicesComponent</text>
</g>
<!-- InvoicesComponent&#45;&gt;ProfilePageModule -->
<g id="edge2" class="edge">
<title>InvoicesComponent&#45;&gt;ProfilePageModule</title>
<path fill="none" stroke="#000000" d="M445.6341,-104C440.149,-104 436.6385,-104 436.6385,-104 436.6385,-104 436.6385,-140.8939 436.6385,-140.8939"/>
<polygon fill="#000000" stroke="#000000" points="433.1386,-140.8938 436.6385,-150.8939 440.1386,-140.8939 433.1386,-140.8938"/>
</g>
<!-- ProfilePage -->
<g id="node3" class="node">
<title>ProfilePage</title>
<polygon fill="#ffffb3" stroke="#000000" points="427.812,-122 346.188,-122 346.188,-86 427.812,-86 427.812,-122"/>
<text text-anchor="middle" x="387" y="-99.8" font-family="Times,serif" font-size="14.00" fill="#000000">ProfilePage</text>
</g>
<!-- ProfilePage&#45;&gt;ProfilePageModule -->
<g id="edge3" class="edge">
<title>ProfilePage&#45;&gt;ProfilePageModule</title>
<path fill="none" stroke="#000000" d="M387,-122.1061C387,-122.1061 387,-140.991 387,-140.991"/>
<polygon fill="#000000" stroke="#000000" points="383.5001,-140.9909 387,-150.991 390.5001,-140.991 383.5001,-140.9909"/>
</g>
<!-- SharedModule -->
<g id="node5" class="node">
<title>SharedModule</title>
<polygon fill="#8dd3c7" stroke="#000000" points="322.4231,-122 319.4231,-126 298.4231,-126 295.4231,-122 223.5769,-122 223.5769,-86 322.4231,-86 322.4231,-122"/>
<text text-anchor="middle" x="273" y="-99.8" font-family="Times,serif" font-size="14.00" fill="#000000">SharedModule</text>
</g>
<!-- SharedModule&#45;&gt;ProfilePageModule -->
<g id="edge4" class="edge">
<title>SharedModule&#45;&gt;ProfilePageModule</title>
<path fill="none" stroke="#000000" d="M322.2114,-104C329.9522,-104 335.4568,-104 335.4568,-104 335.4568,-104 335.4568,-140.8939 335.4568,-140.8939"/>
<polygon fill="#000000" stroke="#000000" points="331.9569,-140.8938 335.4568,-150.8939 338.9569,-140.8939 331.9569,-140.8938"/>
</g>
<!-- SportsCategoriesPageModule -->
<g id="node6" class="node">
<title>SportsCategoriesPageModule</title>
<polygon fill="#8dd3c7" stroke="#000000" points="206.4073,-122 203.4073,-126 182.4073,-126 179.4073,-122 23.5927,-122 23.5927,-86 206.4073,-86 206.4073,-122"/>
<text text-anchor="middle" x="115" y="-99.8" font-family="Times,serif" font-size="14.00" fill="#000000">SportsCategoriesPageModule</text>
</g>
<!-- SportsCategoriesPageModule&#45;&gt;ProfilePageModule -->
<g id="edge5" class="edge">
<title>SportsCategoriesPageModule&#45;&gt;ProfilePageModule</title>
<path fill="none" stroke="#000000" d="M115,-122.1061C115,-141.3391 115,-169 115,-169 115,-169 314.5977,-169 314.5977,-169"/>
<polygon fill="#000000" stroke="#000000" points="314.5977,-172.5001 324.5977,-169 314.5977,-165.5001 314.5977,-172.5001"/>
</g>
</g>
</svg>
