<svg width="512" height="512" xmlns="http://www.w3.org/2000/svg"><g fill="none" fill-rule="evenodd"><path d="M345.36 155.277c-4.98-6.975-2.996-10.675.476-11.166 2.408-.34 5.287.02 6.784.02 2.644 0 7.698.33 7.273-4.84-.488-5.81-1.695-11.39-3.154-18.17-1.45-6.78-1.94-6.3-11.15-6.3 0 0-1.69-.24-15.75.73-14.05.97-25.19 2.91-25.68 21.81-.48 18.908 3.88 25.21 11.63 37.32 7.74 12.12 31.002 49.438 31.002 83.36 0 62.36-54.75 89.18-91.568 89.18-36.826 0-91.577-26.82-91.577-89.174 0-33.93 23.254-71.244 31.01-83.363 7.752-12.114 12.11-18.415 11.632-37.32-.49-18.9-11.636-20.834-25.68-21.804-14.057-.97-15.75-.73-15.75-.73-9.21 0-9.69-.48-11.15 6.3-1.45 6.784-2.66 12.36-3.145 18.173-.43 5.17 4.633 4.846 7.27 4.846 1.5 0 4.38-.36 6.785-.02 3.47.493 5.455 4.19.476 11.166-20.02 28.044-41.173 62.746-41.173 104.196 0 68.335 58.626 136.183 131.3 136.183 72.68 0 131.294-67.85 131.294-136.19 0-41.45-21.15-76.15-41.17-104.195zm-19.627 4.912c-2.178 0-3.942-1.77-3.942-3.95s1.77-3.94 3.95-3.94c2.17 0 3.94 1.76 3.94 3.94 0 2.18-1.77 3.94-3.94 3.94zm-140.99-7.89c2.175 0 3.94 1.76 3.94 3.94 0 2.17-1.765 3.94-3.94 3.94-2.17 0-3.938-1.77-3.938-3.95s1.767-3.94 3.94-3.94zM145.5 252.75a3.94 3.94 0 010-7.88 3.937 3.937 0 013.94 3.943 3.937 3.937 0 01-3.94 3.94zm19.383 78.03c-2.172 0-3.94-1.77-3.94-3.942s1.765-3.94 3.94-3.94a3.94 3.94 0 013.938 3.94 3.94 3.94 0 01-3.93 3.944zm90.36 44.587a3.944 3.944 0 01-3.938-3.95 3.936 3.936 0 117.871 0 3.936 3.936 0 01-3.935 3.943zm90.354-44.59c-2.177 0-3.938-1.77-3.938-3.946s1.76-3.94 3.93-3.94 3.94 1.77 3.94 3.94a3.95 3.95 0 01-3.94 3.95zm19.386-78.03a3.943 3.943 0 110-7.884 3.948 3.948 0 013.94 3.943 3.948 3.948 0 01-3.94 3.94z" fill="#002C5F"/><path d="M325.734 152.306a3.94 3.94 0 110 7.88 3.94 3.94 0 010-7.88m-140.99-.002a3.94 3.94 0 013.94 3.942 3.94 3.94 0 01-3.94 3.943c-2.176 0-3.94-1.77-3.94-3.95s1.764-3.94 3.94-3.94m-43.184 96.513c0-2.174 1.77-3.94 3.938-3.94a3.937 3.937 0 013.94 3.94 3.936 3.936 0 01-3.94 3.944 3.946 3.946 0 01-3.938-3.944m23.32 74.091a3.939 3.939 0 013.94 3.94 3.939 3.939 0 11-7.876 0c0-2.176 1.76-3.94 3.937-3.94m90.359 44.587a3.94 3.94 0 11.001 7.879 3.94 3.94 0 01-.001-7.879m90.354-44.59a3.94 3.94 0 11.001 7.879 3.94 3.94 0 01-.001-7.879m15.441-74.088a3.943 3.943 0 017.885 0 3.942 3.942 0 11-7.885 0" fill="#FFF"/></g></svg>