<?xml version="1.0" encoding="UTF-8" standalone="no"?>
<!DOCTYPE svg PUBLIC "-//W3C//DTD SVG 1.1//EN"
 "http://www.w3.org/Graphics/SVG/1.1/DTD/svg11.dtd">
<!-- Generated by graphviz version 2.40.1 (20161225.0304)
 -->
<!-- Title: dependencies Pages: 1 -->
<svg width="2387pt" height="284pt"
 viewBox="0.00 0.00 2387.00 284.00" xmlns="http://www.w3.org/2000/svg" xmlns:xlink="http://www.w3.org/1999/xlink">
<g id="graph0" class="graph" transform="scale(1 1) rotate(0) translate(4 280)">
<title>dependencies</title>
<polygon fill="#ffffff" stroke="transparent" points="-4,4 -4,-280 2383,-280 2383,4 -4,4"/>
<text text-anchor="start" x="1168.5091" y="-42.4" font-family="sans-serif" font-weight="bold" font-size="14.00" fill="#000000">Legend</text>
<polygon fill="#ffffb3" stroke="transparent" points="955.5,-10 955.5,-30 975.5,-30 975.5,-10 955.5,-10"/>
<text text-anchor="start" x="979.129" y="-15.4" font-family="sans-serif" font-size="14.00" fill="#000000"> &#160;Declarations</text>
<polygon fill="#8dd3c7" stroke="transparent" points="1068.5,-10 1068.5,-30 1088.5,-30 1088.5,-10 1068.5,-10"/>
<text text-anchor="start" x="1092.2251" y="-15.4" font-family="sans-serif" font-size="14.00" fill="#000000"> &#160;Module</text>
<polygon fill="#80b1d3" stroke="transparent" points="1154.5,-10 1154.5,-30 1174.5,-30 1174.5,-10 1154.5,-10"/>
<text text-anchor="start" x="1178.2812" y="-15.4" font-family="sans-serif" font-size="14.00" fill="#000000"> &#160;Bootstrap</text>
<polygon fill="#fdb462" stroke="transparent" points="1251.5,-10 1251.5,-30 1271.5,-30 1271.5,-10 1251.5,-10"/>
<text text-anchor="start" x="1275.1732" y="-15.4" font-family="sans-serif" font-size="14.00" fill="#000000"> &#160;Providers</text>
<polygon fill="#fb8072" stroke="transparent" points="1347.5,-10 1347.5,-30 1367.5,-30 1367.5,-10 1347.5,-10"/>
<text text-anchor="start" x="1371.2258" y="-15.4" font-family="sans-serif" font-size="14.00" fill="#000000"> &#160;Exports</text>
<g id="clust1" class="cluster">
<title>cluster_AppModule</title>
<polygon fill="none" stroke="#000000" stroke-dasharray="1,5" points="8,-70 8,-268 2371,-268 2371,-70 8,-70"/>
</g>
<g id="clust2" class="cluster">
<title>cluster_AppModule_declarations</title>
<polygon fill="none" stroke="#000000" points="833,-78 833,-130 2363,-130 2363,-78 833,-78"/>
</g>
<g id="clust12" class="cluster">
<title>cluster_AppModule_imports</title>
<polygon fill="none" stroke="#000000" points="388,-78 388,-130 825,-130 825,-78 388,-78"/>
</g>
<g id="clust13" class="cluster">
<title>cluster_AppModule_exports</title>
<polygon fill="none" stroke="#000000" points="1158,-208 1158,-260 1276,-260 1276,-208 1158,-208"/>
</g>
<g id="clust14" class="cluster">
<title>cluster_AppModule_bootstrap</title>
<polygon fill="none" stroke="#000000" points="1284,-208 1284,-260 1408,-260 1408,-208 1284,-208"/>
</g>
<g id="clust15" class="cluster">
<title>cluster_AppModule_providers</title>
<polygon fill="none" stroke="#000000" points="16,-78 16,-130 380,-130 380,-78 16,-78"/>
</g>
<!-- AppComponent -->
<g id="node1" class="node">
<title>AppComponent</title>
<polygon fill="#ffffb3" stroke="#000000" points="2354.9399,-122 2249.0601,-122 2249.0601,-86 2354.9399,-86 2354.9399,-122"/>
<text text-anchor="middle" x="2302" y="-99.8" font-family="Times,serif" font-size="14.00" fill="#000000">AppComponent</text>
</g>
<!-- AppModule -->
<g id="node10" class="node">
<title>AppModule</title>
<polygon fill="#8dd3c7" stroke="#000000" points="1322.6571,-187 1319.6571,-191 1298.6571,-191 1295.6571,-187 1239.3429,-187 1239.3429,-151 1322.6571,-151 1322.6571,-187"/>
<text text-anchor="middle" x="1281" y="-164.8" font-family="Times,serif" font-size="14.00" fill="#000000">AppModule</text>
</g>
<!-- AppComponent&#45;&gt;AppModule -->
<g id="edge1" class="edge">
<title>AppComponent&#45;&gt;AppModule</title>
<path fill="none" stroke="#000000" d="M2302,-122.3228C2302,-145.6602 2302,-183 2302,-183 2302,-183 1332.9279,-183 1332.9279,-183"/>
<polygon fill="#000000" stroke="#000000" points="1332.9279,-179.5001 1322.9279,-183 1332.9278,-186.5001 1332.9279,-179.5001"/>
</g>
<!-- ForgotPasswordComponent -->
<g id="node2" class="node">
<title>ForgotPasswordComponent</title>
<polygon fill="#ffffb3" stroke="#000000" points="2231.3201,-122 2058.6799,-122 2058.6799,-86 2231.3201,-86 2231.3201,-122"/>
<text text-anchor="middle" x="2145" y="-99.8" font-family="Times,serif" font-size="14.00" fill="#000000">ForgotPasswordComponent</text>
</g>
<!-- ForgotPasswordComponent&#45;&gt;AppModule -->
<g id="edge2" class="edge">
<title>ForgotPasswordComponent&#45;&gt;AppModule</title>
<path fill="none" stroke="#000000" d="M2145,-122.2921C2145,-144.2057 2145,-178 2145,-178 2145,-178 1332.6725,-178 1332.6725,-178"/>
<polygon fill="#000000" stroke="#000000" points="1332.6726,-174.5001 1322.6725,-178 1332.6725,-181.5001 1332.6726,-174.5001"/>
</g>
<!-- LaunchPageComponent -->
<g id="node3" class="node">
<title>LaunchPageComponent</title>
<polygon fill="#ffffb3" stroke="#000000" points="2041.0267,-122 1890.9733,-122 1890.9733,-86 2041.0267,-86 2041.0267,-122"/>
<text text-anchor="middle" x="1966" y="-99.8" font-family="Times,serif" font-size="14.00" fill="#000000">LaunchPageComponent</text>
</g>
<!-- LaunchPageComponent&#45;&gt;AppModule -->
<g id="edge3" class="edge">
<title>LaunchPageComponent&#45;&gt;AppModule</title>
<path fill="none" stroke="#000000" d="M1966,-122.0267C1966,-142.7672 1966,-174 1966,-174 1966,-174 1332.8187,-174 1332.8187,-174"/>
<polygon fill="#000000" stroke="#000000" points="1332.8187,-170.5001 1322.8187,-174 1332.8186,-177.5001 1332.8187,-170.5001"/>
</g>
<!-- LoadingSpinnerComponent -->
<g id="node4" class="node">
<title>LoadingSpinnerComponent</title>
<polygon fill="#ffffb3" stroke="#000000" points="1872.5392,-122 1701.4608,-122 1701.4608,-86 1872.5392,-86 1872.5392,-122"/>
<text text-anchor="middle" x="1787" y="-99.8" font-family="Times,serif" font-size="14.00" fill="#000000">LoadingSpinnerComponent</text>
</g>
<!-- LoadingSpinnerComponent&#45;&gt;AppModule -->
<g id="edge4" class="edge">
<title>LoadingSpinnerComponent&#45;&gt;AppModule</title>
<path fill="none" stroke="#000000" d="M1787,-122.1061C1787,-141.3391 1787,-169 1787,-169 1787,-169 1332.8386,-169 1332.8386,-169"/>
<polygon fill="#000000" stroke="#000000" points="1332.8386,-165.5001 1322.8386,-169 1332.8386,-172.5001 1332.8386,-165.5001"/>
</g>
<!-- MembershipsComponent -->
<g id="node5" class="node">
<title>MembershipsComponent</title>
<polygon fill="#ffffb3" stroke="#000000" points="1682.5379,-122 1525.4621,-122 1525.4621,-86 1682.5379,-86 1682.5379,-122"/>
<text text-anchor="middle" x="1604" y="-99.8" font-family="Times,serif" font-size="14.00" fill="#000000">MembershipsComponent</text>
</g>
<!-- MembershipsComponent&#45;&gt;AppModule -->
<g id="edge5" class="edge">
<title>MembershipsComponent&#45;&gt;AppModule</title>
<path fill="none" stroke="#000000" d="M1577.7438,-122.027C1577.7438,-138.3976 1577.7438,-160 1577.7438,-160 1577.7438,-160 1332.8868,-160 1332.8868,-160"/>
<polygon fill="#000000" stroke="#000000" points="1332.8868,-156.5001 1322.8868,-160 1332.8867,-163.5001 1332.8868,-156.5001"/>
</g>
<!-- MembershipsComponent&#45;&gt;AppModule -->
<g id="edge6" class="edge">
<title>MembershipsComponent&#45;&gt;AppModule</title>
<path fill="none" stroke="#000000" d="M1630.2562,-122.302C1630.2562,-140.2699 1630.2562,-165 1630.2562,-165 1630.2562,-165 1332.7816,-165 1332.7816,-165"/>
<polygon fill="#000000" stroke="#000000" points="1332.7816,-161.5001 1322.7816,-165 1332.7815,-168.5001 1332.7816,-161.5001"/>
</g>
<!-- SignInComponent -->
<g id="node6" class="node">
<title>SignInComponent</title>
<polygon fill="#ffffb3" stroke="#000000" points="1507.1667,-122 1388.8333,-122 1388.8333,-86 1507.1667,-86 1507.1667,-122"/>
<text text-anchor="middle" x="1448" y="-99.8" font-family="Times,serif" font-size="14.00" fill="#000000">SignInComponent</text>
</g>
<!-- SignInComponent&#45;&gt;AppModule -->
<g id="edge7" class="edge">
<title>SignInComponent&#45;&gt;AppModule</title>
<path fill="none" stroke="#000000" d="M1394.5682,-122.1871C1394.5682,-137.1824 1394.5682,-156 1394.5682,-156 1394.5682,-156 1332.9659,-156 1332.9659,-156"/>
<polygon fill="#000000" stroke="#000000" points="1332.966,-152.5001 1322.9659,-156 1332.9659,-159.5001 1332.966,-152.5001"/>
</g>
<!-- SubscriptionPageComponent -->
<g id="node7" class="node">
<title>SubscriptionPageComponent</title>
<polygon fill="#ffffb3" stroke="#000000" points="1370.8187,-122 1191.1813,-122 1191.1813,-86 1370.8187,-86 1370.8187,-122"/>
<text text-anchor="middle" x="1281" y="-99.8" font-family="Times,serif" font-size="14.00" fill="#000000">SubscriptionPageComponent</text>
</g>
<!-- SubscriptionPageComponent&#45;&gt;AppModule -->
<g id="edge8" class="edge">
<title>SubscriptionPageComponent&#45;&gt;AppModule</title>
<path fill="none" stroke="#000000" d="M1281,-122.1061C1281,-122.1061 1281,-140.991 1281,-140.991"/>
<polygon fill="#000000" stroke="#000000" points="1277.5001,-140.9909 1281,-150.991 1284.5001,-140.991 1277.5001,-140.9909"/>
</g>
<!-- SupportModalComponent -->
<g id="node8" class="node">
<title>SupportModalComponent</title>
<polygon fill="#ffffb3" stroke="#000000" points="1173.2161,-122 1010.7839,-122 1010.7839,-86 1173.2161,-86 1173.2161,-122"/>
<text text-anchor="middle" x="1092" y="-99.8" font-family="Times,serif" font-size="14.00" fill="#000000">SupportModalComponent</text>
</g>
<!-- SupportModalComponent&#45;&gt;AppModule -->
<g id="edge9" class="edge">
<title>SupportModalComponent&#45;&gt;AppModule</title>
<path fill="none" stroke="#000000" d="M1169.5734,-122.1871C1169.5734,-137.1824 1169.5734,-156 1169.5734,-156 1169.5734,-156 1229.1918,-156 1229.1918,-156"/>
<polygon fill="#000000" stroke="#000000" points="1229.1919,-159.5001 1239.1918,-156 1229.1918,-152.5001 1229.1919,-159.5001"/>
</g>
<!-- VerifyEmailComponent -->
<g id="node9" class="node">
<title>VerifyEmailComponent</title>
<polygon fill="#ffffb3" stroke="#000000" points="992.8047,-122 841.1953,-122 841.1953,-86 992.8047,-86 992.8047,-122"/>
<text text-anchor="middle" x="917" y="-99.8" font-family="Times,serif" font-size="14.00" fill="#000000">VerifyEmailComponent</text>
</g>
<!-- VerifyEmailComponent&#45;&gt;AppModule -->
<g id="edge10" class="edge">
<title>VerifyEmailComponent&#45;&gt;AppModule</title>
<path fill="none" stroke="#000000" d="M917,-122.027C917,-138.3976 917,-160 917,-160 917,-160 1229.2446,-160 1229.2446,-160"/>
<polygon fill="#000000" stroke="#000000" points="1229.2446,-163.5001 1239.2446,-160 1229.2445,-156.5001 1229.2446,-163.5001"/>
</g>
<!-- SharedModule  -->
<g id="node14" class="node">
<title>SharedModule </title>
<polygon fill="#fb8072" stroke="#000000" points="1267.9222,-252 1166.0778,-252 1166.0778,-216 1267.9222,-216 1267.9222,-252"/>
<text text-anchor="middle" x="1217" y="-229.8" font-family="Times,serif" font-size="14.00" fill="#000000">SharedModule </text>
</g>
<!-- AppModule&#45;&gt;SharedModule  -->
<g id="edge14" class="edge">
<title>AppModule&#45;&gt;SharedModule </title>
<path fill="none" stroke="#000000" stroke-dasharray="5,2" d="M1253.5665,-187.1061C1253.5665,-187.1061 1253.5665,-205.991 1253.5665,-205.991"/>
<polygon fill="#000000" stroke="#000000" points="1250.0665,-205.9909 1253.5665,-215.991 1257.0665,-205.991 1250.0665,-205.9909"/>
</g>
<!-- AppComponent  -->
<g id="node15" class="node">
<title>AppComponent </title>
<polygon fill="#80b1d3" stroke="#000000" points="1400.439,-252 1291.561,-252 1291.561,-216 1400.439,-216 1400.439,-252"/>
<text text-anchor="middle" x="1346" y="-229.8" font-family="Times,serif" font-size="14.00" fill="#000000">AppComponent </text>
</g>
<!-- AppModule&#45;&gt;AppComponent  -->
<g id="edge15" class="edge">
<title>AppModule&#45;&gt;AppComponent </title>
<path fill="none" stroke="#000000" stroke-dasharray="1,5" d="M1307.1793,-187.1061C1307.1793,-187.1061 1307.1793,-205.991 1307.1793,-205.991"/>
<polygon fill="#000000" stroke="#000000" points="1303.6794,-205.9909 1307.1793,-215.991 1310.6794,-205.991 1303.6794,-205.9909"/>
</g>
<!-- AppRoutingModule -->
<g id="node11" class="node">
<title>AppRoutingModule</title>
<polygon fill="#8dd3c7" stroke="#000000" points="817.2744,-122 814.2744,-126 793.2744,-126 790.2744,-122 688.7256,-122 688.7256,-86 817.2744,-86 817.2744,-122"/>
<text text-anchor="middle" x="753" y="-99.8" font-family="Times,serif" font-size="14.00" fill="#000000">AppRoutingModule</text>
</g>
<!-- AppRoutingModule&#45;&gt;AppModule -->
<g id="edge11" class="edge">
<title>AppRoutingModule&#45;&gt;AppModule</title>
<path fill="none" stroke="#000000" d="M753,-122.302C753,-140.2699 753,-165 753,-165 753,-165 1229.1274,-165 1229.1274,-165"/>
<polygon fill="#000000" stroke="#000000" points="1229.1274,-168.5001 1239.1274,-165 1229.1274,-161.5001 1229.1274,-168.5001"/>
</g>
<!-- ImageModalPageModule -->
<g id="node12" class="node">
<title>ImageModalPageModule</title>
<polygon fill="#8dd3c7" stroke="#000000" points="670.2921,-122 667.2921,-126 646.2921,-126 643.2921,-122 511.7079,-122 511.7079,-86 670.2921,-86 670.2921,-122"/>
<text text-anchor="middle" x="591" y="-99.8" font-family="Times,serif" font-size="14.00" fill="#000000">ImageModalPageModule</text>
</g>
<!-- ImageModalPageModule&#45;&gt;AppModule -->
<g id="edge12" class="edge">
<title>ImageModalPageModule&#45;&gt;AppModule</title>
<path fill="none" stroke="#000000" d="M591,-122.1061C591,-141.3391 591,-169 591,-169 591,-169 1229.134,-169 1229.134,-169"/>
<polygon fill="#000000" stroke="#000000" points="1229.1341,-172.5001 1239.134,-169 1229.134,-165.5001 1229.1341,-172.5001"/>
</g>
<!-- SharedModule -->
<g id="node13" class="node">
<title>SharedModule</title>
<polygon fill="#8dd3c7" stroke="#000000" points="494.4231,-122 491.4231,-126 470.4231,-126 467.4231,-122 395.5769,-122 395.5769,-86 494.4231,-86 494.4231,-122"/>
<text text-anchor="middle" x="445" y="-99.8" font-family="Times,serif" font-size="14.00" fill="#000000">SharedModule</text>
</g>
<!-- SharedModule&#45;&gt;AppModule -->
<g id="edge13" class="edge">
<title>SharedModule&#45;&gt;AppModule</title>
<path fill="none" stroke="#000000" d="M445,-122.0267C445,-142.7672 445,-174 445,-174 445,-174 1229.2566,-174 1229.2566,-174"/>
<polygon fill="#000000" stroke="#000000" points="1229.2566,-177.5001 1239.2566,-174 1229.2566,-170.5001 1229.2566,-177.5001"/>
</g>
<!-- AuthService -->
<g id="node16" class="node">
<title>AuthService</title>
<ellipse fill="#fdb462" stroke="#000000" cx="313" cy="-104" rx="59.1083" ry="18"/>
<text text-anchor="middle" x="313" y="-99.8" font-family="Times,serif" font-size="14.00" fill="#000000">AuthService</text>
</g>
<!-- AuthService&#45;&gt;AppModule -->
<g id="edge16" class="edge">
<title>AuthService&#45;&gt;AppModule</title>
<path fill="none" stroke="#000000" d="M313,-122.2921C313,-144.2057 313,-178 313,-178 313,-178 1229.0956,-178 1229.0956,-178"/>
<polygon fill="#000000" stroke="#000000" points="1229.0956,-181.5001 1239.0956,-178 1229.0955,-174.5001 1229.0956,-181.5001"/>
</g>
<!-- CheckForUpdateService -->
<g id="node17" class="node">
<title>CheckForUpdateService</title>
<ellipse fill="#fdb462" stroke="#000000" cx="130" cy="-104" rx="105.9189" ry="18"/>
<text text-anchor="middle" x="130" y="-99.8" font-family="Times,serif" font-size="14.00" fill="#000000">CheckForUpdateService</text>
</g>
<!-- CheckForUpdateService&#45;&gt;AppModule -->
<g id="edge17" class="edge">
<title>CheckForUpdateService&#45;&gt;AppModule</title>
<path fill="none" stroke="#000000" d="M130,-122.3228C130,-145.6602 130,-183 130,-183 130,-183 1229.0134,-183 1229.0134,-183"/>
<polygon fill="#000000" stroke="#000000" points="1229.0135,-186.5001 1239.0134,-183 1229.0134,-179.5001 1229.0135,-186.5001"/>
</g>
</g>
</svg>
