<?xml version="1.0" encoding="UTF-8" standalone="no"?>
<!DOCTYPE svg PUBLIC "-//W3C//DTD SVG 1.1//EN"
 "http://www.w3.org/Graphics/SVG/1.1/DTD/svg11.dtd">
<!-- Generated by graphviz version 2.40.1 (20161225.0304)
 -->
<!-- Title: dependencies Pages: 1 -->
<svg width="1156pt" height="284pt"
 viewBox="0.00 0.00 1156.00 284.00" xmlns="http://www.w3.org/2000/svg" xmlns:xlink="http://www.w3.org/1999/xlink">
<g id="graph0" class="graph" transform="scale(1 1) rotate(0) translate(4 280)">
<title>dependencies</title>
<polygon fill="#ffffff" stroke="transparent" points="-4,4 -4,-280 1152,-280 1152,4 -4,4"/>
<text text-anchor="start" x="553.0091" y="-42.4" font-family="sans-serif" font-weight="bold" font-size="14.00" fill="#000000">Legend</text>
<polygon fill="#ffffb3" stroke="transparent" points="340,-10 340,-30 360,-30 360,-10 340,-10"/>
<text text-anchor="start" x="363.629" y="-15.4" font-family="sans-serif" font-size="14.00" fill="#000000"> &#160;Declarations</text>
<polygon fill="#8dd3c7" stroke="transparent" points="453,-10 453,-30 473,-30 473,-10 453,-10"/>
<text text-anchor="start" x="476.7251" y="-15.4" font-family="sans-serif" font-size="14.00" fill="#000000"> &#160;Module</text>
<polygon fill="#80b1d3" stroke="transparent" points="539,-10 539,-30 559,-30 559,-10 539,-10"/>
<text text-anchor="start" x="562.7812" y="-15.4" font-family="sans-serif" font-size="14.00" fill="#000000"> &#160;Bootstrap</text>
<polygon fill="#fdb462" stroke="transparent" points="636,-10 636,-30 656,-30 656,-10 636,-10"/>
<text text-anchor="start" x="659.6732" y="-15.4" font-family="sans-serif" font-size="14.00" fill="#000000"> &#160;Providers</text>
<polygon fill="#fb8072" stroke="transparent" points="732,-10 732,-30 752,-30 752,-10 732,-10"/>
<text text-anchor="start" x="755.7258" y="-15.4" font-family="sans-serif" font-size="14.00" fill="#000000"> &#160;Exports</text>
<g id="clust1" class="cluster">
<title>cluster_AppModule</title>
<polygon fill="none" stroke="#000000" stroke-dasharray="1,5" points="8,-70 8,-268 1140,-268 1140,-70 8,-70"/>
</g>
<g id="clust2" class="cluster">
<title>cluster_AppModule_declarations</title>
<polygon fill="none" stroke="#000000" points="285,-78 285,-130 1132,-130 1132,-78 285,-78"/>
</g>
<g id="clust8" class="cluster">
<title>cluster_AppModule_imports</title>
<polygon fill="none" stroke="#000000" points="16,-78 16,-130 277,-130 277,-78 16,-78"/>
</g>
<g id="clust9" class="cluster">
<title>cluster_AppModule_exports</title>
<polygon fill="none" stroke="#000000" points="429,-208 429,-260 547,-260 547,-208 429,-208"/>
</g>
<g id="clust10" class="cluster">
<title>cluster_AppModule_bootstrap</title>
<polygon fill="none" stroke="#000000" points="555,-208 555,-260 679,-260 679,-208 555,-208"/>
</g>
<!-- AppComponent -->
<g id="node1" class="node">
<title>AppComponent</title>
<polygon fill="#ffffb3" stroke="#000000" points="1123.9399,-122 1018.0601,-122 1018.0601,-86 1123.9399,-86 1123.9399,-122"/>
<text text-anchor="middle" x="1071" y="-99.8" font-family="Times,serif" font-size="14.00" fill="#000000">AppComponent</text>
</g>
<!-- AppModule -->
<g id="node6" class="node">
<title>AppModule</title>
<polygon fill="#8dd3c7" stroke="#000000" points="593.6571,-187 590.6571,-191 569.6571,-191 566.6571,-187 510.3429,-187 510.3429,-151 593.6571,-151 593.6571,-187"/>
<text text-anchor="middle" x="552" y="-164.8" font-family="Times,serif" font-size="14.00" fill="#000000">AppModule</text>
</g>
<!-- AppComponent&#45;&gt;AppModule -->
<g id="edge1" class="edge">
<title>AppComponent&#45;&gt;AppModule</title>
<path fill="none" stroke="#000000" d="M1071,-122.2921C1071,-144.2057 1071,-178 1071,-178 1071,-178 604.0323,-178 604.0323,-178"/>
<polygon fill="#000000" stroke="#000000" points="604.0324,-174.5001 594.0323,-178 604.0323,-181.5001 604.0324,-174.5001"/>
</g>
<!-- ForgotPasswordComponent -->
<g id="node2" class="node">
<title>ForgotPasswordComponent</title>
<polygon fill="#ffffb3" stroke="#000000" points="1000.3201,-122 827.6799,-122 827.6799,-86 1000.3201,-86 1000.3201,-122"/>
<text text-anchor="middle" x="914" y="-99.8" font-family="Times,serif" font-size="14.00" fill="#000000">ForgotPasswordComponent</text>
</g>
<!-- ForgotPasswordComponent&#45;&gt;AppModule -->
<g id="edge2" class="edge">
<title>ForgotPasswordComponent&#45;&gt;AppModule</title>
<path fill="none" stroke="#000000" d="M914,-122.1061C914,-141.3391 914,-169 914,-169 914,-169 603.8796,-169 603.8796,-169"/>
<polygon fill="#000000" stroke="#000000" points="603.8797,-165.5001 593.8796,-169 603.8796,-172.5001 603.8797,-165.5001"/>
</g>
<!-- LaunchPageComponent -->
<g id="node3" class="node">
<title>LaunchPageComponent</title>
<polygon fill="#ffffb3" stroke="#000000" points="810.0267,-122 659.9733,-122 659.9733,-86 810.0267,-86 810.0267,-122"/>
<text text-anchor="middle" x="735" y="-99.8" font-family="Times,serif" font-size="14.00" fill="#000000">LaunchPageComponent</text>
</g>
<!-- LaunchPageComponent&#45;&gt;AppModule -->
<g id="edge3" class="edge">
<title>LaunchPageComponent&#45;&gt;AppModule</title>
<path fill="none" stroke="#000000" d="M665.6033,-122.027C665.6033,-138.3976 665.6033,-160 665.6033,-160 665.6033,-160 603.9789,-160 603.9789,-160"/>
<polygon fill="#000000" stroke="#000000" points="603.9789,-156.5001 593.9789,-160 603.9789,-163.5001 603.9789,-156.5001"/>
</g>
<!-- SubscriptionPageComponent -->
<g id="node4" class="node">
<title>SubscriptionPageComponent</title>
<polygon fill="#ffffb3" stroke="#000000" points="641.8187,-122 462.1813,-122 462.1813,-86 641.8187,-86 641.8187,-122"/>
<text text-anchor="middle" x="552" y="-99.8" font-family="Times,serif" font-size="14.00" fill="#000000">SubscriptionPageComponent</text>
</g>
<!-- SubscriptionPageComponent&#45;&gt;AppModule -->
<g id="edge4" class="edge">
<title>SubscriptionPageComponent&#45;&gt;AppModule</title>
<path fill="none" stroke="#000000" d="M552,-122.1061C552,-122.1061 552,-140.991 552,-140.991"/>
<polygon fill="#000000" stroke="#000000" points="548.5001,-140.9909 552,-150.991 555.5001,-140.991 548.5001,-140.9909"/>
</g>
<!-- VerifyEmailComponent -->
<g id="node5" class="node">
<title>VerifyEmailComponent</title>
<polygon fill="#ffffb3" stroke="#000000" points="444.8047,-122 293.1953,-122 293.1953,-86 444.8047,-86 444.8047,-122"/>
<text text-anchor="middle" x="369" y="-99.8" font-family="Times,serif" font-size="14.00" fill="#000000">VerifyEmailComponent</text>
</g>
<!-- VerifyEmailComponent&#45;&gt;AppModule -->
<g id="edge5" class="edge">
<title>VerifyEmailComponent&#45;&gt;AppModule</title>
<path fill="none" stroke="#000000" d="M440.8456,-122.027C440.8456,-138.3976 440.8456,-160 440.8456,-160 440.8456,-160 500.2939,-160 500.2939,-160"/>
<polygon fill="#000000" stroke="#000000" points="500.294,-163.5001 510.2939,-160 500.2939,-156.5001 500.294,-163.5001"/>
</g>
<!-- SharedModule  -->
<g id="node9" class="node">
<title>SharedModule </title>
<polygon fill="#fb8072" stroke="#000000" points="538.9222,-252 437.0778,-252 437.0778,-216 538.9222,-216 538.9222,-252"/>
<text text-anchor="middle" x="488" y="-229.8" font-family="Times,serif" font-size="14.00" fill="#000000">SharedModule </text>
</g>
<!-- AppModule&#45;&gt;SharedModule  -->
<g id="edge8" class="edge">
<title>AppModule&#45;&gt;SharedModule </title>
<path fill="none" stroke="#000000" stroke-dasharray="5,2" d="M524.5665,-187.1061C524.5665,-187.1061 524.5665,-205.991 524.5665,-205.991"/>
<polygon fill="#000000" stroke="#000000" points="521.0665,-205.9909 524.5665,-215.991 528.0665,-205.991 521.0665,-205.9909"/>
</g>
<!-- AppComponent  -->
<g id="node10" class="node">
<title>AppComponent </title>
<polygon fill="#80b1d3" stroke="#000000" points="671.439,-252 562.561,-252 562.561,-216 671.439,-216 671.439,-252"/>
<text text-anchor="middle" x="617" y="-229.8" font-family="Times,serif" font-size="14.00" fill="#000000">AppComponent </text>
</g>
<!-- AppModule&#45;&gt;AppComponent  -->
<g id="edge9" class="edge">
<title>AppModule&#45;&gt;AppComponent </title>
<path fill="none" stroke="#000000" stroke-dasharray="1,5" d="M578.1794,-187.1061C578.1794,-187.1061 578.1794,-205.991 578.1794,-205.991"/>
<polygon fill="#000000" stroke="#000000" points="574.6794,-205.9909 578.1794,-215.991 581.6794,-205.991 574.6794,-205.9909"/>
</g>
<!-- AppRoutingModule -->
<g id="node7" class="node">
<title>AppRoutingModule</title>
<polygon fill="#8dd3c7" stroke="#000000" points="269.2744,-122 266.2744,-126 245.2744,-126 242.2744,-122 140.7256,-122 140.7256,-86 269.2744,-86 269.2744,-122"/>
<text text-anchor="middle" x="205" y="-99.8" font-family="Times,serif" font-size="14.00" fill="#000000">AppRoutingModule</text>
</g>
<!-- AppRoutingModule&#45;&gt;AppModule -->
<g id="edge6" class="edge">
<title>AppRoutingModule&#45;&gt;AppModule</title>
<path fill="none" stroke="#000000" d="M205,-122.1061C205,-141.3391 205,-169 205,-169 205,-169 500.1437,-169 500.1437,-169"/>
<polygon fill="#000000" stroke="#000000" points="500.1437,-172.5001 510.1437,-169 500.1437,-165.5001 500.1437,-172.5001"/>
</g>
<!-- SharedModule -->
<g id="node8" class="node">
<title>SharedModule</title>
<polygon fill="#8dd3c7" stroke="#000000" points="122.4231,-122 119.4231,-126 98.4231,-126 95.4231,-122 23.5769,-122 23.5769,-86 122.4231,-86 122.4231,-122"/>
<text text-anchor="middle" x="73" y="-99.8" font-family="Times,serif" font-size="14.00" fill="#000000">SharedModule</text>
</g>
<!-- SharedModule&#45;&gt;AppModule -->
<g id="edge7" class="edge">
<title>SharedModule&#45;&gt;AppModule</title>
<path fill="none" stroke="#000000" d="M73,-122.2921C73,-144.2057 73,-178 73,-178 73,-178 500.3298,-178 500.3298,-178"/>
<polygon fill="#000000" stroke="#000000" points="500.3299,-181.5001 510.3298,-178 500.3298,-174.5001 500.3299,-181.5001"/>
</g>
</g>
</svg>
