<?xml version="1.0" encoding="UTF-8" standalone="no"?>
<!DOCTYPE svg PUBLIC "-//W3C//DTD SVG 1.1//EN"
 "http://www.w3.org/Graphics/SVG/1.1/DTD/svg11.dtd">
<!-- Generated by graphviz version 2.40.1 (20161225.0304)
 -->
<!-- Title: dependencies Pages: 1 -->
<svg width="819pt" height="284pt"
 viewBox="0.00 0.00 819.00 284.00" xmlns="http://www.w3.org/2000/svg" xmlns:xlink="http://www.w3.org/1999/xlink">
<g id="graph0" class="graph" transform="scale(1 1) rotate(0) translate(4 280)">
<title>dependencies</title>
<polygon fill="#ffffff" stroke="transparent" points="-4,4 -4,-280 815,-280 815,4 -4,4"/>
<text text-anchor="start" x="384.5091" y="-42.4" font-family="sans-serif" font-weight="bold" font-size="14.00" fill="#000000">Legend</text>
<polygon fill="#ffffb3" stroke="transparent" points="171.5,-10 171.5,-30 191.5,-30 191.5,-10 171.5,-10"/>
<text text-anchor="start" x="195.129" y="-15.4" font-family="sans-serif" font-size="14.00" fill="#000000"> &#160;Declarations</text>
<polygon fill="#8dd3c7" stroke="transparent" points="284.5,-10 284.5,-30 304.5,-30 304.5,-10 284.5,-10"/>
<text text-anchor="start" x="308.2251" y="-15.4" font-family="sans-serif" font-size="14.00" fill="#000000"> &#160;Module</text>
<polygon fill="#80b1d3" stroke="transparent" points="370.5,-10 370.5,-30 390.5,-30 390.5,-10 370.5,-10"/>
<text text-anchor="start" x="394.2812" y="-15.4" font-family="sans-serif" font-size="14.00" fill="#000000"> &#160;Bootstrap</text>
<polygon fill="#fdb462" stroke="transparent" points="467.5,-10 467.5,-30 487.5,-30 487.5,-10 467.5,-10"/>
<text text-anchor="start" x="491.1732" y="-15.4" font-family="sans-serif" font-size="14.00" fill="#000000"> &#160;Providers</text>
<polygon fill="#fb8072" stroke="transparent" points="563.5,-10 563.5,-30 583.5,-30 583.5,-10 563.5,-10"/>
<text text-anchor="start" x="587.2258" y="-15.4" font-family="sans-serif" font-size="14.00" fill="#000000"> &#160;Exports</text>
<g id="clust1" class="cluster">
<title>cluster_AppModule</title>
<polygon fill="none" stroke="#000000" stroke-dasharray="1,5" points="8,-70 8,-268 803,-268 803,-70 8,-70"/>
</g>
<g id="clust2" class="cluster">
<title>cluster_AppModule_declarations</title>
<polygon fill="none" stroke="#000000" points="673,-78 673,-130 795,-130 795,-78 673,-78"/>
</g>
<g id="clust4" class="cluster">
<title>cluster_AppModule_imports</title>
<polygon fill="none" stroke="#000000" points="204,-78 204,-130 665,-130 665,-78 204,-78"/>
</g>
<g id="clust6" class="cluster">
<title>cluster_AppModule_bootstrap</title>
<polygon fill="none" stroke="#000000" points="399,-208 399,-260 523,-260 523,-208 399,-208"/>
</g>
<g id="clust7" class="cluster">
<title>cluster_AppModule_providers</title>
<polygon fill="none" stroke="#000000" points="16,-78 16,-130 196,-130 196,-78 16,-78"/>
</g>
<!-- AppComponent -->
<g id="node1" class="node">
<title>AppComponent</title>
<polygon fill="#ffffb3" stroke="#000000" points="786.9399,-122 681.0601,-122 681.0601,-86 786.9399,-86 786.9399,-122"/>
<text text-anchor="middle" x="734" y="-99.8" font-family="Times,serif" font-size="14.00" fill="#000000">AppComponent</text>
</g>
<!-- AppModule -->
<g id="node2" class="node">
<title>AppModule</title>
<polygon fill="#8dd3c7" stroke="#000000" points="502.6571,-187 499.6571,-191 478.6571,-191 475.6571,-187 419.3429,-187 419.3429,-151 502.6571,-151 502.6571,-187"/>
<text text-anchor="middle" x="461" y="-164.8" font-family="Times,serif" font-size="14.00" fill="#000000">AppModule</text>
</g>
<!-- AppComponent&#45;&gt;AppModule -->
<g id="edge1" class="edge">
<title>AppComponent&#45;&gt;AppModule</title>
<path fill="none" stroke="#000000" d="M734,-122.2843C734,-143.3211 734,-175 734,-175 734,-175 512.76,-175 512.76,-175"/>
<polygon fill="#000000" stroke="#000000" points="512.76,-171.5001 502.76,-175 512.76,-178.5001 512.76,-171.5001"/>
</g>
<!-- AppComponent  -->
<g id="node6" class="node">
<title>AppComponent </title>
<polygon fill="#80b1d3" stroke="#000000" points="515.439,-252 406.561,-252 406.561,-216 515.439,-216 515.439,-252"/>
<text text-anchor="middle" x="461" y="-229.8" font-family="Times,serif" font-size="14.00" fill="#000000">AppComponent </text>
</g>
<!-- AppModule&#45;&gt;AppComponent  -->
<g id="edge5" class="edge">
<title>AppModule&#45;&gt;AppComponent </title>
<path fill="none" stroke="#000000" stroke-dasharray="1,5" d="M461,-187.1061C461,-187.1061 461,-205.991 461,-205.991"/>
<polygon fill="#000000" stroke="#000000" points="457.5001,-205.9909 461,-215.991 464.5001,-205.991 457.5001,-205.9909"/>
</g>
<!-- AppRoutingModule -->
<g id="node3" class="node">
<title>AppRoutingModule</title>
<polygon fill="#8dd3c7" stroke="#000000" points="657.2744,-122 654.2744,-126 633.2744,-126 630.2744,-122 528.7256,-122 528.7256,-86 657.2744,-86 657.2744,-122"/>
<text text-anchor="middle" x="593" y="-99.8" font-family="Times,serif" font-size="14.00" fill="#000000">AppRoutingModule</text>
</g>
<!-- AppRoutingModule&#45;&gt;AppModule -->
<g id="edge2" class="edge">
<title>AppRoutingModule&#45;&gt;AppModule</title>
<path fill="none" stroke="#000000" d="M593,-122.0225C593,-139.3734 593,-163 593,-163 593,-163 512.7656,-163 512.7656,-163"/>
<polygon fill="#000000" stroke="#000000" points="512.7657,-159.5001 502.7656,-163 512.7656,-166.5001 512.7657,-159.5001"/>
</g>
<!-- SharedModule -->
<g id="node4" class="node">
<title>SharedModule</title>
<polygon fill="#8dd3c7" stroke="#000000" points="510.4231,-122 507.4231,-126 486.4231,-126 483.4231,-122 411.5769,-122 411.5769,-86 510.4231,-86 510.4231,-122"/>
<text text-anchor="middle" x="461" y="-99.8" font-family="Times,serif" font-size="14.00" fill="#000000">SharedModule</text>
</g>
<!-- SharedModule&#45;&gt;AppModule -->
<g id="edge3" class="edge">
<title>SharedModule&#45;&gt;AppModule</title>
<path fill="none" stroke="#000000" d="M461,-122.1061C461,-122.1061 461,-140.991 461,-140.991"/>
<polygon fill="#000000" stroke="#000000" points="457.5001,-140.9909 461,-150.991 464.5001,-140.991 457.5001,-140.9909"/>
</g>
<!-- SportsCategoriesPageModule -->
<g id="node5" class="node">
<title>SportsCategoriesPageModule</title>
<polygon fill="#8dd3c7" stroke="#000000" points="394.4073,-122 391.4073,-126 370.4073,-126 367.4073,-122 211.5927,-122 211.5927,-86 394.4073,-86 394.4073,-122"/>
<text text-anchor="middle" x="303" y="-99.8" font-family="Times,serif" font-size="14.00" fill="#000000">SportsCategoriesPageModule</text>
</g>
<!-- SportsCategoriesPageModule&#45;&gt;AppModule -->
<g id="edge4" class="edge">
<title>SportsCategoriesPageModule&#45;&gt;AppModule</title>
<path fill="none" stroke="#000000" d="M303,-122.0225C303,-139.3734 303,-163 303,-163 303,-163 409.0737,-163 409.0737,-163"/>
<polygon fill="#000000" stroke="#000000" points="409.0738,-166.5001 419.0737,-163 409.0737,-159.5001 409.0738,-166.5001"/>
</g>
<!-- InterceptorService -->
<g id="node7" class="node">
<title>InterceptorService</title>
<ellipse fill="#fdb462" stroke="#000000" cx="106" cy="-104" rx="82.1986" ry="18"/>
<text text-anchor="middle" x="106" y="-99.8" font-family="Times,serif" font-size="14.00" fill="#000000">InterceptorService</text>
</g>
<!-- InterceptorService&#45;&gt;AppModule -->
<g id="edge6" class="edge">
<title>InterceptorService&#45;&gt;AppModule</title>
<path fill="none" stroke="#000000" d="M106,-122.2843C106,-143.3211 106,-175 106,-175 106,-175 409.2331,-175 409.2331,-175"/>
<polygon fill="#000000" stroke="#000000" points="409.2331,-178.5001 419.2331,-175 409.233,-171.5001 409.2331,-178.5001"/>
</g>
</g>
</svg>
