<?xml version="1.0" encoding="UTF-8" standalone="no"?>
<!DOCTYPE svg PUBLIC "-//W3C//DTD SVG 1.1//EN"
 "http://www.w3.org/Graphics/SVG/1.1/DTD/svg11.dtd">
<!-- Generated by graphviz version 2.40.1 (20161225.0304)
 -->
<!-- Title: dependencies Pages: 1 -->
<svg width="2021pt" height="284pt"
 viewBox="0.00 0.00 2021.00 284.00" xmlns="http://www.w3.org/2000/svg" xmlns:xlink="http://www.w3.org/1999/xlink">
<g id="graph0" class="graph" transform="scale(1 1) rotate(0) translate(4 280)">
<title>dependencies</title>
<polygon fill="#ffffff" stroke="transparent" points="-4,4 -4,-280 2017,-280 2017,4 -4,4"/>
<text text-anchor="start" x="985.5091" y="-42.4" font-family="sans-serif" font-weight="bold" font-size="14.00" fill="#000000">Legend</text>
<polygon fill="#ffffb3" stroke="transparent" points="772.5,-10 772.5,-30 792.5,-30 792.5,-10 772.5,-10"/>
<text text-anchor="start" x="796.129" y="-15.4" font-family="sans-serif" font-size="14.00" fill="#000000"> &#160;Declarations</text>
<polygon fill="#8dd3c7" stroke="transparent" points="885.5,-10 885.5,-30 905.5,-30 905.5,-10 885.5,-10"/>
<text text-anchor="start" x="909.2251" y="-15.4" font-family="sans-serif" font-size="14.00" fill="#000000"> &#160;Module</text>
<polygon fill="#80b1d3" stroke="transparent" points="971.5,-10 971.5,-30 991.5,-30 991.5,-10 971.5,-10"/>
<text text-anchor="start" x="995.2812" y="-15.4" font-family="sans-serif" font-size="14.00" fill="#000000"> &#160;Bootstrap</text>
<polygon fill="#fdb462" stroke="transparent" points="1068.5,-10 1068.5,-30 1088.5,-30 1088.5,-10 1068.5,-10"/>
<text text-anchor="start" x="1092.1732" y="-15.4" font-family="sans-serif" font-size="14.00" fill="#000000"> &#160;Providers</text>
<polygon fill="#fb8072" stroke="transparent" points="1164.5,-10 1164.5,-30 1184.5,-30 1184.5,-10 1164.5,-10"/>
<text text-anchor="start" x="1188.2258" y="-15.4" font-family="sans-serif" font-size="14.00" fill="#000000"> &#160;Exports</text>
<g id="clust1" class="cluster">
<title>cluster_AppModule</title>
<polygon fill="none" stroke="#000000" stroke-dasharray="1,5" points="8,-70 8,-268 2005,-268 2005,-70 8,-70"/>
</g>
<g id="clust2" class="cluster">
<title>cluster_AppModule_declarations</title>
<polygon fill="none" stroke="#000000" points="657,-78 657,-130 1997,-130 1997,-78 657,-78"/>
</g>
<g id="clust11" class="cluster">
<title>cluster_AppModule_imports</title>
<polygon fill="none" stroke="#000000" points="388,-78 388,-130 649,-130 649,-78 388,-78"/>
</g>
<g id="clust12" class="cluster">
<title>cluster_AppModule_exports</title>
<polygon fill="none" stroke="#000000" points="982,-208 982,-260 1100,-260 1100,-208 982,-208"/>
</g>
<g id="clust13" class="cluster">
<title>cluster_AppModule_bootstrap</title>
<polygon fill="none" stroke="#000000" points="1108,-208 1108,-260 1232,-260 1232,-208 1108,-208"/>
</g>
<g id="clust14" class="cluster">
<title>cluster_AppModule_providers</title>
<polygon fill="none" stroke="#000000" points="16,-78 16,-130 380,-130 380,-78 16,-78"/>
</g>
<!-- AppComponent -->
<g id="node1" class="node">
<title>AppComponent</title>
<polygon fill="#ffffb3" stroke="#000000" points="1988.9399,-122 1883.0601,-122 1883.0601,-86 1988.9399,-86 1988.9399,-122"/>
<text text-anchor="middle" x="1936" y="-99.8" font-family="Times,serif" font-size="14.00" fill="#000000">AppComponent</text>
</g>
<!-- AppModule -->
<g id="node9" class="node">
<title>AppModule</title>
<polygon fill="#8dd3c7" stroke="#000000" points="1146.6571,-187 1143.6571,-191 1122.6571,-191 1119.6571,-187 1063.3429,-187 1063.3429,-151 1146.6571,-151 1146.6571,-187"/>
<text text-anchor="middle" x="1105" y="-164.8" font-family="Times,serif" font-size="14.00" fill="#000000">AppModule</text>
</g>
<!-- AppComponent&#45;&gt;AppModule -->
<g id="edge1" class="edge">
<title>AppComponent&#45;&gt;AppModule</title>
<path fill="none" stroke="#000000" d="M1936,-122.0908C1936,-145.1328 1936,-182 1936,-182 1936,-182 1156.7789,-182 1156.7789,-182"/>
<polygon fill="#000000" stroke="#000000" points="1156.7789,-178.5001 1146.7789,-182 1156.7789,-185.5001 1156.7789,-178.5001"/>
</g>
<!-- ForgotPasswordComponent -->
<g id="node2" class="node">
<title>ForgotPasswordComponent</title>
<polygon fill="#ffffb3" stroke="#000000" points="1865.3201,-122 1692.6799,-122 1692.6799,-86 1865.3201,-86 1865.3201,-122"/>
<text text-anchor="middle" x="1779" y="-99.8" font-family="Times,serif" font-size="14.00" fill="#000000">ForgotPasswordComponent</text>
</g>
<!-- ForgotPasswordComponent&#45;&gt;AppModule -->
<g id="edge2" class="edge">
<title>ForgotPasswordComponent&#45;&gt;AppModule</title>
<path fill="none" stroke="#000000" d="M1779,-122.0449C1779,-143.6623 1779,-177 1779,-177 1779,-177 1156.9071,-177 1156.9071,-177"/>
<polygon fill="#000000" stroke="#000000" points="1156.9071,-173.5001 1146.9071,-177 1156.907,-180.5001 1156.9071,-173.5001"/>
</g>
<!-- LaunchPageComponent -->
<g id="node3" class="node">
<title>LaunchPageComponent</title>
<polygon fill="#ffffb3" stroke="#000000" points="1675.0267,-122 1524.9733,-122 1524.9733,-86 1675.0267,-86 1675.0267,-122"/>
<text text-anchor="middle" x="1600" y="-99.8" font-family="Times,serif" font-size="14.00" fill="#000000">LaunchPageComponent</text>
</g>
<!-- LaunchPageComponent&#45;&gt;AppModule -->
<g id="edge3" class="edge">
<title>LaunchPageComponent&#45;&gt;AppModule</title>
<path fill="none" stroke="#000000" d="M1600,-122.2228C1600,-142.3652 1600,-172 1600,-172 1600,-172 1156.7768,-172 1156.7768,-172"/>
<polygon fill="#000000" stroke="#000000" points="1156.7768,-168.5001 1146.7768,-172 1156.7768,-175.5001 1156.7768,-168.5001"/>
</g>
<!-- MembershipsComponent -->
<g id="node4" class="node">
<title>MembershipsComponent</title>
<polygon fill="#ffffb3" stroke="#000000" points="1506.5379,-122 1349.4621,-122 1349.4621,-86 1506.5379,-86 1506.5379,-122"/>
<text text-anchor="middle" x="1428" y="-99.8" font-family="Times,serif" font-size="14.00" fill="#000000">MembershipsComponent</text>
</g>
<!-- MembershipsComponent&#45;&gt;AppModule -->
<g id="edge4" class="edge">
<title>MembershipsComponent&#45;&gt;AppModule</title>
<path fill="none" stroke="#000000" d="M1401.7438,-122.0336C1401.7438,-139.0597 1401.7438,-162 1401.7438,-162 1401.7438,-162 1156.8868,-162 1156.8868,-162"/>
<polygon fill="#000000" stroke="#000000" points="1156.8868,-158.5001 1146.8868,-162 1156.8867,-165.5001 1156.8868,-158.5001"/>
</g>
<!-- MembershipsComponent&#45;&gt;AppModule -->
<g id="edge5" class="edge">
<title>MembershipsComponent&#45;&gt;AppModule</title>
<path fill="none" stroke="#000000" d="M1454.2562,-122.2222C1454.2562,-140.8285 1454.2562,-167 1454.2562,-167 1454.2562,-167 1156.7816,-167 1156.7816,-167"/>
<polygon fill="#000000" stroke="#000000" points="1156.7816,-163.5001 1146.7816,-167 1156.7815,-170.5001 1156.7816,-163.5001"/>
</g>
<!-- SignInComponent -->
<g id="node5" class="node">
<title>SignInComponent</title>
<polygon fill="#ffffb3" stroke="#000000" points="1331.1667,-122 1212.8333,-122 1212.8333,-86 1331.1667,-86 1331.1667,-122"/>
<text text-anchor="middle" x="1272" y="-99.8" font-family="Times,serif" font-size="14.00" fill="#000000">SignInComponent</text>
</g>
<!-- SignInComponent&#45;&gt;AppModule -->
<g id="edge6" class="edge">
<title>SignInComponent&#45;&gt;AppModule</title>
<path fill="none" stroke="#000000" d="M1218.5682,-122.2396C1218.5682,-137.5706 1218.5682,-157 1218.5682,-157 1218.5682,-157 1156.9659,-157 1156.9659,-157"/>
<polygon fill="#000000" stroke="#000000" points="1156.966,-153.5001 1146.9659,-157 1156.9659,-160.5001 1156.966,-153.5001"/>
</g>
<!-- SubscriptionPageComponent -->
<g id="node6" class="node">
<title>SubscriptionPageComponent</title>
<polygon fill="#ffffb3" stroke="#000000" points="1194.8187,-122 1015.1813,-122 1015.1813,-86 1194.8187,-86 1194.8187,-122"/>
<text text-anchor="middle" x="1105" y="-99.8" font-family="Times,serif" font-size="14.00" fill="#000000">SubscriptionPageComponent</text>
</g>
<!-- SubscriptionPageComponent&#45;&gt;AppModule -->
<g id="edge7" class="edge">
<title>SubscriptionPageComponent&#45;&gt;AppModule</title>
<path fill="none" stroke="#000000" d="M1105,-122.1061C1105,-122.1061 1105,-140.991 1105,-140.991"/>
<polygon fill="#000000" stroke="#000000" points="1101.5001,-140.9909 1105,-150.991 1108.5001,-140.991 1101.5001,-140.9909"/>
</g>
<!-- SupportModalComponent -->
<g id="node7" class="node">
<title>SupportModalComponent</title>
<polygon fill="#ffffb3" stroke="#000000" points="997.2161,-122 834.7839,-122 834.7839,-86 997.2161,-86 997.2161,-122"/>
<text text-anchor="middle" x="916" y="-99.8" font-family="Times,serif" font-size="14.00" fill="#000000">SupportModalComponent</text>
</g>
<!-- SupportModalComponent&#45;&gt;AppModule -->
<g id="edge8" class="edge">
<title>SupportModalComponent&#45;&gt;AppModule</title>
<path fill="none" stroke="#000000" d="M993.5735,-122.2396C993.5735,-137.5706 993.5735,-157 993.5735,-157 993.5735,-157 1053.1918,-157 1053.1918,-157"/>
<polygon fill="#000000" stroke="#000000" points="1053.1919,-160.5001 1063.1918,-157 1053.1918,-153.5001 1053.1919,-160.5001"/>
</g>
<!-- VerifyEmailComponent -->
<g id="node8" class="node">
<title>VerifyEmailComponent</title>
<polygon fill="#ffffb3" stroke="#000000" points="816.8047,-122 665.1953,-122 665.1953,-86 816.8047,-86 816.8047,-122"/>
<text text-anchor="middle" x="741" y="-99.8" font-family="Times,serif" font-size="14.00" fill="#000000">VerifyEmailComponent</text>
</g>
<!-- VerifyEmailComponent&#45;&gt;AppModule -->
<g id="edge9" class="edge">
<title>VerifyEmailComponent&#45;&gt;AppModule</title>
<path fill="none" stroke="#000000" d="M741,-122.0336C741,-139.0597 741,-162 741,-162 741,-162 1053.2446,-162 1053.2446,-162"/>
<polygon fill="#000000" stroke="#000000" points="1053.2446,-165.5001 1063.2446,-162 1053.2445,-158.5001 1053.2446,-165.5001"/>
</g>
<!-- SharedModule  -->
<g id="node12" class="node">
<title>SharedModule </title>
<polygon fill="#fb8072" stroke="#000000" points="1091.9222,-252 990.0778,-252 990.0778,-216 1091.9222,-216 1091.9222,-252"/>
<text text-anchor="middle" x="1041" y="-229.8" font-family="Times,serif" font-size="14.00" fill="#000000">SharedModule </text>
</g>
<!-- AppModule&#45;&gt;SharedModule  -->
<g id="edge12" class="edge">
<title>AppModule&#45;&gt;SharedModule </title>
<path fill="none" stroke="#000000" stroke-dasharray="5,2" d="M1077.5665,-187.1061C1077.5665,-187.1061 1077.5665,-205.991 1077.5665,-205.991"/>
<polygon fill="#000000" stroke="#000000" points="1074.0665,-205.9909 1077.5665,-215.991 1081.0665,-205.991 1074.0665,-205.9909"/>
</g>
<!-- AppComponent  -->
<g id="node13" class="node">
<title>AppComponent </title>
<polygon fill="#80b1d3" stroke="#000000" points="1224.439,-252 1115.561,-252 1115.561,-216 1224.439,-216 1224.439,-252"/>
<text text-anchor="middle" x="1170" y="-229.8" font-family="Times,serif" font-size="14.00" fill="#000000">AppComponent </text>
</g>
<!-- AppModule&#45;&gt;AppComponent  -->
<g id="edge13" class="edge">
<title>AppModule&#45;&gt;AppComponent </title>
<path fill="none" stroke="#000000" stroke-dasharray="1,5" d="M1131.1793,-187.1061C1131.1793,-187.1061 1131.1793,-205.991 1131.1793,-205.991"/>
<polygon fill="#000000" stroke="#000000" points="1127.6794,-205.9909 1131.1793,-215.991 1134.6794,-205.991 1127.6794,-205.9909"/>
</g>
<!-- AppRoutingModule -->
<g id="node10" class="node">
<title>AppRoutingModule</title>
<polygon fill="#8dd3c7" stroke="#000000" points="641.2744,-122 638.2744,-126 617.2744,-126 614.2744,-122 512.7256,-122 512.7256,-86 641.2744,-86 641.2744,-122"/>
<text text-anchor="middle" x="577" y="-99.8" font-family="Times,serif" font-size="14.00" fill="#000000">AppRoutingModule</text>
</g>
<!-- AppRoutingModule&#45;&gt;AppModule -->
<g id="edge10" class="edge">
<title>AppRoutingModule&#45;&gt;AppModule</title>
<path fill="none" stroke="#000000" d="M577,-122.2222C577,-140.8285 577,-167 577,-167 577,-167 1053.1274,-167 1053.1274,-167"/>
<polygon fill="#000000" stroke="#000000" points="1053.1274,-170.5001 1063.1274,-167 1053.1274,-163.5001 1053.1274,-170.5001"/>
</g>
<!-- SharedModule -->
<g id="node11" class="node">
<title>SharedModule</title>
<polygon fill="#8dd3c7" stroke="#000000" points="494.4231,-122 491.4231,-126 470.4231,-126 467.4231,-122 395.5769,-122 395.5769,-86 494.4231,-86 494.4231,-122"/>
<text text-anchor="middle" x="445" y="-99.8" font-family="Times,serif" font-size="14.00" fill="#000000">SharedModule</text>
</g>
<!-- SharedModule&#45;&gt;AppModule -->
<g id="edge11" class="edge">
<title>SharedModule&#45;&gt;AppModule</title>
<path fill="none" stroke="#000000" d="M445,-122.2228C445,-142.3652 445,-172 445,-172 445,-172 1053.2133,-172 1053.2133,-172"/>
<polygon fill="#000000" stroke="#000000" points="1053.2134,-175.5001 1063.2133,-172 1053.2133,-168.5001 1053.2134,-175.5001"/>
</g>
<!-- AuthService -->
<g id="node14" class="node">
<title>AuthService</title>
<ellipse fill="#fdb462" stroke="#000000" cx="313" cy="-104" rx="59.1083" ry="18"/>
<text text-anchor="middle" x="313" y="-99.8" font-family="Times,serif" font-size="14.00" fill="#000000">AuthService</text>
</g>
<!-- AuthService&#45;&gt;AppModule -->
<g id="edge14" class="edge">
<title>AuthService&#45;&gt;AppModule</title>
<path fill="none" stroke="#000000" d="M313,-122.0449C313,-143.6623 313,-177 313,-177 313,-177 1053.2562,-177 1053.2562,-177"/>
<polygon fill="#000000" stroke="#000000" points="1053.2562,-180.5001 1063.2562,-177 1053.2562,-173.5001 1053.2562,-180.5001"/>
</g>
<!-- CheckForUpdateService -->
<g id="node15" class="node">
<title>CheckForUpdateService</title>
<ellipse fill="#fdb462" stroke="#000000" cx="130" cy="-104" rx="105.9189" ry="18"/>
<text text-anchor="middle" x="130" y="-99.8" font-family="Times,serif" font-size="14.00" fill="#000000">CheckForUpdateService</text>
</g>
<!-- CheckForUpdateService&#45;&gt;AppModule -->
<g id="edge15" class="edge">
<title>CheckForUpdateService&#45;&gt;AppModule</title>
<path fill="none" stroke="#000000" d="M130,-122.0908C130,-145.1328 130,-182 130,-182 130,-182 1053.1055,-182 1053.1055,-182"/>
<polygon fill="#000000" stroke="#000000" points="1053.1055,-185.5001 1063.1055,-182 1053.1054,-178.5001 1053.1055,-185.5001"/>
</g>
</g>
</svg>
