<?xml version="1.0" encoding="UTF-8" standalone="no"?>
<!DOCTYPE svg PUBLIC "-//W3C//DTD SVG 1.1//EN"
 "http://www.w3.org/Graphics/SVG/1.1/DTD/svg11.dtd">
<!-- Generated by graphviz version 2.40.1 (20161225.0304)
 -->
<!-- Title: dependencies Pages: 1 -->
<svg width="504pt" height="211pt"
 viewBox="0.00 0.00 504.00 211.00" xmlns="http://www.w3.org/2000/svg" xmlns:xlink="http://www.w3.org/1999/xlink">
<g id="graph0" class="graph" transform="scale(1 1) rotate(0) translate(4 207)">
<title>dependencies</title>
<polygon fill="#ffffff" stroke="transparent" points="-4,4 -4,-207 500,-207 500,4 -4,4"/>
<text text-anchor="start" x="227.0091" y="-42.4" font-family="sans-serif" font-weight="bold" font-size="14.00" fill="#000000">Legend</text>
<polygon fill="#ffffb3" stroke="transparent" points="14,-10 14,-30 34,-30 34,-10 14,-10"/>
<text text-anchor="start" x="37.629" y="-15.4" font-family="sans-serif" font-size="14.00" fill="#000000"> &#160;Declarations</text>
<polygon fill="#8dd3c7" stroke="transparent" points="127,-10 127,-30 147,-30 147,-10 127,-10"/>
<text text-anchor="start" x="150.7251" y="-15.4" font-family="sans-serif" font-size="14.00" fill="#000000"> &#160;Module</text>
<polygon fill="#80b1d3" stroke="transparent" points="213,-10 213,-30 233,-30 233,-10 213,-10"/>
<text text-anchor="start" x="236.7812" y="-15.4" font-family="sans-serif" font-size="14.00" fill="#000000"> &#160;Bootstrap</text>
<polygon fill="#fdb462" stroke="transparent" points="310,-10 310,-30 330,-30 330,-10 310,-10"/>
<text text-anchor="start" x="333.6732" y="-15.4" font-family="sans-serif" font-size="14.00" fill="#000000"> &#160;Providers</text>
<polygon fill="#fb8072" stroke="transparent" points="406,-10 406,-30 426,-30 426,-10 406,-10"/>
<text text-anchor="start" x="429.7258" y="-15.4" font-family="sans-serif" font-size="14.00" fill="#000000"> &#160;Exports</text>
<g id="clust1" class="cluster">
<title>cluster_TweetsPageModule</title>
<polygon fill="none" stroke="#000000" stroke-dasharray="1,5" points="129,-70 129,-195 367,-195 367,-70 129,-70"/>
</g>
<g id="clust2" class="cluster">
<title>cluster_TweetsPageModule_declarations</title>
<polygon fill="none" stroke="#000000" points="259,-78 259,-130 359,-130 359,-78 259,-78"/>
</g>
<g id="clust4" class="cluster">
<title>cluster_TweetsPageModule_imports</title>
<polygon fill="none" stroke="#000000" points="137,-78 137,-130 251,-130 251,-78 137,-78"/>
</g>
<!-- TweetsPage -->
<g id="node1" class="node">
<title>TweetsPage</title>
<polygon fill="#ffffb3" stroke="#000000" points="350.6362,-122 267.3638,-122 267.3638,-86 350.6362,-86 350.6362,-122"/>
<text text-anchor="middle" x="309" y="-99.8" font-family="Times,serif" font-size="14.00" fill="#000000">TweetsPage</text>
</g>
<!-- TweetsPageModule -->
<g id="node2" class="node">
<title>TweetsPageModule</title>
<polygon fill="#8dd3c7" stroke="#000000" points="311.6853,-187 308.6853,-191 287.6853,-191 284.6853,-187 184.3147,-187 184.3147,-151 311.6853,-151 311.6853,-187"/>
<text text-anchor="middle" x="248" y="-164.8" font-family="Times,serif" font-size="14.00" fill="#000000">TweetsPageModule</text>
</g>
<!-- TweetsPage&#45;&gt;TweetsPageModule -->
<g id="edge1" class="edge">
<title>TweetsPage&#45;&gt;TweetsPageModule</title>
<path fill="none" stroke="#000000" d="M289.3875,-122.1061C289.3875,-122.1061 289.3875,-140.991 289.3875,-140.991"/>
<polygon fill="#000000" stroke="#000000" points="285.8875,-140.9909 289.3875,-150.991 292.8875,-140.991 285.8875,-140.9909"/>
</g>
<!-- SharedModule -->
<g id="node3" class="node">
<title>SharedModule</title>
<polygon fill="#8dd3c7" stroke="#000000" points="243.4231,-122 240.4231,-126 219.4231,-126 216.4231,-122 144.5769,-122 144.5769,-86 243.4231,-86 243.4231,-122"/>
<text text-anchor="middle" x="194" y="-99.8" font-family="Times,serif" font-size="14.00" fill="#000000">SharedModule</text>
</g>
<!-- SharedModule&#45;&gt;TweetsPageModule -->
<g id="edge2" class="edge">
<title>SharedModule&#45;&gt;TweetsPageModule</title>
<path fill="none" stroke="#000000" d="M213.8093,-122.1061C213.8093,-122.1061 213.8093,-140.991 213.8093,-140.991"/>
<polygon fill="#000000" stroke="#000000" points="210.3093,-140.9909 213.8093,-150.991 217.3093,-140.991 210.3093,-140.9909"/>
</g>
</g>
</svg>
