<?xml version="1.0" encoding="UTF-8" standalone="no"?>
<!DOCTYPE svg PUBLIC "-//W3C//DTD SVG 1.1//EN"
 "http://www.w3.org/Graphics/SVG/1.1/DTD/svg11.dtd">
<!-- Generated by graphviz version 2.40.1 (20161225.0304)
 -->
<!-- Title: dependencies Pages: 1 -->
<svg width="4850pt" height="290pt"
 viewBox="0.00 0.00 4850.00 290.00" xmlns="http://www.w3.org/2000/svg" xmlns:xlink="http://www.w3.org/1999/xlink">
<g id="graph0" class="graph" transform="scale(1 1) rotate(0) translate(4 286)">
<title>dependencies</title>
<polygon fill="#ffffff" stroke="transparent" points="-4,4 -4,-286 4846,-286 4846,4 -4,4"/>
<text text-anchor="start" x="2400.0091" y="-42.4" font-family="sans-serif" font-weight="bold" font-size="14.00" fill="#000000">Legend</text>
<polygon fill="#ffffb3" stroke="transparent" points="2187,-10 2187,-30 2207,-30 2207,-10 2187,-10"/>
<text text-anchor="start" x="2210.629" y="-15.4" font-family="sans-serif" font-size="14.00" fill="#000000"> &#160;Declarations</text>
<polygon fill="#8dd3c7" stroke="transparent" points="2300,-10 2300,-30 2320,-30 2320,-10 2300,-10"/>
<text text-anchor="start" x="2323.7251" y="-15.4" font-family="sans-serif" font-size="14.00" fill="#000000"> &#160;Module</text>
<polygon fill="#80b1d3" stroke="transparent" points="2386,-10 2386,-30 2406,-30 2406,-10 2386,-10"/>
<text text-anchor="start" x="2409.7812" y="-15.4" font-family="sans-serif" font-size="14.00" fill="#000000"> &#160;Bootstrap</text>
<polygon fill="#fdb462" stroke="transparent" points="2483,-10 2483,-30 2503,-30 2503,-10 2483,-10"/>
<text text-anchor="start" x="2506.6732" y="-15.4" font-family="sans-serif" font-size="14.00" fill="#000000"> &#160;Providers</text>
<polygon fill="#fb8072" stroke="transparent" points="2579,-10 2579,-30 2599,-30 2599,-10 2579,-10"/>
<text text-anchor="start" x="2602.7258" y="-15.4" font-family="sans-serif" font-size="14.00" fill="#000000"> &#160;Exports</text>
<g id="clust1" class="cluster">
<title>cluster_AppModule</title>
<polygon fill="none" stroke="#000000" stroke-dasharray="1,5" points="8,-70 8,-274 1139,-274 1139,-70 8,-70"/>
</g>
<g id="clust2" class="cluster">
<title>cluster_AppModule_declarations</title>
<polygon fill="none" stroke="#000000" points="16,-78 16,-130 862,-130 862,-78 16,-78"/>
</g>
<g id="clust8" class="cluster">
<title>cluster_AppModule_imports</title>
<polygon fill="none" stroke="#000000" points="870,-78 870,-130 1131,-130 1131,-78 870,-78"/>
</g>
<g id="clust9" class="cluster">
<title>cluster_AppModule_exports</title>
<polygon fill="none" stroke="#000000" points="466,-214 466,-266 584,-266 584,-214 466,-214"/>
</g>
<g id="clust10" class="cluster">
<title>cluster_AppModule_bootstrap</title>
<polygon fill="none" stroke="#000000" points="592,-214 592,-266 716,-266 716,-214 592,-214"/>
</g>
<g id="clust18" class="cluster">
<title>cluster_FaqPageModule</title>
<polygon fill="none" stroke="#000000" stroke-dasharray="1,5" points="2730,-70 2730,-198 2854,-198 2854,-70 2730,-70"/>
</g>
<g id="clust19" class="cluster">
<title>cluster_FaqPageModule_declarations</title>
<polygon fill="none" stroke="#000000" points="2752,-78 2752,-130 2832,-130 2832,-78 2752,-78"/>
</g>
<g id="clust25" class="cluster">
<title>cluster_HomePageModule</title>
<polygon fill="none" stroke="#000000" stroke-dasharray="1,5" points="2862,-70 2862,-198 2998,-198 2998,-70 2862,-70"/>
</g>
<g id="clust26" class="cluster">
<title>cluster_HomePageModule_declarations</title>
<polygon fill="none" stroke="#000000" points="2883,-78 2883,-130 2977,-130 2977,-78 2883,-78"/>
</g>
<g id="clust32" class="cluster">
<title>cluster_ListPageModule</title>
<polygon fill="none" stroke="#000000" stroke-dasharray="1,5" points="3006,-70 3006,-198 4346,-198 4346,-70 3006,-70"/>
</g>
<g id="clust33" class="cluster">
<title>cluster_ListPageModule_declarations</title>
<polygon fill="none" stroke="#000000" points="3014,-78 3014,-130 4338,-130 4338,-78 3014,-78"/>
</g>
<g id="clust48" class="cluster">
<title>cluster_ProfilePageModule</title>
<polygon fill="none" stroke="#000000" stroke-dasharray="1,5" points="4354,-70 4354,-198 4494,-198 4494,-70 4354,-70"/>
</g>
<g id="clust49" class="cluster">
<title>cluster_ProfilePageModule_declarations</title>
<polygon fill="none" stroke="#000000" points="4375,-78 4375,-130 4473,-130 4473,-78 4375,-78"/>
</g>
<g id="clust55" class="cluster">
<title>cluster_SharedModule</title>
<polygon fill="none" stroke="#000000" stroke-dasharray="1,5" points="1147,-138 1147,-206 2722,-206 2722,-138 1147,-138"/>
</g>
<g id="clust56" class="cluster">
<title>cluster_SharedModule_declarations</title>
<polygon fill="none" stroke="#000000" points="1948,-146 1948,-198 2714,-198 2714,-146 1948,-146"/>
</g>
<g id="clust63" class="cluster">
<title>cluster_SharedModule_exports</title>
<polygon fill="none" stroke="#000000" points="1155,-146 1155,-198 1940,-198 1940,-146 1155,-146"/>
</g>
<g id="clust66" class="cluster">
<title>cluster_TestimonialsPageModule</title>
<polygon fill="none" stroke="#000000" stroke-dasharray="1,5" points="4502,-70 4502,-198 4678,-198 4678,-70 4502,-70"/>
</g>
<g id="clust67" class="cluster">
<title>cluster_TestimonialsPageModule_declarations</title>
<polygon fill="none" stroke="#000000" points="4524,-78 4524,-130 4656,-130 4656,-78 4524,-78"/>
</g>
<g id="clust73" class="cluster">
<title>cluster_TweeterPageModule</title>
<polygon fill="none" stroke="#000000" stroke-dasharray="1,5" points="4686,-70 4686,-198 4834,-198 4834,-70 4686,-70"/>
</g>
<g id="clust74" class="cluster">
<title>cluster_TweeterPageModule_declarations</title>
<polygon fill="none" stroke="#000000" points="4707,-78 4707,-130 4813,-130 4813,-78 4707,-78"/>
</g>
<!-- AppComponent -->
<g id="node1" class="node">
<title>AppComponent</title>
<polygon fill="#ffffb3" stroke="#000000" points="129.9399,-122 24.0601,-122 24.0601,-86 129.9399,-86 129.9399,-122"/>
<text text-anchor="middle" x="77" y="-99.8" font-family="Times,serif" font-size="14.00" fill="#000000">AppComponent</text>
</g>
<!-- AppModule -->
<g id="node6" class="node">
<title>AppModule</title>
<polygon fill="#8dd3c7" stroke="#000000" points="630.6571,-190 627.6571,-194 606.6571,-194 603.6571,-190 547.3429,-190 547.3429,-154 630.6571,-154 630.6571,-190"/>
<text text-anchor="middle" x="589" y="-167.8" font-family="Times,serif" font-size="14.00" fill="#000000">AppModule</text>
</g>
<!-- AppComponent&#45;&gt;AppModule -->
<g id="edge1" class="edge">
<title>AppComponent&#45;&gt;AppModule</title>
<path fill="none" stroke="#000000" d="M77,-122.2479C77,-145.0179 77,-181 77,-181 77,-181 537.1009,-181 537.1009,-181"/>
<polygon fill="#000000" stroke="#000000" points="537.1009,-184.5001 547.1009,-181 537.1009,-177.5001 537.1009,-184.5001"/>
</g>
<!-- ForgotPasswordComponent -->
<g id="node2" class="node">
<title>ForgotPasswordComponent</title>
<polygon fill="#ffffb3" stroke="#000000" points="854.3201,-122 681.6799,-122 681.6799,-86 854.3201,-86 854.3201,-122"/>
<text text-anchor="middle" x="768" y="-99.8" font-family="Times,serif" font-size="14.00" fill="#000000">ForgotPasswordComponent</text>
</g>
<!-- ForgotPasswordComponent&#45;&gt;AppModule -->
<g id="edge2" class="edge">
<title>ForgotPasswordComponent&#45;&gt;AppModule</title>
<path fill="none" stroke="#000000" d="M695.1548,-122.0336C695.1548,-139.0597 695.1548,-162 695.1548,-162 695.1548,-162 640.9552,-162 640.9552,-162"/>
<polygon fill="#000000" stroke="#000000" points="640.9552,-158.5001 630.9552,-162 640.9552,-165.5001 640.9552,-158.5001"/>
</g>
<!-- LaunchPageComponent -->
<g id="node3" class="node">
<title>LaunchPageComponent</title>
<polygon fill="#ffffb3" stroke="#000000" points="664.0267,-122 513.9733,-122 513.9733,-86 664.0267,-86 664.0267,-122"/>
<text text-anchor="middle" x="589" y="-99.8" font-family="Times,serif" font-size="14.00" fill="#000000">LaunchPageComponent</text>
</g>
<!-- LaunchPageComponent&#45;&gt;AppModule -->
<g id="edge3" class="edge">
<title>LaunchPageComponent&#45;&gt;AppModule</title>
<path fill="none" stroke="#000000" d="M589,-122.2228C589,-122.2228 589,-143.7269 589,-143.7269"/>
<polygon fill="#000000" stroke="#000000" points="585.5001,-143.7269 589,-153.7269 592.5001,-143.727 585.5001,-143.7269"/>
</g>
<!-- SubscriptionPageComponent -->
<g id="node4" class="node">
<title>SubscriptionPageComponent</title>
<polygon fill="#ffffb3" stroke="#000000" points="495.8187,-122 316.1813,-122 316.1813,-86 495.8187,-86 495.8187,-122"/>
<text text-anchor="middle" x="406" y="-99.8" font-family="Times,serif" font-size="14.00" fill="#000000">SubscriptionPageComponent</text>
</g>
<!-- SubscriptionPageComponent&#45;&gt;AppModule -->
<g id="edge4" class="edge">
<title>SubscriptionPageComponent&#45;&gt;AppModule</title>
<path fill="none" stroke="#000000" d="M484.8491,-122.0225C484.8491,-139.3734 484.8491,-163 484.8491,-163 484.8491,-163 537.2379,-163 537.2379,-163"/>
<polygon fill="#000000" stroke="#000000" points="537.238,-166.5001 547.2379,-163 537.2379,-159.5001 537.238,-166.5001"/>
</g>
<!-- VerifyEmailComponent -->
<g id="node5" class="node">
<title>VerifyEmailComponent</title>
<polygon fill="#ffffb3" stroke="#000000" points="298.8047,-122 147.1953,-122 147.1953,-86 298.8047,-86 298.8047,-122"/>
<text text-anchor="middle" x="223" y="-99.8" font-family="Times,serif" font-size="14.00" fill="#000000">VerifyEmailComponent</text>
</g>
<!-- VerifyEmailComponent&#45;&gt;AppModule -->
<g id="edge5" class="edge">
<title>VerifyEmailComponent&#45;&gt;AppModule</title>
<path fill="none" stroke="#000000" d="M223,-122.2228C223,-142.3652 223,-172 223,-172 223,-172 537.0151,-172 537.0151,-172"/>
<polygon fill="#000000" stroke="#000000" points="537.0152,-175.5001 547.0151,-172 537.0151,-168.5001 537.0152,-175.5001"/>
</g>
<!-- SharedModule  -->
<g id="node9" class="node">
<title>SharedModule </title>
<polygon fill="#fb8072" stroke="#000000" points="575.9222,-258 474.0778,-258 474.0778,-222 575.9222,-222 575.9222,-258"/>
<text text-anchor="middle" x="525" y="-235.8" font-family="Times,serif" font-size="14.00" fill="#000000">SharedModule </text>
</g>
<!-- AppModule&#45;&gt;SharedModule  -->
<g id="edge8" class="edge">
<title>AppModule&#45;&gt;SharedModule </title>
<path fill="none" stroke="#000000" stroke-dasharray="5,2" d="M561.5665,-190.2228C561.5665,-190.2228 561.5665,-211.7269 561.5665,-211.7269"/>
<polygon fill="#000000" stroke="#000000" points="558.0665,-211.7269 561.5665,-221.7269 565.0665,-211.727 558.0665,-211.7269"/>
</g>
<!-- AppComponent  -->
<g id="node10" class="node">
<title>AppComponent </title>
<polygon fill="#80b1d3" stroke="#000000" points="708.439,-258 599.561,-258 599.561,-222 708.439,-222 708.439,-258"/>
<text text-anchor="middle" x="654" y="-235.8" font-family="Times,serif" font-size="14.00" fill="#000000">AppComponent </text>
</g>
<!-- AppModule&#45;&gt;AppComponent  -->
<g id="edge9" class="edge">
<title>AppModule&#45;&gt;AppComponent </title>
<path fill="none" stroke="#000000" stroke-dasharray="1,5" d="M615.1794,-190.2228C615.1794,-190.2228 615.1794,-211.7269 615.1794,-211.7269"/>
<polygon fill="#000000" stroke="#000000" points="611.6794,-211.7269 615.1794,-221.7269 618.6794,-211.727 611.6794,-211.7269"/>
</g>
<!-- AppRoutingModule -->
<g id="node7" class="node">
<title>AppRoutingModule</title>
<polygon fill="#8dd3c7" stroke="#000000" points="1006.2744,-122 1003.2744,-126 982.2744,-126 979.2744,-122 877.7256,-122 877.7256,-86 1006.2744,-86 1006.2744,-122"/>
<text text-anchor="middle" x="942" y="-99.8" font-family="Times,serif" font-size="14.00" fill="#000000">AppRoutingModule</text>
</g>
<!-- AppRoutingModule&#45;&gt;AppModule -->
<g id="edge6" class="edge">
<title>AppRoutingModule&#45;&gt;AppModule</title>
<path fill="none" stroke="#000000" d="M942,-122.1061C942,-141.3391 942,-169 942,-169 942,-169 640.8799,-169 640.8799,-169"/>
<polygon fill="#000000" stroke="#000000" points="640.88,-165.5001 630.8799,-169 640.8799,-172.5001 640.88,-165.5001"/>
</g>
<!-- SharedModule -->
<g id="node8" class="node">
<title>SharedModule</title>
<polygon fill="#8dd3c7" stroke="#000000" points="1123.4231,-122 1120.4231,-126 1099.4231,-126 1096.4231,-122 1024.5769,-122 1024.5769,-86 1123.4231,-86 1123.4231,-122"/>
<text text-anchor="middle" x="1074" y="-99.8" font-family="Times,serif" font-size="14.00" fill="#000000">SharedModule</text>
</g>
<!-- SharedModule&#45;&gt;AppModule -->
<g id="edge7" class="edge">
<title>SharedModule&#45;&gt;AppModule</title>
<path fill="none" stroke="#000000" d="M1098.6056,-122.1686C1098.6056,-143.498 1098.6056,-176 1098.6056,-176 1098.6056,-176 640.7032,-176 640.7032,-176"/>
<polygon fill="#000000" stroke="#000000" points="640.7032,-172.5001 630.7032,-176 640.7031,-179.5001 640.7032,-172.5001"/>
</g>
<!-- FaqPageModule -->
<g id="node12" class="node">
<title>FaqPageModule</title>
<polygon fill="#8dd3c7" stroke="#000000" points="2845.7591,-190 2842.7591,-194 2821.7591,-194 2818.7591,-190 2738.2409,-190 2738.2409,-154 2845.7591,-154 2845.7591,-190"/>
<text text-anchor="middle" x="2792" y="-167.8" font-family="Times,serif" font-size="14.00" fill="#000000">FaqPageModule</text>
</g>
<!-- SharedModule&#45;&gt;FaqPageModule -->
<g id="edge11" class="edge">
<title>SharedModule&#45;&gt;FaqPageModule</title>
<path fill="none" stroke="#000000" d="M1123.2227,-90C1399.896,-90 2749.0081,-90 2749.0081,-90 2749.0081,-90 2749.0081,-143.8015 2749.0081,-143.8015"/>
<polygon fill="#000000" stroke="#000000" points="2745.5081,-143.8015 2749.0081,-153.8015 2752.5081,-143.8016 2745.5081,-143.8015"/>
</g>
<!-- HomePageModule -->
<g id="node14" class="node">
<title>HomePageModule</title>
<polygon fill="#8dd3c7" stroke="#000000" points="2990.4734,-190 2987.4734,-194 2966.4734,-194 2963.4734,-190 2869.5266,-190 2869.5266,-154 2990.4734,-154 2990.4734,-190"/>
<text text-anchor="middle" x="2930" y="-167.8" font-family="Times,serif" font-size="14.00" fill="#000000">HomePageModule</text>
</g>
<!-- SharedModule&#45;&gt;HomePageModule -->
<g id="edge13" class="edge">
<title>SharedModule&#45;&gt;HomePageModule</title>
<path fill="none" stroke="#000000" d="M1037.0917,-122.0439C1037.0917,-134.5633 1037.0917,-149 1037.0917,-149 1037.0917,-149 2880.4007,-149 2880.4007,-149 2880.4007,-149 2880.4007,-149.4878 2880.4007,-149.4878"/>
<polygon fill="#000000" stroke="#000000" points="2876.901,-143.8776 2880.4007,-153.8777 2883.901,-143.8778 2876.901,-143.8776"/>
</g>
<!-- ListPageModule -->
<g id="node25" class="node">
<title>ListPageModule</title>
<polygon fill="#8dd3c7" stroke="#000000" points="3688.041,-190 3685.041,-194 3664.041,-194 3661.041,-190 3579.959,-190 3579.959,-154 3688.041,-154 3688.041,-190"/>
<text text-anchor="middle" x="3634" y="-167.8" font-family="Times,serif" font-size="14.00" fill="#000000">ListPageModule</text>
</g>
<!-- SharedModule&#45;&gt;ListPageModule -->
<g id="edge24" class="edge">
<title>SharedModule&#45;&gt;ListPageModule</title>
<path fill="none" stroke="#000000" d="M1049.3945,-122.1274C1049.3945,-132.7109 1049.3945,-144 1049.3945,-144 1049.3945,-144 3615.91,-144 3615.91,-144 3615.91,-144 3615.91,-144.9793 3615.91,-144.9793"/>
<polygon fill="#000000" stroke="#000000" points="3612.4101,-143.793 3615.91,-153.793 3619.4101,-143.7931 3612.4101,-143.793"/>
</g>
<!-- ProfilePageModule -->
<g id="node27" class="node">
<title>ProfilePageModule</title>
<polygon fill="#8dd3c7" stroke="#000000" points="4486.3613,-190 4483.3613,-194 4462.3613,-194 4459.3613,-190 4361.6387,-190 4361.6387,-154 4486.3613,-154 4486.3613,-190"/>
<text text-anchor="middle" x="4424" y="-167.8" font-family="Times,serif" font-size="14.00" fill="#000000">ProfilePageModule</text>
</g>
<!-- SharedModule&#45;&gt;ProfilePageModule -->
<g id="edge26" class="edge">
<title>SharedModule&#45;&gt;ProfilePageModule</title>
<path fill="none" stroke="#000000" d="M1061.6972,-122.1944C1061.6972,-130.2782 1061.6972,-138 1061.6972,-138 1061.6972,-138 4372.4569,-138 4372.4569,-138 4372.4569,-138 4372.4569,-143.8056 4372.4569,-143.8056"/>
<polygon fill="#000000" stroke="#000000" points="4368.9569,-143.8055 4372.4569,-153.8056 4375.9569,-143.8056 4368.9569,-143.8055"/>
</g>
<!-- FooterComponent  -->
<g id="node33" class="node">
<title>FooterComponent </title>
<polygon fill="#fb8072" stroke="#000000" points="1284.8814,-190 1163.1186,-190 1163.1186,-154 1284.8814,-154 1284.8814,-190"/>
<text text-anchor="middle" x="1224" y="-167.8" font-family="Times,serif" font-size="14.00" fill="#000000">FooterComponent </text>
</g>
<!-- SharedModule&#45;&gt;FooterComponent  -->
<g id="edge32" class="edge">
<title>SharedModule&#45;&gt;FooterComponent </title>
<path fill="none" stroke="#000000" stroke-dasharray="5,2" d="M1110.9083,-122.3228C1110.9083,-145.6602 1110.9083,-183 1110.9083,-183 1110.9083,-183 1153.1507,-183 1153.1507,-183"/>
<polygon fill="#000000" stroke="#000000" points="1153.1507,-186.5001 1163.1507,-183 1153.1506,-179.5001 1153.1507,-186.5001"/>
</g>
<!-- HeaderComponent  -->
<g id="node34" class="node">
<title>HeaderComponent </title>
<polygon fill="#fb8072" stroke="#000000" points="1931.7436,-190 1806.2564,-190 1806.2564,-154 1931.7436,-154 1931.7436,-190"/>
<text text-anchor="middle" x="1869" y="-167.8" font-family="Times,serif" font-size="14.00" fill="#000000">HeaderComponent </text>
</g>
<!-- SharedModule&#45;&gt;HeaderComponent  -->
<g id="edge33" class="edge">
<title>SharedModule&#45;&gt;HeaderComponent </title>
<path fill="none" stroke="#000000" stroke-dasharray="5,2" d="M1123.4304,-109C1297.1174,-109 1869,-109 1869,-109 1869,-109 1869,-143.7778 1869,-143.7778"/>
<polygon fill="#000000" stroke="#000000" points="1865.5001,-143.7778 1869,-153.7778 1872.5001,-143.7778 1865.5001,-143.7778"/>
</g>
<!-- MembershipsComponent  -->
<g id="node35" class="node">
<title>MembershipsComponent </title>
<polygon fill="#fb8072" stroke="#000000" points="1788.5372,-190 1627.4628,-190 1627.4628,-154 1788.5372,-154 1788.5372,-190"/>
<text text-anchor="middle" x="1708" y="-167.8" font-family="Times,serif" font-size="14.00" fill="#000000">MembershipsComponent </text>
</g>
<!-- SharedModule&#45;&gt;MembershipsComponent  -->
<g id="edge34" class="edge">
<title>SharedModule&#45;&gt;MembershipsComponent </title>
<path fill="none" stroke="#000000" stroke-dasharray="5,2" d="M1123.2214,-113C1272.1824,-113 1708,-113 1708,-113 1708,-113 1708,-143.9775 1708,-143.9775"/>
<polygon fill="#000000" stroke="#000000" points="1704.5001,-143.9774 1708,-153.9775 1711.5001,-143.9775 1704.5001,-143.9774"/>
</g>
<!-- SignInComponent  -->
<g id="node36" class="node">
<title>SignInComponent </title>
<polygon fill="#fb8072" stroke="#000000" points="1609.1663,-190 1486.8337,-190 1486.8337,-154 1609.1663,-154 1609.1663,-190"/>
<text text-anchor="middle" x="1548" y="-167.8" font-family="Times,serif" font-size="14.00" fill="#000000">SignInComponent </text>
</g>
<!-- SharedModule&#45;&gt;SignInComponent  -->
<g id="edge35" class="edge">
<title>SharedModule&#45;&gt;SignInComponent </title>
<path fill="none" stroke="#000000" stroke-dasharray="5,2" d="M1123.3849,-116C1244.7881,-116 1548,-116 1548,-116 1548,-116 1548,-143.973 1548,-143.973"/>
<polygon fill="#000000" stroke="#000000" points="1544.5001,-143.973 1548,-153.973 1551.5001,-143.973 1544.5001,-143.973"/>
</g>
<!-- SupportModalComponent  -->
<g id="node37" class="node">
<title>SupportModalComponent </title>
<polygon fill="#fb8072" stroke="#000000" points="1468.7162,-190 1303.2838,-190 1303.2838,-154 1468.7162,-154 1468.7162,-190"/>
<text text-anchor="middle" x="1386" y="-167.8" font-family="Times,serif" font-size="14.00" fill="#000000">SupportModalComponent </text>
</g>
<!-- SharedModule&#45;&gt;SupportModalComponent  -->
<g id="edge36" class="edge">
<title>SharedModule&#45;&gt;SupportModalComponent </title>
<path fill="none" stroke="#000000" stroke-dasharray="5,2" d="M1123.4373,-119C1211.4129,-119 1386,-119 1386,-119 1386,-119 1386,-143.7604 1386,-143.7604"/>
<polygon fill="#000000" stroke="#000000" points="1382.5001,-143.7604 1386,-153.7604 1389.5001,-143.7604 1382.5001,-143.7604"/>
</g>
<!-- TestimonialsPageModule -->
<g id="node39" class="node">
<title>TestimonialsPageModule</title>
<polygon fill="#8dd3c7" stroke="#000000" points="4669.5856,-190 4666.5856,-194 4645.5856,-194 4642.5856,-190 4510.4144,-190 4510.4144,-154 4669.5856,-154 4669.5856,-190"/>
<text text-anchor="middle" x="4590" y="-167.8" font-family="Times,serif" font-size="14.00" fill="#000000">TestimonialsPageModule</text>
</g>
<!-- SharedModule&#45;&gt;TestimonialsPageModule -->
<g id="edge38" class="edge">
<title>SharedModule&#45;&gt;TestimonialsPageModule</title>
<path fill="none" stroke="#000000" d="M1074,-122.2015C1074,-128.028 1074,-133 1074,-133 1074,-133 4521.3447,-133 4521.3447,-133 4521.3447,-133 4521.3447,-143.8701 4521.3447,-143.8701"/>
<polygon fill="#000000" stroke="#000000" points="4517.8447,-143.8701 4521.3447,-153.8701 4524.8447,-143.8701 4517.8447,-143.8701"/>
</g>
<!-- TweeterPageModule -->
<g id="node41" class="node">
<title>TweeterPageModule</title>
<polygon fill="#8dd3c7" stroke="#000000" points="4826.1164,-190 4823.1164,-194 4802.1164,-194 4799.1164,-190 4693.8836,-190 4693.8836,-154 4826.1164,-154 4826.1164,-190"/>
<text text-anchor="middle" x="4760" y="-167.8" font-family="Times,serif" font-size="14.00" fill="#000000">TweeterPageModule</text>
</g>
<!-- SharedModule&#45;&gt;TweeterPageModule -->
<g id="edge40" class="edge">
<title>SharedModule&#45;&gt;TweeterPageModule</title>
<path fill="none" stroke="#000000" d="M1086.3028,-122.1903C1086.3028,-125.5376 1086.3028,-128 1086.3028,-128 1086.3028,-128 4704.5796,-128 4704.5796,-128 4704.5796,-128 4704.5796,-143.8495 4704.5796,-143.8495"/>
<polygon fill="#000000" stroke="#000000" points="4701.0796,-143.8494 4704.5796,-153.8495 4708.0796,-143.8495 4701.0796,-143.8494"/>
</g>
<!-- FaqPage -->
<g id="node11" class="node">
<title>FaqPage</title>
<polygon fill="#ffffb3" stroke="#000000" points="2824.2093,-122 2759.7907,-122 2759.7907,-86 2824.2093,-86 2824.2093,-122"/>
<text text-anchor="middle" x="2792" y="-99.8" font-family="Times,serif" font-size="14.00" fill="#000000">FaqPage</text>
</g>
<!-- FaqPage&#45;&gt;FaqPageModule -->
<g id="edge10" class="edge">
<title>FaqPage&#45;&gt;FaqPageModule</title>
<path fill="none" stroke="#000000" d="M2792,-122.2228C2792,-122.2228 2792,-143.7269 2792,-143.7269"/>
<polygon fill="#000000" stroke="#000000" points="2788.5001,-143.7269 2792,-153.7269 2795.5001,-143.727 2788.5001,-143.7269"/>
</g>
<!-- HomePage -->
<g id="node13" class="node">
<title>HomePage</title>
<polygon fill="#ffffb3" stroke="#000000" points="2968.9248,-122 2891.0752,-122 2891.0752,-86 2968.9248,-86 2968.9248,-122"/>
<text text-anchor="middle" x="2930" y="-99.8" font-family="Times,serif" font-size="14.00" fill="#000000">HomePage</text>
</g>
<!-- HomePage&#45;&gt;HomePageModule -->
<g id="edge12" class="edge">
<title>HomePage&#45;&gt;HomePageModule</title>
<path fill="none" stroke="#000000" d="M2930,-122.2228C2930,-122.2228 2930,-143.7269 2930,-143.7269"/>
<polygon fill="#000000" stroke="#000000" points="2926.5001,-143.7269 2930,-153.7269 2933.5001,-143.727 2926.5001,-143.7269"/>
</g>
<!-- ListPage -->
<g id="node15" class="node">
<title>ListPage</title>
<polygon fill="#ffffb3" stroke="#000000" points="3777.4902,-122 3712.5098,-122 3712.5098,-86 3777.4902,-86 3777.4902,-122"/>
<text text-anchor="middle" x="3745" y="-99.8" font-family="Times,serif" font-size="14.00" fill="#000000">ListPage</text>
</g>
<!-- ListPage&#45;&gt;ListPageModule -->
<g id="edge14" class="edge">
<title>ListPage&#45;&gt;ListPageModule</title>
<path fill="none" stroke="#000000" d="M3745,-122.027C3745,-138.3976 3745,-160 3745,-160 3745,-160 3698.1993,-160 3698.1993,-160"/>
<polygon fill="#000000" stroke="#000000" points="3698.1994,-156.5001 3688.1993,-160 3698.1993,-163.5001 3698.1994,-156.5001"/>
</g>
<!-- Table1Component -->
<g id="node16" class="node">
<title>Table1Component</title>
<polygon fill="#ffffb3" stroke="#000000" points="3694.205,-122 3573.795,-122 3573.795,-86 3694.205,-86 3694.205,-122"/>
<text text-anchor="middle" x="3634" y="-99.8" font-family="Times,serif" font-size="14.00" fill="#000000">Table1Component</text>
</g>
<!-- Table1Component&#45;&gt;ListPageModule -->
<g id="edge15" class="edge">
<title>Table1Component&#45;&gt;ListPageModule</title>
<path fill="none" stroke="#000000" d="M3652.09,-122.2228C3652.09,-122.2228 3652.09,-143.7269 3652.09,-143.7269"/>
<polygon fill="#000000" stroke="#000000" points="3648.5901,-143.7269 3652.09,-153.7269 3655.5901,-143.727 3648.5901,-143.7269"/>
</g>
<!-- Table2Component -->
<g id="node17" class="node">
<title>Table2Component</title>
<polygon fill="#ffffb3" stroke="#000000" points="3556.205,-122 3435.795,-122 3435.795,-86 3556.205,-86 3556.205,-122"/>
<text text-anchor="middle" x="3496" y="-99.8" font-family="Times,serif" font-size="14.00" fill="#000000">Table2Component</text>
</g>
<!-- Table2Component&#45;&gt;ListPageModule -->
<g id="edge16" class="edge">
<title>Table2Component&#45;&gt;ListPageModule</title>
<path fill="none" stroke="#000000" d="M3496,-122.0336C3496,-139.0597 3496,-162 3496,-162 3496,-162 3569.8548,-162 3569.8548,-162"/>
<polygon fill="#000000" stroke="#000000" points="3569.8549,-165.5001 3579.8548,-162 3569.8548,-158.5001 3569.8549,-165.5001"/>
</g>
<!-- Table3Component -->
<g id="node18" class="node">
<title>Table3Component</title>
<polygon fill="#ffffb3" stroke="#000000" points="3418.205,-122 3297.795,-122 3297.795,-86 3418.205,-86 3418.205,-122"/>
<text text-anchor="middle" x="3358" y="-99.8" font-family="Times,serif" font-size="14.00" fill="#000000">Table3Component</text>
</g>
<!-- Table3Component&#45;&gt;ListPageModule -->
<g id="edge17" class="edge">
<title>Table3Component&#45;&gt;ListPageModule</title>
<path fill="none" stroke="#000000" d="M3358,-122.1061C3358,-141.3391 3358,-169 3358,-169 3358,-169 3569.8006,-169 3569.8006,-169"/>
<polygon fill="#000000" stroke="#000000" points="3569.8006,-172.5001 3579.8006,-169 3569.8006,-165.5001 3569.8006,-172.5001"/>
</g>
<!-- Table4Component -->
<g id="node19" class="node">
<title>Table4Component</title>
<polygon fill="#ffffb3" stroke="#000000" points="3280.205,-122 3159.795,-122 3159.795,-86 3280.205,-86 3280.205,-122"/>
<text text-anchor="middle" x="3220" y="-99.8" font-family="Times,serif" font-size="14.00" fill="#000000">Table4Component</text>
</g>
<!-- Table4Component&#45;&gt;ListPageModule -->
<g id="edge18" class="edge">
<title>Table4Component&#45;&gt;ListPageModule</title>
<path fill="none" stroke="#000000" d="M3220,-122.1686C3220,-143.498 3220,-176 3220,-176 3220,-176 3569.8767,-176 3569.8767,-176"/>
<polygon fill="#000000" stroke="#000000" points="3569.8768,-179.5001 3579.8767,-176 3569.8767,-172.5001 3569.8768,-179.5001"/>
</g>
<!-- Table5Component -->
<g id="node20" class="node">
<title>Table5Component</title>
<polygon fill="#ffffb3" stroke="#000000" points="3142.205,-122 3021.795,-122 3021.795,-86 3142.205,-86 3142.205,-122"/>
<text text-anchor="middle" x="3082" y="-99.8" font-family="Times,serif" font-size="14.00" fill="#000000">Table5Component</text>
</g>
<!-- Table5Component&#45;&gt;ListPageModule -->
<g id="edge19" class="edge">
<title>Table5Component&#45;&gt;ListPageModule</title>
<path fill="none" stroke="#000000" d="M3082,-122.3228C3082,-145.6602 3082,-183 3082,-183 3082,-183 3569.8144,-183 3569.8144,-183"/>
<polygon fill="#000000" stroke="#000000" points="3569.8144,-186.5001 3579.8144,-183 3569.8143,-179.5001 3569.8144,-186.5001"/>
</g>
<!-- Table6Component -->
<g id="node21" class="node">
<title>Table6Component</title>
<polygon fill="#ffffb3" stroke="#000000" points="4330.205,-122 4209.795,-122 4209.795,-86 4330.205,-86 4330.205,-122"/>
<text text-anchor="middle" x="4270" y="-99.8" font-family="Times,serif" font-size="14.00" fill="#000000">Table6Component</text>
</g>
<!-- Table6Component&#45;&gt;ListPageModule -->
<g id="edge20" class="edge">
<title>Table6Component&#45;&gt;ListPageModule</title>
<path fill="none" stroke="#000000" d="M4270,-122.1532C4270,-145.7566 4270,-184 4270,-184 4270,-184 3698.225,-184 3698.225,-184"/>
<polygon fill="#000000" stroke="#000000" points="3698.225,-180.5001 3688.225,-184 3698.225,-187.5001 3698.225,-180.5001"/>
</g>
<!-- Table7Component -->
<g id="node22" class="node">
<title>Table7Component</title>
<polygon fill="#ffffb3" stroke="#000000" points="4192.205,-122 4071.795,-122 4071.795,-86 4192.205,-86 4192.205,-122"/>
<text text-anchor="middle" x="4132" y="-99.8" font-family="Times,serif" font-size="14.00" fill="#000000">Table7Component</text>
</g>
<!-- Table7Component&#45;&gt;ListPageModule -->
<g id="edge21" class="edge">
<title>Table7Component&#45;&gt;ListPageModule</title>
<path fill="none" stroke="#000000" d="M4132,-122.2921C4132,-144.2057 4132,-178 4132,-178 4132,-178 3698.2427,-178 3698.2427,-178"/>
<polygon fill="#000000" stroke="#000000" points="3698.2428,-174.5001 3688.2427,-178 3698.2427,-181.5001 3698.2428,-174.5001"/>
</g>
<!-- Table8Component -->
<g id="node23" class="node">
<title>Table8Component</title>
<polygon fill="#ffffb3" stroke="#000000" points="4054.205,-122 3933.795,-122 3933.795,-86 4054.205,-86 4054.205,-122"/>
<text text-anchor="middle" x="3994" y="-99.8" font-family="Times,serif" font-size="14.00" fill="#000000">Table8Component</text>
</g>
<!-- Table8Component&#45;&gt;ListPageModule -->
<g id="edge22" class="edge">
<title>Table8Component&#45;&gt;ListPageModule</title>
<path fill="none" stroke="#000000" d="M3994,-122.2228C3994,-142.3652 3994,-172 3994,-172 3994,-172 3698.2854,-172 3698.2854,-172"/>
<polygon fill="#000000" stroke="#000000" points="3698.2855,-168.5001 3688.2854,-172 3698.2854,-175.5001 3698.2855,-168.5001"/>
</g>
<!-- Table9Component -->
<g id="node24" class="node">
<title>Table9Component</title>
<polygon fill="#ffffb3" stroke="#000000" points="3916.205,-122 3795.795,-122 3795.795,-86 3916.205,-86 3916.205,-122"/>
<text text-anchor="middle" x="3856" y="-99.8" font-family="Times,serif" font-size="14.00" fill="#000000">Table9Component</text>
</g>
<!-- Table9Component&#45;&gt;ListPageModule -->
<g id="edge23" class="edge">
<title>Table9Component&#45;&gt;ListPageModule</title>
<path fill="none" stroke="#000000" d="M3856,-122.2667C3856,-140.5552 3856,-166 3856,-166 3856,-166 3698.3073,-166 3698.3073,-166"/>
<polygon fill="#000000" stroke="#000000" points="3698.3073,-162.5001 3688.3073,-166 3698.3073,-169.5001 3698.3073,-162.5001"/>
</g>
<!-- ProfilePage -->
<g id="node26" class="node">
<title>ProfilePage</title>
<polygon fill="#ffffb3" stroke="#000000" points="4464.812,-122 4383.188,-122 4383.188,-86 4464.812,-86 4464.812,-122"/>
<text text-anchor="middle" x="4424" y="-99.8" font-family="Times,serif" font-size="14.00" fill="#000000">ProfilePage</text>
</g>
<!-- ProfilePage&#45;&gt;ProfilePageModule -->
<g id="edge25" class="edge">
<title>ProfilePage&#45;&gt;ProfilePageModule</title>
<path fill="none" stroke="#000000" d="M4424,-122.2228C4424,-122.2228 4424,-143.7269 4424,-143.7269"/>
<polygon fill="#000000" stroke="#000000" points="4420.5001,-143.7269 4424,-153.7269 4427.5001,-143.727 4420.5001,-143.7269"/>
</g>
<!-- FooterComponent -->
<g id="node28" class="node">
<title>FooterComponent</title>
<polygon fill="#ffffb3" stroke="#000000" points="2073.8809,-190 1956.1191,-190 1956.1191,-154 2073.8809,-154 2073.8809,-190"/>
<text text-anchor="middle" x="2015" y="-167.8" font-family="Times,serif" font-size="14.00" fill="#000000">FooterComponent</text>
</g>
<!-- FooterComponent&#45;&gt;SharedModule -->
<g id="edge27" class="edge">
<title>FooterComponent&#45;&gt;SharedModule</title>
<path fill="none" stroke="#000000" d="M2015,-153.9652C2015,-134.4238 2015,-106 2015,-106 2015,-106 1133.2674,-106 1133.2674,-106"/>
<polygon fill="#000000" stroke="#000000" points="1133.2674,-102.5001 1123.2674,-106 1133.2673,-109.5001 1133.2674,-102.5001"/>
</g>
<!-- HeaderComponent -->
<g id="node29" class="node">
<title>HeaderComponent</title>
<polygon fill="#ffffb3" stroke="#000000" points="2705.7437,-190 2584.2563,-190 2584.2563,-154 2705.7437,-154 2705.7437,-190"/>
<text text-anchor="middle" x="2645" y="-167.8" font-family="Times,serif" font-size="14.00" fill="#000000">HeaderComponent</text>
</g>
<!-- HeaderComponent&#45;&gt;SharedModule -->
<g id="edge28" class="edge">
<title>HeaderComponent&#45;&gt;SharedModule</title>
<path fill="none" stroke="#000000" d="M2645,-153.6772C2645,-130.3398 2645,-93 2645,-93 2645,-93 1133.6116,-93 1133.6116,-93"/>
<polygon fill="#000000" stroke="#000000" points="1133.6116,-89.5001 1123.6116,-93 1133.6116,-96.5001 1133.6116,-89.5001"/>
</g>
<!-- MembershipsComponent -->
<g id="node30" class="node">
<title>MembershipsComponent</title>
<polygon fill="#ffffb3" stroke="#000000" points="2565.5379,-190 2408.4621,-190 2408.4621,-154 2565.5379,-154 2565.5379,-190"/>
<text text-anchor="middle" x="2487" y="-167.8" font-family="Times,serif" font-size="14.00" fill="#000000">MembershipsComponent</text>
</g>
<!-- MembershipsComponent&#45;&gt;SharedModule -->
<g id="edge29" class="edge">
<title>MembershipsComponent&#45;&gt;SharedModule</title>
<path fill="none" stroke="#000000" d="M2487,-153.9891C2487,-131.5148 2487,-96 2487,-96 2487,-96 1133.4609,-96 1133.4609,-96"/>
<polygon fill="#000000" stroke="#000000" points="1133.4609,-92.5001 1123.4609,-96 1133.4609,-99.5001 1133.4609,-92.5001"/>
</g>
<!-- SignInComponent -->
<g id="node31" class="node">
<title>SignInComponent</title>
<polygon fill="#ffffb3" stroke="#000000" points="2390.1667,-190 2271.8333,-190 2271.8333,-154 2390.1667,-154 2390.1667,-190"/>
<text text-anchor="middle" x="2331" y="-167.8" font-family="Times,serif" font-size="14.00" fill="#000000">SignInComponent</text>
</g>
<!-- SignInComponent&#45;&gt;SharedModule -->
<g id="edge30" class="edge">
<title>SignInComponent&#45;&gt;SharedModule</title>
<path fill="none" stroke="#000000" d="M2331,-153.8314C2331,-132.502 2331,-100 2331,-100 2331,-100 1133.2759,-100 1133.2759,-100"/>
<polygon fill="#000000" stroke="#000000" points="1133.2759,-96.5001 1123.2759,-100 1133.2759,-103.5001 1133.2759,-96.5001"/>
</g>
<!-- SupportModalComponent -->
<g id="node32" class="node">
<title>SupportModalComponent</title>
<polygon fill="#ffffb3" stroke="#000000" points="2254.2161,-190 2091.7839,-190 2091.7839,-154 2254.2161,-154 2254.2161,-190"/>
<text text-anchor="middle" x="2173" y="-167.8" font-family="Times,serif" font-size="14.00" fill="#000000">SupportModalComponent</text>
</g>
<!-- SupportModalComponent&#45;&gt;SharedModule -->
<g id="edge31" class="edge">
<title>SupportModalComponent&#45;&gt;SharedModule</title>
<path fill="none" stroke="#000000" d="M2173,-153.8711C2173,-133.4276 2173,-103 2173,-103 2173,-103 1133.3568,-103 1133.3568,-103"/>
<polygon fill="#000000" stroke="#000000" points="1133.3568,-99.5001 1123.3568,-103 1133.3567,-106.5001 1133.3568,-99.5001"/>
</g>
<!-- TestimonialsPage -->
<g id="node38" class="node">
<title>TestimonialsPage</title>
<polygon fill="#ffffb3" stroke="#000000" points="4647.5367,-122 4532.4633,-122 4532.4633,-86 4647.5367,-86 4647.5367,-122"/>
<text text-anchor="middle" x="4590" y="-99.8" font-family="Times,serif" font-size="14.00" fill="#000000">TestimonialsPage</text>
</g>
<!-- TestimonialsPage&#45;&gt;TestimonialsPageModule -->
<g id="edge37" class="edge">
<title>TestimonialsPage&#45;&gt;TestimonialsPageModule</title>
<path fill="none" stroke="#000000" d="M4590,-122.2228C4590,-122.2228 4590,-143.7269 4590,-143.7269"/>
<polygon fill="#000000" stroke="#000000" points="4586.5001,-143.7269 4590,-153.7269 4593.5001,-143.727 4586.5001,-143.7269"/>
</g>
<!-- TweeterPage -->
<g id="node40" class="node">
<title>TweeterPage</title>
<polygon fill="#ffffb3" stroke="#000000" points="4804.566,-122 4715.434,-122 4715.434,-86 4804.566,-86 4804.566,-122"/>
<text text-anchor="middle" x="4760" y="-99.8" font-family="Times,serif" font-size="14.00" fill="#000000">TweeterPage</text>
</g>
<!-- TweeterPage&#45;&gt;TweeterPageModule -->
<g id="edge39" class="edge">
<title>TweeterPage&#45;&gt;TweeterPageModule</title>
<path fill="none" stroke="#000000" d="M4760,-122.2228C4760,-122.2228 4760,-143.7269 4760,-143.7269"/>
<polygon fill="#000000" stroke="#000000" points="4756.5001,-143.7269 4760,-153.7269 4763.5001,-143.727 4756.5001,-143.7269"/>
</g>
</g>
</svg>
