<?xml version="1.0" encoding="UTF-8" standalone="no"?>
<!DOCTYPE svg PUBLIC "-//W3C//DTD SVG 1.1//EN"
 "http://www.w3.org/Graphics/SVG/1.1/DTD/svg11.dtd">
<!-- Generated by graphviz version 2.40.1 (20161225.0304)
 -->
<!-- Title: dependencies Pages: 1 -->
<svg width="4269pt" height="436pt"
 viewBox="0.00 0.00 4269.00 436.00" xmlns="http://www.w3.org/2000/svg" xmlns:xlink="http://www.w3.org/1999/xlink">
<g id="graph0" class="graph" transform="scale(1 1) rotate(0) translate(4 432)">
<title>dependencies</title>
<polygon fill="#ffffff" stroke="transparent" points="-4,4 -4,-432 4265,-432 4265,4 -4,4"/>
<text text-anchor="start" x="2109.5091" y="-42.4" font-family="sans-serif" font-weight="bold" font-size="14.00" fill="#000000">Legend</text>
<polygon fill="#ffffb3" stroke="transparent" points="1896.5,-10 1896.5,-30 1916.5,-30 1916.5,-10 1896.5,-10"/>
<text text-anchor="start" x="1920.129" y="-15.4" font-family="sans-serif" font-size="14.00" fill="#000000"> &#160;Declarations</text>
<polygon fill="#8dd3c7" stroke="transparent" points="2009.5,-10 2009.5,-30 2029.5,-30 2029.5,-10 2009.5,-10"/>
<text text-anchor="start" x="2033.2251" y="-15.4" font-family="sans-serif" font-size="14.00" fill="#000000"> &#160;Module</text>
<polygon fill="#80b1d3" stroke="transparent" points="2095.5,-10 2095.5,-30 2115.5,-30 2115.5,-10 2095.5,-10"/>
<text text-anchor="start" x="2119.2812" y="-15.4" font-family="sans-serif" font-size="14.00" fill="#000000"> &#160;Bootstrap</text>
<polygon fill="#fdb462" stroke="transparent" points="2192.5,-10 2192.5,-30 2212.5,-30 2212.5,-10 2192.5,-10"/>
<text text-anchor="start" x="2216.1732" y="-15.4" font-family="sans-serif" font-size="14.00" fill="#000000"> &#160;Providers</text>
<polygon fill="#fb8072" stroke="transparent" points="2288.5,-10 2288.5,-30 2308.5,-30 2308.5,-10 2288.5,-10"/>
<text text-anchor="start" x="2312.2258" y="-15.4" font-family="sans-serif" font-size="14.00" fill="#000000"> &#160;Exports</text>
<g id="clust1" class="cluster">
<title>cluster_AppModule</title>
<polygon fill="none" stroke="#000000" stroke-dasharray="1,5" points="1978,-146 1978,-420 2568,-420 2568,-146 1978,-146"/>
</g>
<g id="clust2" class="cluster">
<title>cluster_AppModule_declarations</title>
<polygon fill="none" stroke="#000000" points="2255,-230 2255,-282 2560,-282 2560,-230 2255,-230"/>
</g>
<g id="clust5" class="cluster">
<title>cluster_AppModule_imports</title>
<polygon fill="none" stroke="#000000" points="1986,-154 1986,-282 2247,-282 2247,-154 1986,-154"/>
</g>
<g id="clust7" class="cluster">
<title>cluster_AppModule_bootstrap</title>
<polygon fill="none" stroke="#000000" points="2128,-360 2128,-412 2252,-412 2252,-360 2128,-360"/>
</g>
<g id="clust15" class="cluster">
<title>cluster_AuthPageModule</title>
<polygon fill="none" stroke="#000000" stroke-dasharray="1,5" points="3779,-70 3779,-206 3909,-206 3909,-70 3779,-70"/>
</g>
<g id="clust16" class="cluster">
<title>cluster_AuthPageModule_declarations</title>
<polygon fill="none" stroke="#000000" points="3800,-78 3800,-130 3888,-130 3888,-78 3800,-78"/>
</g>
<g id="clust28" class="cluster">
<title>cluster_FaqPageModule</title>
<polygon fill="none" stroke="#000000" stroke-dasharray="1,5" points="3163,-146 3163,-282 3287,-282 3287,-146 3163,-146"/>
</g>
<g id="clust29" class="cluster">
<title>cluster_FaqPageModule_declarations</title>
<polygon fill="none" stroke="#000000" points="3185,-154 3185,-206 3265,-206 3265,-154 3185,-154"/>
</g>
<g id="clust35" class="cluster">
<title>cluster_HomeModule</title>
<polygon fill="none" stroke="#000000" stroke-dasharray="1,5" points="995,-146 995,-214 1970,-214 1970,-146 995,-146"/>
</g>
<g id="clust36" class="cluster">
<title>cluster_HomeModule_declarations</title>
<polygon fill="none" stroke="#000000" points="1563,-154 1563,-206 1962,-206 1962,-154 1563,-154"/>
</g>
<g id="clust40" class="cluster">
<title>cluster_HomeModule_imports</title>
<polygon fill="none" stroke="#000000" points="1003,-154 1003,-206 1555,-206 1555,-154 1003,-154"/>
</g>
<g id="clust50" class="cluster">
<title>cluster_ImageModalPageModule</title>
<polygon fill="none" stroke="#000000" stroke-dasharray="1,5" points="3917,-70 3917,-206 4091,-206 4091,-70 3917,-70"/>
</g>
<g id="clust51" class="cluster">
<title>cluster_ImageModalPageModule_declarations</title>
<polygon fill="none" stroke="#000000" points="3939,-78 3939,-130 4069,-130 4069,-78 3939,-78"/>
</g>
<g id="clust57" class="cluster">
<title>cluster_ListPageModule</title>
<polygon fill="none" stroke="#000000" stroke-dasharray="1,5" points="8,-70 8,-138 1348,-138 1348,-70 8,-70"/>
</g>
<g id="clust58" class="cluster">
<title>cluster_ListPageModule_declarations</title>
<polygon fill="none" stroke="#000000" points="16,-78 16,-130 1340,-130 1340,-78 16,-78"/>
</g>
<g id="clust73" class="cluster">
<title>cluster_ModalModule</title>
<polygon fill="none" stroke="#000000" stroke-dasharray="1,5" points="4099,-70 4099,-290 4253,-290 4253,-70 4099,-70"/>
</g>
<g id="clust74" class="cluster">
<title>cluster_ModalModule_declarations</title>
<polygon fill="none" stroke="#000000" points="4109,-78 4109,-130 4243,-130 4243,-78 4109,-78"/>
</g>
<g id="clust77" class="cluster">
<title>cluster_ModalModule_exports</title>
<polygon fill="none" stroke="#000000" points="4107,-230 4107,-282 4245,-282 4245,-230 4107,-230"/>
</g>
<g id="clust80" class="cluster">
<title>cluster_ProfilePageModule</title>
<polygon fill="none" stroke="#000000" stroke-dasharray="1,5" points="3295,-146 3295,-282 3435,-282 3435,-146 3295,-146"/>
</g>
<g id="clust81" class="cluster">
<title>cluster_ProfilePageModule_declarations</title>
<polygon fill="none" stroke="#000000" points="3316,-154 3316,-206 3414,-206 3414,-154 3316,-154"/>
</g>
<g id="clust87" class="cluster">
<title>cluster_SharedModule</title>
<polygon fill="none" stroke="#000000" stroke-dasharray="1,5" points="2576,-222 2576,-290 3155,-290 3155,-222 2576,-222"/>
</g>
<g id="clust88" class="cluster">
<title>cluster_SharedModule_declarations</title>
<polygon fill="none" stroke="#000000" points="2873,-230 2873,-282 3147,-282 3147,-230 2873,-230"/>
</g>
<g id="clust92" class="cluster">
<title>cluster_SharedModule_exports</title>
<polygon fill="none" stroke="#000000" points="2584,-230 2584,-282 2865,-282 2865,-230 2584,-230"/>
</g>
<g id="clust95" class="cluster">
<title>cluster_StatsPageModule</title>
<polygon fill="none" stroke="#000000" stroke-dasharray="1,5" points="1356,-70 1356,-138 2006,-138 2006,-70 1356,-70"/>
</g>
<g id="clust96" class="cluster">
<title>cluster_StatsPageModule_declarations</title>
<polygon fill="none" stroke="#000000" points="1364,-78 1364,-130 1998,-130 1998,-78 1364,-78"/>
</g>
<g id="clust106" class="cluster">
<title>cluster_TestimonialsPageModule</title>
<polygon fill="none" stroke="#000000" stroke-dasharray="1,5" points="3443,-146 3443,-282 3619,-282 3619,-146 3443,-146"/>
</g>
<g id="clust107" class="cluster">
<title>cluster_TestimonialsPageModule_declarations</title>
<polygon fill="none" stroke="#000000" points="3465,-154 3465,-206 3597,-206 3597,-154 3465,-154"/>
</g>
<g id="clust113" class="cluster">
<title>cluster_TweetsPageModule</title>
<polygon fill="none" stroke="#000000" stroke-dasharray="1,5" points="3627,-146 3627,-282 3771,-282 3771,-146 3627,-146"/>
</g>
<g id="clust114" class="cluster">
<title>cluster_TweetsPageModule_declarations</title>
<polygon fill="none" stroke="#000000" points="3649,-154 3649,-206 3749,-206 3749,-154 3649,-154"/>
</g>
<g id="clust120" class="cluster">
<title>cluster_XstatsPageModule</title>
<polygon fill="none" stroke="#000000" stroke-dasharray="1,5" points="2014,-70 2014,-138 2124,-138 2124,-70 2014,-70"/>
</g>
<g id="clust121" class="cluster">
<title>cluster_XstatsPageModule_declarations</title>
<polygon fill="none" stroke="#000000" points="2022,-78 2022,-130 2116,-130 2116,-78 2022,-78"/>
</g>
<!-- AppComponent -->
<g id="node1" class="node">
<title>AppComponent</title>
<polygon fill="#ffffb3" stroke="#000000" points="2551.9399,-274 2446.0601,-274 2446.0601,-238 2551.9399,-238 2551.9399,-274"/>
<text text-anchor="middle" x="2499" y="-251.8" font-family="Times,serif" font-size="14.00" fill="#000000">AppComponent</text>
</g>
<!-- AppModule -->
<g id="node3" class="node">
<title>AppModule</title>
<polygon fill="#8dd3c7" stroke="#000000" points="2231.6571,-339 2228.6571,-343 2207.6571,-343 2204.6571,-339 2148.3429,-339 2148.3429,-303 2231.6571,-303 2231.6571,-339"/>
<text text-anchor="middle" x="2190" y="-316.8" font-family="Times,serif" font-size="14.00" fill="#000000">AppModule</text>
</g>
<!-- AppComponent&#45;&gt;AppModule -->
<g id="edge1" class="edge">
<title>AppComponent&#45;&gt;AppModule</title>
<path fill="none" stroke="#000000" d="M2499,-274.1061C2499,-293.3391 2499,-321 2499,-321 2499,-321 2241.6731,-321 2241.6731,-321"/>
<polygon fill="#000000" stroke="#000000" points="2241.6731,-317.5001 2231.6731,-321 2241.6731,-324.5001 2241.6731,-317.5001"/>
</g>
<!-- PageNotFoundComponent -->
<g id="node2" class="node">
<title>PageNotFoundComponent</title>
<polygon fill="#ffffb3" stroke="#000000" points="2428.8243,-274 2263.1757,-274 2263.1757,-238 2428.8243,-238 2428.8243,-274"/>
<text text-anchor="middle" x="2346" y="-251.8" font-family="Times,serif" font-size="14.00" fill="#000000">PageNotFoundComponent</text>
</g>
<!-- PageNotFoundComponent&#45;&gt;AppModule -->
<g id="edge2" class="edge">
<title>PageNotFoundComponent&#45;&gt;AppModule</title>
<path fill="none" stroke="#000000" d="M2263.1418,-247C2235.1796,-247 2210.9141,-247 2210.9141,-247 2210.9141,-247 2210.9141,-292.7079 2210.9141,-292.7079"/>
<polygon fill="#000000" stroke="#000000" points="2207.4142,-292.7078 2210.9141,-302.7079 2214.4142,-292.7079 2207.4142,-292.7078"/>
</g>
<!-- AppComponent  -->
<g id="node7" class="node">
<title>AppComponent </title>
<polygon fill="#80b1d3" stroke="#000000" points="2244.439,-404 2135.561,-404 2135.561,-368 2244.439,-368 2244.439,-404"/>
<text text-anchor="middle" x="2190" y="-381.8" font-family="Times,serif" font-size="14.00" fill="#000000">AppComponent </text>
</g>
<!-- AppModule&#45;&gt;AppComponent  -->
<g id="edge6" class="edge">
<title>AppModule&#45;&gt;AppComponent </title>
<path fill="none" stroke="#000000" stroke-dasharray="1,5" d="M2190,-339.1061C2190,-339.1061 2190,-357.991 2190,-357.991"/>
<polygon fill="#000000" stroke="#000000" points="2186.5001,-357.9909 2190,-367.991 2193.5001,-357.991 2186.5001,-357.9909"/>
</g>
<!-- AppRoutingModule -->
<g id="node4" class="node">
<title>AppRoutingModule</title>
<polygon fill="#8dd3c7" stroke="#000000" points="2122.2744,-198 2119.2744,-202 2098.2744,-202 2095.2744,-198 1993.7256,-198 1993.7256,-162 2122.2744,-162 2122.2744,-198"/>
<text text-anchor="middle" x="2058" y="-175.8" font-family="Times,serif" font-size="14.00" fill="#000000">AppRoutingModule</text>
</g>
<!-- AppRoutingModule&#45;&gt;AppModule -->
<g id="edge3" class="edge">
<title>AppRoutingModule&#45;&gt;AppModule</title>
<path fill="none" stroke="#000000" d="M2105.134,-198.1446C2105.134,-236.2265 2105.134,-321 2105.134,-321 2105.134,-321 2138.0642,-321 2138.0642,-321"/>
<polygon fill="#000000" stroke="#000000" points="2138.0643,-324.5001 2148.0642,-321 2138.0642,-317.5001 2138.0643,-324.5001"/>
</g>
<!-- HomeModule -->
<g id="node5" class="node">
<title>HomeModule</title>
<polygon fill="#8dd3c7" stroke="#000000" points="2087.7619,-274 2084.7619,-278 2063.7619,-278 2060.7619,-274 1994.2381,-274 1994.2381,-238 2087.7619,-238 2087.7619,-274"/>
<text text-anchor="middle" x="2041" y="-251.8" font-family="Times,serif" font-size="14.00" fill="#000000">HomeModule</text>
</g>
<!-- HomeModule&#45;&gt;AppModule -->
<g id="edge4" class="edge">
<title>HomeModule&#45;&gt;AppModule</title>
<path fill="none" stroke="#000000" d="M2087.9672,-265C2124.5228,-265 2169.0859,-265 2169.0859,-265 2169.0859,-265 2169.0859,-292.973 2169.0859,-292.973"/>
<polygon fill="#000000" stroke="#000000" points="2165.586,-292.973 2169.0859,-302.973 2172.586,-292.973 2165.586,-292.973"/>
</g>
<!-- SharedModule -->
<g id="node6" class="node">
<title>SharedModule</title>
<polygon fill="#8dd3c7" stroke="#000000" points="2239.4231,-198 2236.4231,-202 2215.4231,-202 2212.4231,-198 2140.5769,-198 2140.5769,-162 2239.4231,-162 2239.4231,-198"/>
<text text-anchor="middle" x="2190" y="-175.8" font-family="Times,serif" font-size="14.00" fill="#000000">SharedModule</text>
</g>
<!-- SharedModule&#45;&gt;AppModule -->
<g id="edge5" class="edge">
<title>SharedModule&#45;&gt;AppModule</title>
<path fill="none" stroke="#000000" d="M2190,-198.1446C2190,-198.1446 2190,-292.925 2190,-292.925"/>
<polygon fill="#000000" stroke="#000000" points="2186.5001,-292.925 2190,-302.925 2193.5001,-292.925 2186.5001,-292.925"/>
</g>
<!-- SharedModule&#45;&gt;HomeModule -->
<g id="edge15" class="edge">
<title>SharedModule&#45;&gt;HomeModule</title>
<path fill="none" stroke="#000000" d="M2146.3261,-198.0109C2146.3261,-220.4852 2146.3261,-256 2146.3261,-256 2146.3261,-256 2097.8109,-256 2097.8109,-256"/>
<polygon fill="#000000" stroke="#000000" points="2097.811,-252.5001 2087.8109,-256 2097.8109,-259.5001 2097.811,-252.5001"/>
</g>
<!-- FaqPageModule -->
<g id="node11" class="node">
<title>FaqPageModule</title>
<polygon fill="#8dd3c7" stroke="#000000" points="3278.7591,-274 3275.7591,-278 3254.7591,-278 3251.7591,-274 3171.2409,-274 3171.2409,-238 3278.7591,-238 3278.7591,-274"/>
<text text-anchor="middle" x="3225" y="-251.8" font-family="Times,serif" font-size="14.00" fill="#000000">FaqPageModule</text>
</g>
<!-- SharedModule&#45;&gt;FaqPageModule -->
<g id="edge9" class="edge">
<title>SharedModule&#45;&gt;FaqPageModule</title>
<path fill="none" stroke="#000000" d="M2239.5332,-168C2440.1985,-168 3182.0081,-168 3182.0081,-168 3182.0081,-168 3182.0081,-227.7663 3182.0081,-227.7663"/>
<polygon fill="#000000" stroke="#000000" points="3178.5081,-227.7663 3182.0081,-237.7663 3185.5081,-227.7664 3178.5081,-227.7663"/>
</g>
<!-- ListPageModule -->
<g id="node16" class="node">
<title>ListPageModule</title>
<polygon fill="#8dd3c7" stroke="#000000" points="1119.041,-198 1116.041,-202 1095.041,-202 1092.041,-198 1010.959,-198 1010.959,-162 1119.041,-162 1119.041,-198"/>
<text text-anchor="middle" x="1065" y="-175.8" font-family="Times,serif" font-size="14.00" fill="#000000">ListPageModule</text>
</g>
<!-- SharedModule&#45;&gt;ListPageModule -->
<g id="edge29" class="edge">
<title>SharedModule&#45;&gt;ListPageModule</title>
<path fill="none" stroke="#000000" d="M2144.4804,-198.1871C2144.4804,-213.1824 2144.4804,-232 2144.4804,-232 2144.4804,-232 1046.91,-232 1046.91,-232 1046.91,-232 1046.91,-208.1871 1046.91,-208.1871"/>
<polygon fill="#000000" stroke="#000000" points="1050.4101,-208.187 1046.91,-198.1871 1043.4101,-208.1871 1050.4101,-208.187"/>
</g>
<!-- StatsPageModule -->
<g id="node17" class="node">
<title>StatsPageModule</title>
<polygon fill="#8dd3c7" stroke="#000000" points="1250.9846,-198 1247.9846,-202 1226.9846,-202 1223.9846,-198 1137.0154,-198 1137.0154,-162 1250.9846,-162 1250.9846,-198"/>
<text text-anchor="middle" x="1194" y="-175.8" font-family="Times,serif" font-size="14.00" fill="#000000">StatsPageModule</text>
</g>
<!-- SharedModule&#45;&gt;StatsPageModule -->
<g id="edge43" class="edge">
<title>SharedModule&#45;&gt;StatsPageModule</title>
<path fill="none" stroke="#000000" d="M2142.6346,-198.0439C2142.6346,-210.5633 2142.6346,-225 2142.6346,-225 2142.6346,-225 1175.0026,-225 1175.0026,-225 1175.0026,-225 1175.0026,-208.0439 1175.0026,-208.0439"/>
<polygon fill="#000000" stroke="#000000" points="1178.5027,-208.0439 1175.0026,-198.0439 1171.5027,-208.044 1178.5027,-208.0439"/>
</g>
<!-- XstatsPageModule -->
<g id="node18" class="node">
<title>XstatsPageModule</title>
<polygon fill="#8dd3c7" stroke="#000000" points="1390.7534,-198 1387.7534,-202 1366.7534,-202 1363.7534,-198 1269.2466,-198 1269.2466,-162 1390.7534,-162 1390.7534,-198"/>
<text text-anchor="middle" x="1330" y="-175.8" font-family="Times,serif" font-size="14.00" fill="#000000">XstatsPageModule</text>
</g>
<!-- SharedModule&#45;&gt;XstatsPageModule -->
<g id="edge49" class="edge">
<title>SharedModule&#45;&gt;XstatsPageModule</title>
<path fill="none" stroke="#000000" d="M2190,-161.8321C2190,-159.5522 2190,-158 2190,-158 2190,-158 1386.23,-158 1386.23,-158 1386.23,-158 1386.23,-158.3832 1386.23,-158.3832"/>
<polygon fill="#000000" stroke="#000000" points="1382.7303,-151.832 1386.23,-161.8321 1389.7303,-151.8322 1382.7303,-151.832"/>
</g>
<!-- ProfilePageModule -->
<g id="node35" class="node">
<title>ProfilePageModule</title>
<polygon fill="#8dd3c7" stroke="#000000" points="3427.3613,-274 3424.3613,-278 3403.3613,-278 3400.3613,-274 3302.6387,-274 3302.6387,-238 3427.3613,-238 3427.3613,-274"/>
<text text-anchor="middle" x="3365" y="-251.8" font-family="Times,serif" font-size="14.00" fill="#000000">ProfilePageModule</text>
</g>
<!-- SharedModule&#45;&gt;ProfilePageModule -->
<g id="edge33" class="edge">
<title>SharedModule&#45;&gt;ProfilePageModule</title>
<path fill="none" stroke="#000000" d="M2233.6739,-198.1097C2233.6739,-207.897 2233.6739,-218 2233.6739,-218 2233.6739,-218 3313.4569,-218 3313.4569,-218 3313.4569,-218 3313.4569,-227.8903 3313.4569,-227.8903"/>
<polygon fill="#000000" stroke="#000000" points="3309.9569,-227.8903 3313.4569,-237.8903 3316.9569,-227.8904 3309.9569,-227.8903"/>
</g>
<!-- FooterComponent  -->
<g id="node38" class="node">
<title>FooterComponent </title>
<polygon fill="#fb8072" stroke="#000000" points="2856.8814,-274 2735.1186,-274 2735.1186,-238 2856.8814,-238 2856.8814,-274"/>
<text text-anchor="middle" x="2796" y="-251.8" font-family="Times,serif" font-size="14.00" fill="#000000">FooterComponent </text>
</g>
<!-- SharedModule&#45;&gt;FooterComponent  -->
<g id="edge36" class="edge">
<title>SharedModule&#45;&gt;FooterComponent </title>
<path fill="none" stroke="#000000" stroke-dasharray="5,2" d="M2239.3346,-186C2383.8341,-186 2796,-186 2796,-186 2796,-186 2796,-227.9733 2796,-227.9733"/>
<polygon fill="#000000" stroke="#000000" points="2792.5001,-227.9732 2796,-237.9733 2799.5001,-227.9733 2792.5001,-227.9732"/>
</g>
<!-- HeaderComponent  -->
<g id="node39" class="node">
<title>HeaderComponent </title>
<polygon fill="#fb8072" stroke="#000000" points="2717.7436,-274 2592.2564,-274 2592.2564,-238 2717.7436,-238 2717.7436,-274"/>
<text text-anchor="middle" x="2655" y="-251.8" font-family="Times,serif" font-size="14.00" fill="#000000">HeaderComponent </text>
</g>
<!-- SharedModule&#45;&gt;HeaderComponent  -->
<g id="edge37" class="edge">
<title>SharedModule&#45;&gt;HeaderComponent </title>
<path fill="none" stroke="#000000" stroke-dasharray="5,2" d="M2239.3229,-192C2358.9963,-192 2655,-192 2655,-192 2655,-192 2655,-227.8314 2655,-227.8314"/>
<polygon fill="#000000" stroke="#000000" points="2651.5001,-227.8313 2655,-237.8314 2658.5001,-227.8314 2651.5001,-227.8313"/>
</g>
<!-- TestimonialsPageModule -->
<g id="node46" class="node">
<title>TestimonialsPageModule</title>
<polygon fill="#8dd3c7" stroke="#000000" points="3610.5856,-274 3607.5856,-278 3586.5856,-278 3583.5856,-274 3451.4144,-274 3451.4144,-238 3610.5856,-238 3610.5856,-274"/>
<text text-anchor="middle" x="3531" y="-251.8" font-family="Times,serif" font-size="14.00" fill="#000000">TestimonialsPageModule</text>
</g>
<!-- SharedModule&#45;&gt;TestimonialsPageModule -->
<g id="edge45" class="edge">
<title>SharedModule&#45;&gt;TestimonialsPageModule</title>
<path fill="none" stroke="#000000" d="M2235.5197,-198.2434C2235.5197,-205.4297 2235.5197,-212 2235.5197,-212 2235.5197,-212 3462.3447,-212 3462.3447,-212 3462.3447,-212 3462.3447,-227.8495 3462.3447,-227.8495"/>
<polygon fill="#000000" stroke="#000000" points="3458.8447,-227.8494 3462.3447,-237.8495 3465.8447,-227.8495 3458.8447,-227.8494"/>
</g>
<!-- TweetsPageModule -->
<g id="node48" class="node">
<title>TweetsPageModule</title>
<polygon fill="#8dd3c7" stroke="#000000" points="3762.6853,-274 3759.6853,-278 3738.6853,-278 3735.6853,-274 3635.3147,-274 3635.3147,-238 3762.6853,-238 3762.6853,-274"/>
<text text-anchor="middle" x="3699" y="-251.8" font-family="Times,serif" font-size="14.00" fill="#000000">TweetsPageModule</text>
</g>
<!-- SharedModule&#45;&gt;TweetsPageModule -->
<g id="edge47" class="edge">
<title>SharedModule&#45;&gt;TweetsPageModule</title>
<path fill="none" stroke="#000000" d="M2237.3654,-198.1686C2237.3654,-202.0459 2237.3654,-205 2237.3654,-205 2237.3654,-205 3646.2949,-205 3646.2949,-205 3646.2949,-205 3646.2949,-227.8757 3646.2949,-227.8757"/>
<polygon fill="#000000" stroke="#000000" points="3642.7949,-227.8757 3646.2949,-237.8757 3649.7949,-227.8757 3642.7949,-227.8757"/>
</g>
<!-- AuthPage -->
<g id="node8" class="node">
<title>AuthPage</title>
<polygon fill="#ffffb3" stroke="#000000" points="3879.7093,-122 3808.2907,-122 3808.2907,-86 3879.7093,-86 3879.7093,-122"/>
<text text-anchor="middle" x="3844" y="-99.8" font-family="Times,serif" font-size="14.00" fill="#000000">AuthPage</text>
</g>
<!-- AuthPageModule -->
<g id="node9" class="node">
<title>AuthPageModule</title>
<polygon fill="#8dd3c7" stroke="#000000" points="3901.2591,-198 3898.2591,-202 3877.2591,-202 3874.2591,-198 3786.7409,-198 3786.7409,-162 3901.2591,-162 3901.2591,-198"/>
<text text-anchor="middle" x="3844" y="-175.8" font-family="Times,serif" font-size="14.00" fill="#000000">AuthPageModule</text>
</g>
<!-- AuthPage&#45;&gt;AuthPageModule -->
<g id="edge7" class="edge">
<title>AuthPage&#45;&gt;AuthPageModule</title>
<path fill="none" stroke="#000000" d="M3844,-122.0109C3844,-122.0109 3844,-151.855 3844,-151.855"/>
<polygon fill="#000000" stroke="#000000" points="3840.5001,-151.8549 3844,-161.855 3847.5001,-151.855 3840.5001,-151.8549"/>
</g>
<!-- FaqPage -->
<g id="node10" class="node">
<title>FaqPage</title>
<polygon fill="#ffffb3" stroke="#000000" points="3257.2093,-198 3192.7907,-198 3192.7907,-162 3257.2093,-162 3257.2093,-198"/>
<text text-anchor="middle" x="3225" y="-175.8" font-family="Times,serif" font-size="14.00" fill="#000000">FaqPage</text>
</g>
<!-- FaqPage&#45;&gt;FaqPageModule -->
<g id="edge8" class="edge">
<title>FaqPage&#45;&gt;FaqPageModule</title>
<path fill="none" stroke="#000000" d="M3225,-198.0109C3225,-198.0109 3225,-227.855 3225,-227.855"/>
<polygon fill="#000000" stroke="#000000" points="3221.5001,-227.8549 3225,-237.855 3228.5001,-227.855 3221.5001,-227.8549"/>
</g>
<!-- HomePage -->
<g id="node12" class="node">
<title>HomePage</title>
<polygon fill="#ffffb3" stroke="#000000" points="1648.9248,-198 1571.0752,-198 1571.0752,-162 1648.9248,-162 1648.9248,-198"/>
<text text-anchor="middle" x="1610" y="-175.8" font-family="Times,serif" font-size="14.00" fill="#000000">HomePage</text>
</g>
<!-- HomePage&#45;&gt;HomeModule -->
<g id="edge10" class="edge">
<title>HomePage&#45;&gt;HomeModule</title>
<path fill="none" stroke="#000000" d="M1610,-198.1686C1610,-219.498 1610,-252 1610,-252 1610,-252 1984.055,-252 1984.055,-252"/>
<polygon fill="#000000" stroke="#000000" points="1984.055,-255.5001 1994.055,-252 1984.0549,-248.5001 1984.055,-255.5001"/>
</g>
<!-- LaunchPageComponent -->
<g id="node13" class="node">
<title>LaunchPageComponent</title>
<polygon fill="#ffffb3" stroke="#000000" points="1954.0267,-198 1803.9733,-198 1803.9733,-162 1954.0267,-162 1954.0267,-198"/>
<text text-anchor="middle" x="1879" y="-175.8" font-family="Times,serif" font-size="14.00" fill="#000000">LaunchPageComponent</text>
</g>
<!-- LaunchPageComponent&#45;&gt;HomeModule -->
<g id="edge11" class="edge">
<title>LaunchPageComponent&#45;&gt;HomeModule</title>
<path fill="none" stroke="#000000" d="M1879,-198.2222C1879,-216.8285 1879,-243 1879,-243 1879,-243 1984.1429,-243 1984.1429,-243"/>
<polygon fill="#000000" stroke="#000000" points="1984.1429,-246.5001 1994.1429,-243 1984.1429,-239.5001 1984.1429,-246.5001"/>
</g>
<!-- PaypalComponent -->
<g id="node14" class="node">
<title>PaypalComponent</title>
<polygon fill="#ffffb3" stroke="#000000" points="1785.9356,-198 1666.0644,-198 1666.0644,-162 1785.9356,-162 1785.9356,-198"/>
<text text-anchor="middle" x="1726" y="-175.8" font-family="Times,serif" font-size="14.00" fill="#000000">PaypalComponent</text>
</g>
<!-- PaypalComponent&#45;&gt;HomeModule -->
<g id="edge12" class="edge">
<title>PaypalComponent&#45;&gt;HomeModule</title>
<path fill="none" stroke="#000000" d="M1726,-198.308C1726,-218.1455 1726,-247 1726,-247 1726,-247 1984.1815,-247 1984.1815,-247"/>
<polygon fill="#000000" stroke="#000000" points="1984.1815,-250.5001 1994.1815,-247 1984.1814,-243.5001 1984.1815,-250.5001"/>
</g>
<!-- HomeRoutingModule -->
<g id="node15" class="node">
<title>HomeRoutingModule</title>
<polygon fill="#8dd3c7" stroke="#000000" points="1547.3795,-198 1544.3795,-202 1523.3795,-202 1520.3795,-198 1408.6205,-198 1408.6205,-162 1547.3795,-162 1547.3795,-198"/>
<text text-anchor="middle" x="1478" y="-175.8" font-family="Times,serif" font-size="14.00" fill="#000000">HomeRoutingModule</text>
</g>
<!-- HomeRoutingModule&#45;&gt;HomeModule -->
<g id="edge13" class="edge">
<title>HomeRoutingModule&#45;&gt;HomeModule</title>
<path fill="none" stroke="#000000" d="M1478,-198.0109C1478,-220.4852 1478,-256 1478,-256 1478,-256 1983.9673,-256 1983.9673,-256"/>
<polygon fill="#000000" stroke="#000000" points="1983.9673,-259.5001 1993.9673,-256 1983.9673,-252.5001 1983.9673,-259.5001"/>
</g>
<!-- ListPageModule&#45;&gt;HomeModule -->
<g id="edge14" class="edge">
<title>ListPageModule&#45;&gt;HomeModule</title>
<path fill="none" stroke="#000000" d="M1083.09,-198.2128C1083.09,-224.5111 1083.09,-270 1083.09,-270 1083.09,-270 1984.1496,-270 1984.1496,-270"/>
<polygon fill="#000000" stroke="#000000" points="1984.1496,-273.5001 1994.1496,-270 1984.1495,-266.5001 1984.1496,-273.5001"/>
</g>
<!-- StatsPageModule&#45;&gt;HomeModule -->
<g id="edge16" class="edge">
<title>StatsPageModule&#45;&gt;HomeModule</title>
<path fill="none" stroke="#000000" d="M1212.9974,-198.0263C1212.9974,-222.9773 1212.9974,-265 1212.9974,-265 1212.9974,-265 1984.1106,-265 1984.1106,-265"/>
<polygon fill="#000000" stroke="#000000" points="1984.1106,-268.5001 1994.1106,-265 1984.1106,-261.5001 1984.1106,-268.5001"/>
</g>
<!-- XstatsPageModule&#45;&gt;HomeModule -->
<g id="edge17" class="edge">
<title>XstatsPageModule&#45;&gt;HomeModule</title>
<path fill="none" stroke="#000000" d="M1330,-198.3802C1330,-222.2785 1330,-261 1330,-261 1330,-261 1984.0743,-261 1984.0743,-261"/>
<polygon fill="#000000" stroke="#000000" points="1984.0744,-264.5001 1994.0743,-261 1984.0743,-257.5001 1984.0744,-264.5001"/>
</g>
<!-- ImageModalPage -->
<g id="node19" class="node">
<title>ImageModalPage</title>
<polygon fill="#ffffb3" stroke="#000000" points="4061.2423,-122 3946.7577,-122 3946.7577,-86 4061.2423,-86 4061.2423,-122"/>
<text text-anchor="middle" x="4004" y="-99.8" font-family="Times,serif" font-size="14.00" fill="#000000">ImageModalPage</text>
</g>
<!-- ImageModalPageModule -->
<g id="node20" class="node">
<title>ImageModalPageModule</title>
<polygon fill="#8dd3c7" stroke="#000000" points="4083.2921,-198 4080.2921,-202 4059.2921,-202 4056.2921,-198 3924.7079,-198 3924.7079,-162 4083.2921,-162 4083.2921,-198"/>
<text text-anchor="middle" x="4004" y="-175.8" font-family="Times,serif" font-size="14.00" fill="#000000">ImageModalPageModule</text>
</g>
<!-- ImageModalPage&#45;&gt;ImageModalPageModule -->
<g id="edge18" class="edge">
<title>ImageModalPage&#45;&gt;ImageModalPageModule</title>
<path fill="none" stroke="#000000" d="M4004,-122.0109C4004,-122.0109 4004,-151.855 4004,-151.855"/>
<polygon fill="#000000" stroke="#000000" points="4000.5001,-151.8549 4004,-161.855 4007.5001,-151.855 4000.5001,-151.8549"/>
</g>
<!-- ListPage -->
<g id="node21" class="node">
<title>ListPage</title>
<polygon fill="#ffffb3" stroke="#000000" points="227.4902,-122 162.5098,-122 162.5098,-86 227.4902,-86 227.4902,-122"/>
<text text-anchor="middle" x="195" y="-99.8" font-family="Times,serif" font-size="14.00" fill="#000000">ListPage</text>
</g>
<!-- ListPage&#45;&gt;ListPageModule -->
<g id="edge19" class="edge">
<title>ListPage&#45;&gt;ListPageModule</title>
<path fill="none" stroke="#000000" d="M195,-122.0263C195,-146.9773 195,-189 195,-189 195,-189 1000.9063,-189 1000.9063,-189"/>
<polygon fill="#000000" stroke="#000000" points="1000.9063,-192.5001 1010.9063,-189 1000.9063,-185.5001 1000.9063,-192.5001"/>
</g>
<!-- Table1Component -->
<g id="node22" class="node">
<title>Table1Component</title>
<polygon fill="#ffffb3" stroke="#000000" points="144.205,-122 23.795,-122 23.795,-86 144.205,-86 144.205,-122"/>
<text text-anchor="middle" x="84" y="-99.8" font-family="Times,serif" font-size="14.00" fill="#000000">Table1Component</text>
</g>
<!-- Table1Component&#45;&gt;ListPageModule -->
<g id="edge20" class="edge">
<title>Table1Component&#45;&gt;ListPageModule</title>
<path fill="none" stroke="#000000" d="M84,-122.2128C84,-148.5111 84,-194 84,-194 84,-194 1000.8598,-194 1000.8598,-194"/>
<polygon fill="#000000" stroke="#000000" points="1000.8599,-197.5001 1010.8598,-194 1000.8598,-190.5001 1000.8599,-197.5001"/>
</g>
<!-- Table2Component -->
<g id="node23" class="node">
<title>Table2Component</title>
<polygon fill="#ffffb3" stroke="#000000" points="1332.205,-122 1211.795,-122 1211.795,-86 1332.205,-86 1332.205,-122"/>
<text text-anchor="middle" x="1272" y="-99.8" font-family="Times,serif" font-size="14.00" fill="#000000">Table2Component</text>
</g>
<!-- Table2Component&#45;&gt;ListPageModule -->
<g id="edge21" class="edge">
<title>Table2Component&#45;&gt;ListPageModule</title>
<path fill="none" stroke="#000000" d="M1217.4826,-122.1223C1217.4826,-124.9729 1217.4826,-127 1217.4826,-127 1217.4826,-127 1104.1459,-127 1104.1459,-127 1104.1459,-127 1104.1459,-151.7604 1104.1459,-151.7604"/>
<polygon fill="#000000" stroke="#000000" points="1100.646,-151.7604 1104.1459,-161.7604 1107.646,-151.7604 1100.646,-151.7604"/>
</g>
<!-- Table3Component -->
<g id="node24" class="node">
<title>Table3Component</title>
<polygon fill="#ffffb3" stroke="#000000" points="1194.205,-122 1073.795,-122 1073.795,-86 1194.205,-86 1194.205,-122"/>
<text text-anchor="middle" x="1134" y="-99.8" font-family="Times,serif" font-size="14.00" fill="#000000">Table3Component</text>
</g>
<!-- Table3Component&#45;&gt;ListPageModule -->
<g id="edge22" class="edge">
<title>Table3Component&#45;&gt;ListPageModule</title>
<path fill="none" stroke="#000000" d="M1089.0217,-122.0109C1089.0217,-122.0109 1089.0217,-151.855 1089.0217,-151.855"/>
<polygon fill="#000000" stroke="#000000" points="1085.5218,-151.8549 1089.0217,-161.855 1092.5218,-151.855 1085.5218,-151.8549"/>
</g>
<!-- Table4Component -->
<g id="node25" class="node">
<title>Table4Component</title>
<polygon fill="#ffffb3" stroke="#000000" points="1056.205,-122 935.795,-122 935.795,-86 1056.205,-86 1056.205,-122"/>
<text text-anchor="middle" x="996" y="-99.8" font-family="Times,serif" font-size="14.00" fill="#000000">Table4Component</text>
</g>
<!-- Table4Component&#45;&gt;ListPageModule -->
<g id="edge23" class="edge">
<title>Table4Component&#45;&gt;ListPageModule</title>
<path fill="none" stroke="#000000" d="M1033.4162,-122.0109C1033.4162,-122.0109 1033.4162,-151.855 1033.4162,-151.855"/>
<polygon fill="#000000" stroke="#000000" points="1029.9163,-151.8549 1033.4162,-161.855 1036.9163,-151.855 1029.9163,-151.8549"/>
</g>
<!-- Table5Component -->
<g id="node26" class="node">
<title>Table5Component</title>
<polygon fill="#ffffb3" stroke="#000000" points="918.205,-122 797.795,-122 797.795,-86 918.205,-86 918.205,-122"/>
<text text-anchor="middle" x="858" y="-99.8" font-family="Times,serif" font-size="14.00" fill="#000000">Table5Component</text>
</g>
<!-- Table5Component&#45;&gt;ListPageModule -->
<g id="edge24" class="edge">
<title>Table5Component&#45;&gt;ListPageModule</title>
<path fill="none" stroke="#000000" d="M858,-122.2222C858,-140.8285 858,-167 858,-167 858,-167 1000.8836,-167 1000.8836,-167"/>
<polygon fill="#000000" stroke="#000000" points="1000.8836,-170.5001 1010.8836,-167 1000.8835,-163.5001 1000.8836,-170.5001"/>
</g>
<!-- Table6Component -->
<g id="node27" class="node">
<title>Table6Component</title>
<polygon fill="#ffffb3" stroke="#000000" points="780.205,-122 659.795,-122 659.795,-86 780.205,-86 780.205,-122"/>
<text text-anchor="middle" x="720" y="-99.8" font-family="Times,serif" font-size="14.00" fill="#000000">Table6Component</text>
</g>
<!-- Table6Component&#45;&gt;ListPageModule -->
<g id="edge25" class="edge">
<title>Table6Component&#45;&gt;ListPageModule</title>
<path fill="none" stroke="#000000" d="M720,-122.308C720,-142.1455 720,-171 720,-171 720,-171 1000.7142,-171 1000.7142,-171"/>
<polygon fill="#000000" stroke="#000000" points="1000.7143,-174.5001 1010.7142,-171 1000.7142,-167.5001 1000.7143,-174.5001"/>
</g>
<!-- Table7Component -->
<g id="node28" class="node">
<title>Table7Component</title>
<polygon fill="#ffffb3" stroke="#000000" points="642.205,-122 521.795,-122 521.795,-86 642.205,-86 642.205,-122"/>
<text text-anchor="middle" x="582" y="-99.8" font-family="Times,serif" font-size="14.00" fill="#000000">Table7Component</text>
</g>
<!-- Table7Component&#45;&gt;ListPageModule -->
<g id="edge26" class="edge">
<title>Table7Component&#45;&gt;ListPageModule</title>
<path fill="none" stroke="#000000" d="M582,-122.1686C582,-143.498 582,-176 582,-176 582,-176 1000.5326,-176 1000.5326,-176"/>
<polygon fill="#000000" stroke="#000000" points="1000.5327,-179.5001 1010.5326,-176 1000.5326,-172.5001 1000.5327,-179.5001"/>
</g>
<!-- Table8Component -->
<g id="node29" class="node">
<title>Table8Component</title>
<polygon fill="#ffffb3" stroke="#000000" points="504.205,-122 383.795,-122 383.795,-86 504.205,-86 504.205,-122"/>
<text text-anchor="middle" x="444" y="-99.8" font-family="Times,serif" font-size="14.00" fill="#000000">Table8Component</text>
</g>
<!-- Table8Component&#45;&gt;ListPageModule -->
<g id="edge27" class="edge">
<title>Table8Component&#45;&gt;ListPageModule</title>
<path fill="none" stroke="#000000" d="M444,-122.0109C444,-144.4852 444,-180 444,-180 444,-180 1000.7059,-180 1000.7059,-180"/>
<polygon fill="#000000" stroke="#000000" points="1000.706,-183.5001 1010.7059,-180 1000.7059,-176.5001 1000.706,-183.5001"/>
</g>
<!-- Table9Component -->
<g id="node30" class="node">
<title>Table9Component</title>
<polygon fill="#ffffb3" stroke="#000000" points="366.205,-122 245.795,-122 245.795,-86 366.205,-86 366.205,-122"/>
<text text-anchor="middle" x="306" y="-99.8" font-family="Times,serif" font-size="14.00" fill="#000000">Table9Component</text>
</g>
<!-- Table9Component&#45;&gt;ListPageModule -->
<g id="edge28" class="edge">
<title>Table9Component&#45;&gt;ListPageModule</title>
<path fill="none" stroke="#000000" d="M306,-122.3802C306,-146.2785 306,-185 306,-185 306,-185 1000.7192,-185 1000.7192,-185"/>
<polygon fill="#000000" stroke="#000000" points="1000.7192,-188.5001 1010.7192,-185 1000.7192,-181.5001 1000.7192,-188.5001"/>
</g>
<!-- ModalComponent -->
<g id="node31" class="node">
<title>ModalComponent</title>
<polygon fill="#ffffb3" stroke="#000000" points="4234.8823,-122 4117.1177,-122 4117.1177,-86 4234.8823,-86 4234.8823,-122"/>
<text text-anchor="middle" x="4176" y="-99.8" font-family="Times,serif" font-size="14.00" fill="#000000">ModalComponent</text>
</g>
<!-- ModalModule -->
<g id="node32" class="node">
<title>ModalModule</title>
<polygon fill="#8dd3c7" stroke="#000000" points="4224.0997,-198 4221.0997,-202 4200.0997,-202 4197.0997,-198 4127.9003,-198 4127.9003,-162 4224.0997,-162 4224.0997,-198"/>
<text text-anchor="middle" x="4176" y="-175.8" font-family="Times,serif" font-size="14.00" fill="#000000">ModalModule</text>
</g>
<!-- ModalComponent&#45;&gt;ModalModule -->
<g id="edge30" class="edge">
<title>ModalComponent&#45;&gt;ModalModule</title>
<path fill="none" stroke="#000000" d="M4176,-122.0109C4176,-122.0109 4176,-151.855 4176,-151.855"/>
<polygon fill="#000000" stroke="#000000" points="4172.5001,-151.8549 4176,-161.855 4179.5001,-151.855 4172.5001,-151.8549"/>
</g>
<!-- ModalComponent  -->
<g id="node33" class="node">
<title>ModalComponent </title>
<polygon fill="#fb8072" stroke="#000000" points="4236.8828,-274 4115.1172,-274 4115.1172,-238 4236.8828,-238 4236.8828,-274"/>
<text text-anchor="middle" x="4176" y="-251.8" font-family="Times,serif" font-size="14.00" fill="#000000">ModalComponent </text>
</g>
<!-- ModalModule&#45;&gt;ModalComponent  -->
<g id="edge31" class="edge">
<title>ModalModule&#45;&gt;ModalComponent </title>
<path fill="none" stroke="#000000" stroke-dasharray="5,2" d="M4176,-198.0109C4176,-198.0109 4176,-227.855 4176,-227.855"/>
<polygon fill="#000000" stroke="#000000" points="4172.5001,-227.8549 4176,-237.855 4179.5001,-227.855 4172.5001,-227.8549"/>
</g>
<!-- ProfilePage -->
<g id="node34" class="node">
<title>ProfilePage</title>
<polygon fill="#ffffb3" stroke="#000000" points="3405.812,-198 3324.188,-198 3324.188,-162 3405.812,-162 3405.812,-198"/>
<text text-anchor="middle" x="3365" y="-175.8" font-family="Times,serif" font-size="14.00" fill="#000000">ProfilePage</text>
</g>
<!-- ProfilePage&#45;&gt;ProfilePageModule -->
<g id="edge32" class="edge">
<title>ProfilePage&#45;&gt;ProfilePageModule</title>
<path fill="none" stroke="#000000" d="M3365,-198.0109C3365,-198.0109 3365,-227.855 3365,-227.855"/>
<polygon fill="#000000" stroke="#000000" points="3361.5001,-227.8549 3365,-237.855 3368.5001,-227.855 3361.5001,-227.8549"/>
</g>
<!-- FooterComponent -->
<g id="node36" class="node">
<title>FooterComponent</title>
<polygon fill="#ffffb3" stroke="#000000" points="3138.8809,-274 3021.1191,-274 3021.1191,-238 3138.8809,-238 3138.8809,-274"/>
<text text-anchor="middle" x="3080" y="-251.8" font-family="Times,serif" font-size="14.00" fill="#000000">FooterComponent</text>
</g>
<!-- FooterComponent&#45;&gt;SharedModule -->
<g id="edge34" class="edge">
<title>FooterComponent&#45;&gt;SharedModule</title>
<path fill="none" stroke="#000000" d="M3080,-237.8015C3080,-213.6437 3080,-174 3080,-174 3080,-174 2249.4372,-174 2249.4372,-174"/>
<polygon fill="#000000" stroke="#000000" points="2249.4372,-170.5001 2239.4372,-174 2249.4372,-177.5001 2249.4372,-170.5001"/>
</g>
<!-- HeaderComponent -->
<g id="node37" class="node">
<title>HeaderComponent</title>
<polygon fill="#ffffb3" stroke="#000000" points="3002.7437,-274 2881.2563,-274 2881.2563,-238 3002.7437,-238 3002.7437,-274"/>
<text text-anchor="middle" x="2942" y="-251.8" font-family="Times,serif" font-size="14.00" fill="#000000">HeaderComponent</text>
</g>
<!-- HeaderComponent&#45;&gt;SharedModule -->
<g id="edge35" class="edge">
<title>HeaderComponent&#45;&gt;SharedModule</title>
<path fill="none" stroke="#000000" d="M2942,-237.9891C2942,-215.5148 2942,-180 2942,-180 2942,-180 2249.3408,-180 2249.3408,-180"/>
<polygon fill="#000000" stroke="#000000" points="2249.3409,-176.5001 2239.3408,-180 2249.3408,-183.5001 2249.3409,-176.5001"/>
</g>
<!-- GolfComponent -->
<g id="node40" class="node">
<title>GolfComponent</title>
<polygon fill="#ffffb3" stroke="#000000" points="1616.4902,-122 1509.5098,-122 1509.5098,-86 1616.4902,-86 1616.4902,-122"/>
<text text-anchor="middle" x="1563" y="-99.8" font-family="Times,serif" font-size="14.00" fill="#000000">GolfComponent</text>
</g>
<!-- GolfComponent&#45;&gt;StatsPageModule -->
<g id="edge38" class="edge">
<title>GolfComponent&#45;&gt;StatsPageModule</title>
<path fill="none" stroke="#000000" d="M1528.4723,-122.2434C1528.4723,-129.4297 1528.4723,-136 1528.4723,-136 1528.4723,-136 1228.6525,-136 1228.6525,-136 1228.6525,-136 1228.6525,-151.8495 1228.6525,-151.8495"/>
<polygon fill="#000000" stroke="#000000" points="1225.1526,-151.8494 1228.6525,-161.8495 1232.1526,-151.8495 1225.1526,-151.8494"/>
</g>
<!-- SoccerComponent -->
<g id="node41" class="node">
<title>SoccerComponent</title>
<polygon fill="#ffffb3" stroke="#000000" points="1491.9201,-122 1372.0799,-122 1372.0799,-86 1491.9201,-86 1491.9201,-122"/>
<text text-anchor="middle" x="1432" y="-99.8" font-family="Times,serif" font-size="14.00" fill="#000000">SoccerComponent</text>
</g>
<!-- SoccerComponent&#45;&gt;StatsPageModule -->
<g id="edge39" class="edge">
<title>SoccerComponent&#45;&gt;StatsPageModule</title>
<path fill="none" stroke="#000000" d="M1376.9369,-122.1592C1376.9369,-127.0433 1376.9369,-131 1376.9369,-131 1376.9369,-131 1223.0675,-131 1223.0675,-131 1223.0675,-131 1223.0675,-151.7542 1223.0675,-151.7542"/>
<polygon fill="#000000" stroke="#000000" points="1219.5676,-151.7542 1223.0675,-161.7542 1226.5676,-151.7542 1219.5676,-151.7542"/>
</g>
<!-- StatsListComponent -->
<g id="node42" class="node">
<title>StatsListComponent</title>
<polygon fill="#ffffb3" stroke="#000000" points="1990.3342,-122 1859.6658,-122 1859.6658,-86 1990.3342,-86 1990.3342,-122"/>
<text text-anchor="middle" x="1925" y="-99.8" font-family="Times,serif" font-size="14.00" fill="#000000">StatsListComponent</text>
</g>
<!-- StatsListComponent&#45;&gt;StatsPageModule -->
<g id="edge40" class="edge">
<title>StatsListComponent&#45;&gt;StatsPageModule</title>
<path fill="none" stroke="#000000" d="M1907.0481,-122.0439C1907.0481,-134.5633 1907.0481,-149 1907.0481,-149 1907.0481,-149 1245.4073,-149 1245.4073,-149 1245.4073,-149 1245.4073,-151.9672 1245.4073,-151.9672"/>
<polygon fill="#000000" stroke="#000000" points="1241.9074,-151.9671 1245.4073,-161.9672 1248.9074,-151.9672 1241.9074,-151.9671"/>
</g>
<!-- StatsPage -->
<g id="node43" class="node">
<title>StatsPage</title>
<polygon fill="#ffffb3" stroke="#000000" points="1842.4362,-122 1771.5638,-122 1771.5638,-86 1842.4362,-86 1842.4362,-122"/>
<text text-anchor="middle" x="1807" y="-99.8" font-family="Times,serif" font-size="14.00" fill="#000000">StatsPage</text>
</g>
<!-- StatsPage&#45;&gt;StatsPageModule -->
<g id="edge41" class="edge">
<title>StatsPage&#45;&gt;StatsPageModule</title>
<path fill="none" stroke="#000000" d="M1778.75,-122.1025C1778.75,-133.0859 1778.75,-145 1778.75,-145 1778.75,-145 1239.8224,-145 1239.8224,-145 1239.8224,-145 1239.8224,-151.68 1239.8224,-151.68"/>
<polygon fill="#000000" stroke="#000000" points="1236.3225,-151.6799 1239.8224,-161.68 1243.3225,-151.68 1236.3225,-151.6799"/>
</g>
<!-- TennisComponent -->
<g id="node44" class="node">
<title>TennisComponent</title>
<polygon fill="#ffffb3" stroke="#000000" points="1753.9356,-122 1634.0644,-122 1634.0644,-86 1753.9356,-86 1753.9356,-122"/>
<text text-anchor="middle" x="1694" y="-99.8" font-family="Times,serif" font-size="14.00" fill="#000000">TennisComponent</text>
</g>
<!-- TennisComponent&#45;&gt;StatsPageModule -->
<g id="edge42" class="edge">
<title>TennisComponent&#45;&gt;StatsPageModule</title>
<path fill="none" stroke="#000000" d="M1641.4972,-122.4218C1641.4972,-131.2791 1641.4972,-140 1641.4972,-140 1641.4972,-140 1234.2374,-140 1234.2374,-140 1234.2374,-140 1234.2374,-151.8726 1234.2374,-151.8726"/>
<polygon fill="#000000" stroke="#000000" points="1230.7375,-151.8725 1234.2374,-161.8726 1237.7375,-151.8726 1230.7375,-151.8725"/>
</g>
<!-- TestimonialsPage -->
<g id="node45" class="node">
<title>TestimonialsPage</title>
<polygon fill="#ffffb3" stroke="#000000" points="3588.5367,-198 3473.4633,-198 3473.4633,-162 3588.5367,-162 3588.5367,-198"/>
<text text-anchor="middle" x="3531" y="-175.8" font-family="Times,serif" font-size="14.00" fill="#000000">TestimonialsPage</text>
</g>
<!-- TestimonialsPage&#45;&gt;TestimonialsPageModule -->
<g id="edge44" class="edge">
<title>TestimonialsPage&#45;&gt;TestimonialsPageModule</title>
<path fill="none" stroke="#000000" d="M3531,-198.0109C3531,-198.0109 3531,-227.855 3531,-227.855"/>
<polygon fill="#000000" stroke="#000000" points="3527.5001,-227.8549 3531,-237.855 3534.5001,-227.855 3527.5001,-227.8549"/>
</g>
<!-- TweetsPage -->
<g id="node47" class="node">
<title>TweetsPage</title>
<polygon fill="#ffffb3" stroke="#000000" points="3740.6362,-198 3657.3638,-198 3657.3638,-162 3740.6362,-162 3740.6362,-198"/>
<text text-anchor="middle" x="3699" y="-175.8" font-family="Times,serif" font-size="14.00" fill="#000000">TweetsPage</text>
</g>
<!-- TweetsPage&#45;&gt;TweetsPageModule -->
<g id="edge46" class="edge">
<title>TweetsPage&#45;&gt;TweetsPageModule</title>
<path fill="none" stroke="#000000" d="M3699,-198.0109C3699,-198.0109 3699,-227.855 3699,-227.855"/>
<polygon fill="#000000" stroke="#000000" points="3695.5001,-227.8549 3699,-237.855 3702.5001,-227.855 3695.5001,-227.8549"/>
</g>
<!-- XstatsPage -->
<g id="node49" class="node">
<title>XstatsPage</title>
<polygon fill="#ffffb3" stroke="#000000" points="2108.2037,-122 2029.7963,-122 2029.7963,-86 2108.2037,-86 2108.2037,-122"/>
<text text-anchor="middle" x="2069" y="-99.8" font-family="Times,serif" font-size="14.00" fill="#000000">XstatsPage</text>
</g>
<!-- XstatsPage&#45;&gt;XstatsPageModule -->
<g id="edge48" class="edge">
<title>XstatsPage&#45;&gt;XstatsPageModule</title>
<path fill="none" stroke="#000000" d="M2069,-122.0511C2069,-136.373 2069,-154 2069,-154 2069,-154 1381.5835,-154 1381.5835,-154 1381.5835,-154 1381.5835,-154.7942 1381.5835,-154.7942"/>
<polygon fill="#000000" stroke="#000000" points="1378.0836,-151.9421 1381.5835,-161.9421 1385.0836,-151.9422 1378.0836,-151.9421"/>
</g>
</g>
</svg>
