<?xml version="1.0" encoding="UTF-8" standalone="no"?>
<!DOCTYPE svg PUBLIC "-//W3C//DTD SVG 1.1//EN"
 "http://www.w3.org/Graphics/SVG/1.1/DTD/svg11.dtd">
<!-- Generated by graphviz version 2.40.1 (20161225.0304)
 -->
<!-- Title: dependencies Pages: 1 -->
<svg width="560pt" height="211pt"
 viewBox="0.00 0.00 560.00 211.00" xmlns="http://www.w3.org/2000/svg" xmlns:xlink="http://www.w3.org/1999/xlink">
<g id="graph0" class="graph" transform="scale(1 1) rotate(0) translate(4 207)">
<title>dependencies</title>
<polygon fill="#ffffff" stroke="transparent" points="-4,4 -4,-207 556,-207 556,4 -4,4"/>
<text text-anchor="start" x="255.0091" y="-42.4" font-family="sans-serif" font-weight="bold" font-size="14.00" fill="#000000">Legend</text>
<polygon fill="#ffffb3" stroke="transparent" points="42,-10 42,-30 62,-30 62,-10 42,-10"/>
<text text-anchor="start" x="65.629" y="-15.4" font-family="sans-serif" font-size="14.00" fill="#000000"> &#160;Declarations</text>
<polygon fill="#8dd3c7" stroke="transparent" points="155,-10 155,-30 175,-30 175,-10 155,-10"/>
<text text-anchor="start" x="178.7251" y="-15.4" font-family="sans-serif" font-size="14.00" fill="#000000"> &#160;Module</text>
<polygon fill="#80b1d3" stroke="transparent" points="241,-10 241,-30 261,-30 261,-10 241,-10"/>
<text text-anchor="start" x="264.7812" y="-15.4" font-family="sans-serif" font-size="14.00" fill="#000000"> &#160;Bootstrap</text>
<polygon fill="#fdb462" stroke="transparent" points="338,-10 338,-30 358,-30 358,-10 338,-10"/>
<text text-anchor="start" x="361.6732" y="-15.4" font-family="sans-serif" font-size="14.00" fill="#000000"> &#160;Providers</text>
<polygon fill="#fb8072" stroke="transparent" points="434,-10 434,-30 454,-30 454,-10 434,-10"/>
<text text-anchor="start" x="457.7258" y="-15.4" font-family="sans-serif" font-size="14.00" fill="#000000"> &#160;Exports</text>
<g id="clust1" class="cluster">
<title>cluster_MainPagesModule</title>
<polygon fill="none" stroke="#000000" stroke-dasharray="1,5" points="8,-70 8,-195 544,-195 544,-70 8,-70"/>
</g>
<g id="clust2" class="cluster">
<title>cluster_MainPagesModule_declarations</title>
<polygon fill="none" stroke="#000000" points="358,-78 358,-130 536,-130 536,-78 358,-78"/>
</g>
<g id="clust4" class="cluster">
<title>cluster_MainPagesModule_imports</title>
<polygon fill="none" stroke="#000000" points="16,-78 16,-130 350,-130 350,-78 16,-78"/>
</g>
<!-- SupportModalComponent -->
<g id="node1" class="node">
<title>SupportModalComponent</title>
<polygon fill="#ffffb3" stroke="#000000" points="528.2161,-122 365.7839,-122 365.7839,-86 528.2161,-86 528.2161,-122"/>
<text text-anchor="middle" x="447" y="-99.8" font-family="Times,serif" font-size="14.00" fill="#000000">SupportModalComponent</text>
</g>
<!-- MainPagesModule -->
<g id="node2" class="node">
<title>MainPagesModule</title>
<polygon fill="#8dd3c7" stroke="#000000" points="303.7562,-187 300.7562,-191 279.7562,-191 276.7562,-187 182.2438,-187 182.2438,-151 303.7562,-151 303.7562,-187"/>
<text text-anchor="middle" x="243" y="-164.8" font-family="Times,serif" font-size="14.00" fill="#000000">MainPagesModule</text>
</g>
<!-- SupportModalComponent&#45;&gt;MainPagesModule -->
<g id="edge1" class="edge">
<title>SupportModalComponent&#45;&gt;MainPagesModule</title>
<path fill="none" stroke="#000000" d="M447,-122.1061C447,-141.3391 447,-169 447,-169 447,-169 313.9304,-169 313.9304,-169"/>
<polygon fill="#000000" stroke="#000000" points="313.9304,-165.5001 303.9304,-169 313.9304,-172.5001 313.9304,-165.5001"/>
</g>
<!-- IonicModule -->
<g id="node3" class="node">
<title>IonicModule</title>
<polygon fill="#8dd3c7" stroke="#000000" points="342.3162,-122 339.3162,-126 318.3162,-126 315.3162,-122 253.6838,-122 253.6838,-86 342.3162,-86 342.3162,-122"/>
<text text-anchor="middle" x="298" y="-99.8" font-family="Times,serif" font-size="14.00" fill="#000000">IonicModule</text>
</g>
<!-- IonicModule&#45;&gt;MainPagesModule -->
<g id="edge2" class="edge">
<title>IonicModule&#45;&gt;MainPagesModule</title>
<path fill="none" stroke="#000000" d="M278.8601,-122.1061C278.8601,-122.1061 278.8601,-140.991 278.8601,-140.991"/>
<polygon fill="#000000" stroke="#000000" points="275.3602,-140.9909 278.8601,-150.991 282.3602,-140.991 275.3602,-140.9909"/>
</g>
<!-- FormsModule -->
<g id="node4" class="node">
<title>FormsModule</title>
<polygon fill="#8dd3c7" stroke="#000000" points="235.8288,-122 232.8288,-126 211.8288,-126 208.8288,-122 140.1712,-122 140.1712,-86 235.8288,-86 235.8288,-122"/>
<text text-anchor="middle" x="188" y="-99.8" font-family="Times,serif" font-size="14.00" fill="#000000">FormsModule</text>
</g>
<!-- FormsModule&#45;&gt;MainPagesModule -->
<g id="edge3" class="edge">
<title>FormsModule&#45;&gt;MainPagesModule</title>
<path fill="none" stroke="#000000" d="M208.893,-122.1061C208.893,-122.1061 208.893,-140.991 208.893,-140.991"/>
<polygon fill="#000000" stroke="#000000" points="205.3931,-140.9909 208.893,-150.991 212.3931,-140.991 205.3931,-140.9909"/>
</g>
<!-- SharedModule -->
<g id="node5" class="node">
<title>SharedModule</title>
<polygon fill="#8dd3c7" stroke="#000000" points="122.4231,-122 119.4231,-126 98.4231,-126 95.4231,-122 23.5769,-122 23.5769,-86 122.4231,-86 122.4231,-122"/>
<text text-anchor="middle" x="73" y="-99.8" font-family="Times,serif" font-size="14.00" fill="#000000">SharedModule</text>
</g>
<!-- SharedModule&#45;&gt;MainPagesModule -->
<g id="edge4" class="edge">
<title>SharedModule&#45;&gt;MainPagesModule</title>
<path fill="none" stroke="#000000" d="M73,-122.1061C73,-141.3391 73,-169 73,-169 73,-169 172.1063,-169 172.1063,-169"/>
<polygon fill="#000000" stroke="#000000" points="172.1063,-172.5001 182.1063,-169 172.1062,-165.5001 172.1063,-172.5001"/>
</g>
</g>
</svg>
